SplineFontDB: 3.2
FontName: D-DIN-PRO-SemiBold-Italic
FullName: D-DIN-PRO-SemiBold-Italic
FamilyName: D-DIN-PRO
Weight: Semibold
Copyright: Copyright (c) CyberFei. All rights reserved
Version: 1.1.0
ItalicAngle: -13
UnderlinePosition: -150
UnderlineWidth: 50
Ascent: 831
Descent: 169
InvalidEm: 0
sfntRevision: 0x00010000
LayerCount: 2
Layer: 0 0 "Back" 1
Layer: 1 0 "Fore" 0
XUID: [1021 868 -1451673819 16286]
StyleMap: 0x0040
FSType: 4
OS2Version: 3
OS2_WeightWidthSlopeOnly: 0
OS2_UseTypoMetrics: 0
CreationTime: 1462909513
ModificationTime: 1778060079
PfmFamily: 17
TTFWeight: 600
TTFWidth: 5
LineGap: 86
VLineGap: 0
Panose: 2 11 5 4 3 2 2 3 2 4
OS2TypoAscent: 831
OS2TypoAOffset: 0
OS2TypoDescent: -169
OS2TypoDOffset: 0
OS2TypoLinegap: 86
OS2WinAscent: 902
OS2WinAOffset: 0
OS2WinDescent: 184
OS2WinDOffset: 0
HheadAscent: 831
HheadAOffset: 0
HheadDescent: -169
HheadDOffset: 0
OS2SubXSize: 650
OS2SubYSize: 600
OS2SubXOff: 0
OS2SubYOff: 75
OS2SupXSize: 650
OS2SupYSize: 600
OS2SupXOff: 0
OS2SupYOff: 350
OS2StrikeYSize: 50
OS2StrikeYPos: 304
OS2CapHeight: 690
OS2XHeight: 507
OS2Vendor: 'MONO'
OS2CodePages: 20000001.00000000
OS2UnicodeRanges: 8000006f.4000000a.00000000.00000000
Lookup: 1 0 0 "'rtla' Right to Left Alternates lookup 0" { "'rtla' Right to Left Alternates lookup 0 subtable"  } ['rtla' ('DFLT' <'dflt' > ) ]
Lookup: 1 0 0 "'sups' Superscript lookup 1" { "'sups' Superscript lookup 1 subtable" ("superior") } ['sups' ('DFLT' <'dflt' > ) ]
Lookup: 4 0 0 "'frac' Diagonal Fractions lookup 2" { "'frac' Diagonal Fractions lookup 2 subtable"  } ['frac' ('DFLT' <'dflt' > ) ]
Lookup: 4 0 0 "'dlig' Discretionary Ligatures in Latin lookup 3" { "'dlig' Discretionary Ligatures in Latin lookup 3 subtable"  } ['dlig' ('latn' <'dflt' > ) ]
Lookup: 4 0 1 "'liga' Standard Ligatures in Latin lookup 4" { "'liga' Standard Ligatures in Latin lookup 4 subtable"  } ['liga' ('latn' <'dflt' > ) ]

StartChar: .notdef
Encoding: 65536 -1 0
Width: 601
GlyphClass: 1
Flags: MW
HStem: 0.00976562 71.8203<107.038 378.253 107.038 433.492> 619.93 71.8203<233.577 504.792 233.577 233.577>
VStem: 101.979 71.8203 445.014 71.8203
LayerCount: 2
Fore
SplineSet
178.337890625 691.75 m 1
 593.193359375 691.75 l 1
 433.4921875 0.009765625 l 1
 18.63671875 0.009765625 l 1
 178.337890625 691.75 l 1
107.038085938 71.830078125 m 1
 378.252929688 71.830078125 l 1
 504.791992188 619.9296875 l 1
 233.577148438 619.9296875 l 1
 107.038085938 71.830078125 l 1
EndSplineSet
EndChar

StartChar: exclam
Encoding: 33 33 3
Width: 256
GlyphClass: 2
Flags: MW
HStem: 0.00976562 127.575<23.5205 117.862 -5.93262 147.315> 671.75 20G<156.033 276.244 276.244 276.244>
VStem: 77.4092 123.795 94.0283 91.501
LayerCount: 2
Fore
SplineSet
276.244140625 691.75 m 1xd0
 144.94921875 185.23046875 l 1
 53.4482421875 185.23046875 l 1
 156.033203125 691.75 l 1
 276.244140625 691.75 l 1xd0
23.5205078125 127.584960938 m 1xe0
 147.315429688 127.584960938 l 1
 117.862304688 0.009765625 l 1
 -5.9326171875 0.009765625 l 1
 23.5205078125 127.584960938 l 1xe0
EndSplineSet
EndChar

StartChar: quotedbl
Encoding: 34 34 4
Width: 321
GlyphClass: 2
Flags: MW
HStem: 434.71 257.04<132.979 175.695 73.6357 235.038 202.155 202.155 202.155 235.038 261.498 304.216>
VStem: 56.6191 102.06 185.139 102.061
LayerCount: 2
Fore
SplineSet
132.978515625 691.75 m 1
 235.038085938 691.75 l 1
 175.6953125 434.709960938 l 1
 73.6357421875 434.709960938 l 1
 132.978515625 691.75 l 1
261.498046875 691.75 m 1
 363.55859375 691.75 l 1
 304.215820312 434.709960938 l 1
 202.155273438 434.709960938 l 1
 261.498046875 691.75 l 1
EndSplineSet
EndChar

StartChar: numbersign
Encoding: 35 35 5
Width: 516
GlyphClass: 2
Flags: MW
HStem: 0.00976562 21G<-5.87402 90.8604 -5.87402 -5.87402 181.236 277.97 181.236 181.236> 208.855 92.6094<16.4141 69.7471 -4.9668 103.888 199.674 256.856 16.4141 166.481 386.784 447.688> 406.36 91.665<84.4736 141.815 63.3105 174.799 84.4736 237.603 270.591 327.98 457.701 515.966> 671.75 20G<245.039 340.83 340.83 340.83 431.204 527.94 527.94 527.94>
LayerCount: 2
Fore
SplineSet
537.12890625 498.025390625 m 1
 515.965820312 406.360351562 l 1
 424.711914062 406.360351562 l 1
 386.784179688 301.46484375 l 1
 469.069335938 301.46484375 l 1
 447.688476562 208.85546875 l 1
 353.590820312 208.85546875 l 1
 277.969726562 0.009765625 l 1
 181.236328125 0.009765625 l 1
 256.856445312 208.85546875 l 1
 166.481445312 208.85546875 l 1
 90.8603515625 0.009765625 l 1
 -5.8740234375 0.009765625 l 1
 69.7470703125 208.85546875 l 1
 -4.966796875 208.85546875 l 1
 16.4140625 301.46484375 l 1
 103.887695312 301.46484375 l 1
 141.815429688 406.360351562 l 1
 63.310546875 406.360351562 l 1
 84.4736328125 498.025390625 l 1
 174.798828125 498.025390625 l 1
 245.0390625 691.75 l 1
 340.830078125 691.75 l 1
 270.590820312 498.025390625 l 1
 360.963867188 498.025390625 l 1
 431.204101562 691.75 l 1
 527.940429688 691.75 l 1
 457.701171875 498.025390625 l 1
 537.12890625 498.025390625 l 1
290.051757812 301.46484375 m 1
 327.98046875 406.360351562 l 1
 237.602539062 406.360351562 l 1
 199.673828125 301.46484375 l 1
 290.051757812 301.46484375 l 1
EndSplineSet
EndChar

StartChar: dollar
Encoding: 36 36 6
Width: 464
GlyphClass: 2
Flags: MW
VStem: 36.1943 104.638 48.1143 105.841 188.919 94.501 322.627 103.411 328.779 105.84
LayerCount: 2
Fore
SplineSet
290.971679688 393.71484375 m 1x70
 371.03515625 378.13671875 427.427734375 329.849609375 400.802734375 214.525390625 c 0
 388.756835938 162.349609375 363.887695312 118.133789062 325.430664062 84.830078125 c 0
 291.76953125 55.6806640625 251.6875 37.6123046875 207.0078125 30.0244140625 c 1
 187.206054688 -55.7451171875 l 1
 92.7060546875 -55.7451171875 l 1
 112.318359375 29.201171875 l 1
 72.677734375 36.931640625 -19.1123046875 66.7470703125 4.26953125 215.875976562 c 2
 7.6142578125 237.205078125 l 1
 112.251953125 237.205078125 l 1xa8
 106.706054688 196.5859375 100.71484375 152.708984375 136.401367188 133.5234375 c 1
 176.598632812 307.637695312 l 1
 57.322265625 336.756835938 62.2451171875 422.208007812 75.3857421875 479.125 c 0
 86.990234375 529.391601562 110.908203125 572.334960938 147.791992188 605.237304688 c 0
 179.666015625 633.670898438 216.954101562 651.75390625 257.845703125 659.555664062 c 1
 276.404296875 739.943359375 l 1
 370.904296875 739.943359375 l 1
 352.541992188 660.407226562 l 1
 387.940429688 652.776367188 415.712890625 635.791015625 434.196289062 609.333984375 c 0
 455.896484375 578.267578125 461.553710938 534.990234375 453.930664062 481.818359375 c 2
 450.834960938 460.224609375 l 1
 345.534179688 460.224609375 l 1
 350.541992188 492.081054688 353.92578125 513.608398438 345.696289062 534.424804688 c 0
 342.03125 543.694335938 336.505859375 550.8671875 328.463867188 556.111328125 c 1
 290.971679688 393.71484375 l 1x70
233.928710938 555.954101562 m 1
 212.524414062 545.982421875 191.624023438 524.161132812 182.317382812 483.849609375 c 0x60
 173.2578125 444.612304688 184.112304688 427.171875 201.778320312 416.697265625 c 1
 233.928710938 555.954101562 l 1
230.268554688 130.77734375 m 1
 251.745117188 137.921875 281.29296875 155.315429688 293.872070312 209.799804688 c 0x28
 304.814453125 257.197265625 291.307617188 274.345703125 266.067382812 285.83984375 c 1
 230.268554688 130.77734375 l 1
213.956054688 670.014648438 m 1024
EndSplineSet
EndChar

StartChar: percent
Encoding: 37 37 7
Width: 821
GlyphClass: 2
Flags: MW
HStem: -5.66113 94.5<585.906 600.386 585.906 633.47> 252.325 94.5<170.133 184.613 170.133 217.695> 344.934 95.4453<653.205 659.139> 602.919 95.4463<237.43 243.364>
VStem: 46.2236 103.95 210.654 104.895 521.559 103.95 685.989 104.895
LayerCount: 2
Fore
SplineSet
155.32421875 252.325195312 m 0xdf
 77.638671875 252.325195312 30.5654296875 293.176757812 58.0048828125 412.030273438 c 2
 88.330078125 543.384765625 l 2
 99.2626953125 590.740234375 118.21484375 629.545898438 148.155273438 657.31640625 c 0
 178.424804688 685.39453125 216.559570312 698.365234375 258.30078125 698.365234375 c 0
 334.4375 698.365234375 384.708007812 660.561523438 357.655273438 543.384765625 c 2
 327.330078125 412.030273438 l 2
 314.909179688 358.231445312 280.06640625 252.325195312 155.32421875 252.325195312 c 0xdf
734.2109375 691.75 m 1
 200.569335938 0.009765625 l 1
 95.9140625 0.009765625 l 1
 629.555664062 691.75 l 1
 734.2109375 691.75 l 1
223.08984375 414.864257812 m 2
 251.452148438 537.713867188 l 2
 258.10546875 566.53515625 258.38671875 585.459960938 255.868164062 593.408203125 c 0
 254.05859375 599.12109375 250.462890625 602.918945312 236.265625 602.918945312 c 0
 222.068359375 602.918945312 216.71875 599.12109375 212.26953125 593.408203125 c 0
 206.08203125 585.459960938 197.625 566.53515625 190.971679688 537.713867188 c 2
 162.609375 414.864257812 l 2
 155.65234375 384.729492188 155.193359375 364.8828125 157.69921875 356.637695312 c 0
 159.54296875 350.575195312 163.124023438 346.825195312 177.141601562 346.825195312 c 0
 192.083984375 346.825195312 197.2421875 350.79296875 201.34375 356.31640625 c 0
 207.543945312 364.666992188 216.123046875 384.688476562 223.08984375 414.864257812 c 2
571.098632812 -5.6611328125 m 0
 493.413085938 -5.6611328125 446.33984375 35.19140625 473.778320312 154.043945312 c 2
 504.104492188 285.399414062 l 2
 515.037109375 332.754882812 533.989257812 371.559570312 563.9296875 399.331054688 c 0
 594.198242188 427.408203125 632.333984375 440.37890625 674.075195312 440.37890625 c 0xbf
 750.211914062 440.37890625 800.482421875 402.575195312 773.4296875 285.399414062 c 2
 743.103515625 154.043945312 l 2
 730.68359375 100.24609375 695.840820312 -5.6611328125 571.098632812 -5.6611328125 c 0
638.86328125 156.877929688 m 2
 667.225585938 279.728515625 l 2
 673.879882812 308.548828125 674.161132812 327.473632812 671.642578125 335.421875 c 0
 669.833007812 341.135742188 666.237304688 344.93359375 652.040039062 344.93359375 c 0
 637.842773438 344.93359375 632.493164062 341.135742188 628.043945312 335.421875 c 0
 621.856445312 327.473632812 613.399414062 308.548828125 606.745117188 279.728515625 c 2
 578.3828125 156.877929688 l 2
 571.42578125 126.743164062 570.966796875 106.896484375 573.474609375 98.6513671875 c 0
 575.317382812 92.58984375 578.897460938 88.8388671875 592.915039062 88.8388671875 c 0
 607.857421875 88.8388671875 613.015625 92.806640625 617.1171875 98.3310546875 c 0
 623.31640625 106.6796875 631.897460938 126.702148438 638.86328125 156.877929688 c 2
EndSplineSet
EndChar

StartChar: ampersand
Encoding: 38 38 8
Width: 598
GlyphClass: 2
Flags: MW
HStem: -9.44043 99.2256<168.153 189.66> 0.00976562 101.115<398.183 494.638 453.057 471.293> 604.81 96.3906<321.003 329.235>
VStem: 62.2891 103.952 107.649 103.95 316.493 103.006
LayerCount: 2
Fore
SplineSet
462.478515625 547.165039062 m 0xac
 446.9453125 479.885742188 401.731445312 432.638671875 317.369140625 369.286132812 c 1
 378.623046875 238.876953125 l 1
 462.893554688 324.791015625 l 1
 522.26171875 259.940429688 l 1
 418.784179688 153.698242188 l 1
 435.438476562 118.197265625 l 2
 442.370117188 103.538085938 449.1796875 101.125 453.056640625 101.125 c 2
 494.637695312 101.125 l 1
 471.29296875 0.009765625 l 1
 419.31640625 0.009765625 l 2x6c
 377.048828125 0.009765625 358.732421875 14.8876953125 342.096679688 50.9375 c 0
 342.060546875 51.015625 337.926757812 59.6923828125 333.580078125 68.8134765625 c 1
 281.540039062 23.1279296875 224.893554688 -9.4404296875 154.42578125 -9.4404296875 c 0
 100.640625 -9.4404296875 59.564453125 7.1572265625 35.4638671875 41.8134765625 c 0
 11.7041015625 75.978515625 6.8759765625 120.979492188 19.0908203125 173.889648438 c 0xb4
 34.931640625 242.501953125 81.2939453125 303.569335938 186.080078125 383.891601562 c 1
 168.665039062 422.995117188 157.232421875 452.157226562 151.598632812 472.526367188 c 0
 145.092773438 496.043945312 144.461914062 520.453125 150.192382812 545.275390625 c 0
 160.390625 589.44921875 184.123046875 627.793945312 220.678710938 657.198242188 c 0
 257.162109375 686.544921875 298.947265625 701.200195312 343.059570312 701.200195312 c 0
 387.166015625 701.200195312 421.983398438 686.530273438 444.314453125 657.024414062 c 0
 466.495117188 627.713867188 472.396484375 590.125976562 462.478515625 547.165039062 c 0xac
278.706054688 452.419921875 m 1
 334.452148438 495.352539062 352.37109375 516.407226562 359.690429688 548.110351562 c 0
 364.018554688 566.85546875 361.881835938 579.805664062 354.8203125 589.858398438 c 0
 347.837890625 599.797851562 337.663085938 604.809570312 320.806640625 604.809570312 c 0
 303.955078125 604.809570312 291.190429688 599.78125 279.21484375 589.6875 c 0
 267.391601562 579.72265625 259.059570312 566.573242188 254.579101562 547.165039062 c 0
 249.666992188 525.889648438 253.973632812 507.793945312 278.706054688 452.419921875 c 1
224.825195312 301.720703125 m 1
 158.463867188 249.923828125 132.201171875 213.55859375 123.697265625 176.724609375 c 0
 116.9375 147.44140625 119.728515625 126.833007812 129.647460938 112.04296875 c 0
 139.411132812 97.48828125 155.19140625 89.78515625 181.115234375 89.78515625 c 0xb4
 213.094726562 89.78515625 241.696289062 103.08203125 293.844726562 152.9296875 c 1
 224.825195312 301.720703125 l 1
EndSplineSet
EndChar

StartChar: quotesingle
Encoding: 39 39 9
Width: 191
GlyphClass: 2
Flags: MW
HStem: 434.71 257.04<132.979 175.695 73.6357 235.038>
VStem: 56.6191 102.06
LayerCount: 2
Fore
SplineSet
132.978515625 691.75 m 1
 235.038085938 691.75 l 1
 175.6953125 434.709960938 l 1
 73.6357421875 434.709960938 l 1
 132.978515625 691.75 l 1
EndSplineSet
EndChar

StartChar: parenleft
Encoding: 40 40 10
Width: 302
GlyphClass: 2
Flags: MW
VStem: 62.2891 104.895
LayerCount: 2
Fore
SplineSet
55.0888671875 329.815429688 m 0
 103.389648438 539.028320312 221.90234375 681.142578125 270.749023438 739 c 1
 362.45703125 739 l 1
 341.081054688 710.15625 l 2
 278.331054688 625.48046875 197.479492188 492.2265625 159.983398438 329.815429688 c 0
 141.145507812 248.219726562 120.784179688 103.567382812 165.421875 -50.3779296875 c 2
 173.829101562 -79.3701171875 l 1
 80.759765625 -79.3701171875 l 1
 59.0048828125 -20.759765625 7.25390625 122.616210938 55.0888671875 329.815429688 c 0
EndSplineSet
Substitution2: "'rtla' Right to Left Alternates lookup 0 subtable" parenright
EndChar

StartChar: parenright
Encoding: 41 41 11
Width: 302
GlyphClass: 2
Flags: MW
VStem: 158.679 103.951
LayerCount: 2
Fore
SplineSet
151.478515625 329.815429688 m 0
 165.1953125 389.227539062 193.169921875 537.90625 145.0546875 710.15625 c 2
 136.997070312 739 l 1
 228.64453125 739 l 1
 250.940429688 681.671875 304.166992188 540.918945312 255.4296875 329.815429688 c 0
 207.522460938 122.305664062 89.2236328125 -21.259765625 40.8232421875 -79.3701171875 c 1
 -52.24609375 -79.3701171875 l 1
 -8.3515625 -20.9765625 36.158203125 38.2353515625 82.7568359375 136.1015625 c 0
 113.865234375 201.435546875 136.7421875 265.983398438 151.478515625 329.815429688 c 0
EndSplineSet
Substitution2: "'rtla' Right to Left Alternates lookup 0 subtable" parenleft
EndChar

StartChar: asterisk
Encoding: 42 42 12
Width: 387
GlyphClass: 2
Flags: MW
HStem: 392.185 299.565<239.764 252.818 170.604 321.979>
VStem: 163.404 82.2148
LayerCount: 2
Fore
SplineSet
252.818359375 392.184570312 m 1
 170.603515625 392.184570312 l 1
 189.911132812 475.81640625 l 1
 112.124023438 435.943359375 l 1
 88.0400390625 504.271484375 l 1
 167.92578125 545.104492188 l 1
 106.634765625 585.186523438 l 1
 162.388671875 653.661132812 l 1
 221.764648438 613.788085938 l 1
 239.763671875 691.75 l 1
 321.978515625 691.75 l 1
 303.93359375 613.58984375 l 1
 383.153320312 653.78515625 l 1
 405.493164062 584.98046875 l 1
 326.10546875 545.104492188 l 1
 386.825195312 504.478515625 l 1
 332.83203125 435.8203125 l 1
 272.172851562 476.015625 l 1
 252.818359375 392.184570312 l 1
EndSplineSet
EndChar

StartChar: plus
Encoding: 43 43 13
Width: 517
GlyphClass: 2
Flags: MW
HStem: 229.646 102.06<53.6357 186.942 30.0732 210.505 312.565 445.873 53.6357 289.003>
VStem: 217.269 102.061
LayerCount: 2
Fore
SplineSet
289.002929688 229.645507812 m 1
 252.787109375 72.775390625 l 1
 150.7265625 72.775390625 l 1
 186.942382812 229.645507812 l 1
 30.0732421875 229.645507812 l 1
 53.6357421875 331.705078125 l 1
 210.504882812 331.705078125 l 1
 246.721679688 488.575195312 l 1
 348.782226562 488.575195312 l 1
 312.565429688 331.705078125 l 1
 469.435546875 331.705078125 l 1
 445.873046875 229.645507812 l 1
 289.002929688 229.645507812 l 1
EndSplineSet
EndChar

StartChar: comma
Encoding: 44 44 14
Width: 191
GlyphClass: 2
Flags: MW
HStem: -155.475 283.06<-62.6182 104.79>
VStem: 56.6191 102.06
LayerCount: 2
Fore
SplineSet
2.73046875 127.584960938 m 1
 104.790039062 127.584960938 l 1
 61.5751953125 -59.6005859375 l 1
 -62.6181640625 -155.474609375 l 1
 2.73046875 127.584960938 l 1
EndSplineSet
EndChar

StartChar: hyphen
Encoding: 45 45 15
Width: 403
GlyphClass: 2
Flags: MW
HStem: 296.74 102.06<71.0156 347.018 47.4531 370.58>
VStem: 62.2891 299.564
LayerCount: 2
Fore
SplineSet
71.015625 398.799804688 m 1
 370.580078125 398.799804688 l 1
 347.017578125 296.740234375 l 1
 47.453125 296.740234375 l 1
 71.015625 398.799804688 l 1
EndSplineSet
EndChar

StartChar: period
Encoding: 46 46 16
Width: 212
GlyphClass: 2
Flags: MW
HStem: 0.00976562 126.63<2.5127 96.127 -26.7227 125.362>
VStem: 56.6191 122.85
LayerCount: 2
Fore
SplineSet
2.5126953125 126.639648438 m 1
 125.362304688 126.639648438 l 1
 96.126953125 0.009765625 l 1
 -26.72265625 0.009765625 l 1
 2.5126953125 126.639648438 l 1
EndSplineSet
EndChar

StartChar: slash
Encoding: 47 47 17
Width: 402
GlyphClass: 2
Flags: MW
HStem: 671.75 20G<346.034 444.246 444.246 444.246>
VStem: 55.3115 312.575
LayerCount: 2
Fore
SplineSet
444.24609375 691.75 m 1
 67.9990234375 -9.4404296875 l 1
 -30.2119140625 -9.4404296875 l 1
 346.034179688 691.75 l 1
 444.24609375 691.75 l 1
EndSplineSet
EndChar

StartChar: zero
Encoding: 48 48 18
Width: 499
GlyphClass: 2
Flags: MW
HStem: -9.44043 102.061<180.854 212.913 180.854 267.375> 599.14 102.061<297.794 329.852>
VStem: 68.9043 108.674 341.063 108.676
LayerCount: 2
Fore
SplineSet
173.325195312 -9.4404296875 m 0
 82.494140625 -9.4404296875 -6.77734375 33.1875 36.1787109375 219.25 c 2
 95.5205078125 476.290039062 l 2
 107.029296875 526.13671875 150.384765625 701.200195312 337.389648438 701.200195312 c 0
 428.379882812 701.200195312 518.650390625 659.486328125 476.35546875 476.290039062 c 2
 417.013671875 219.25 l 2
 405.368164062 168.806640625 361.423828125 -9.4404296875 173.325195312 -9.4404296875 c 0
311.392578125 232.48046875 m 2
 363.752929688 459.280273438 l 2
 376.630859375 515.060546875 376.90625 552.524414062 369.147460938 571.44140625 c 0
 361.838867188 589.258789062 345.876953125 599.139648438 313.826171875 599.139648438 c 0
 281.76171875 599.139648438 261.5078125 589.272460938 246.321289062 571.594726562 c 0
 230.044921875 552.647460938 213.151367188 515.083984375 200.267578125 459.280273438 c 2
 147.907226562 232.48046875 l 2
 135.0234375 176.676757812 134.573242188 139.11328125 142.100585938 120.165039062 c 0
 149.125 102.48828125 164.822265625 92.6201171875 196.88671875 92.6201171875 c 0
 228.938476562 92.6201171875 249.462890625 102.500976562 264.999023438 120.319335938 c 0
 281.4921875 139.235351562 298.513671875 176.69921875 311.392578125 232.48046875 c 2
EndSplineSet
EndChar

StartChar: one
Encoding: 49 49 19
Width: 342
GlyphClass: 2
Flags: MW
HStem: 0.00976562 21G<82.8975 190.627 82.8975 82.8975> 671.75 20G<254.739 350.328 350.328 350.328>
VStem: 166.239 107.729
LayerCount: 2
Fore
SplineSet
78.671875 468.799804688 m 1
 107.959960938 595.663085938 l 1
 254.739257812 691.75 l 1
 350.328125 691.75 l 1
 190.626953125 0.009765625 l 1
 82.8974609375 0.009765625 l 1
 210.543945312 552.904296875 l 1
 78.671875 468.799804688 l 1
EndSplineSet
Substitution2: "'sups' Superscript lookup 1 subtable" uni00B9
EndChar

StartChar: two
Encoding: 50 50 20
Width: 475
GlyphClass: 2
Flags: MW
HStem: 0.00976562 101.115<145.127 349.387> 600.084 101.115<298.854 313.528>
VStem: 62.2881 107.73 323.108 109.62
LayerCount: 2
Fore
SplineSet
326.048828125 701.19921875 m 0
 437.682617188 701.19921875 493.03515625 622.217773438 469.380859375 519.758789062 c 2
 465.671875 503.694335938 l 2
 455.583007812 459.995117188 431.758789062 410.891601562 367.956054688 341.939453125 c 2
 145.126953125 101.125 l 1
 372.731445312 101.125 l 1
 349.38671875 0.009765625 l 1
 -21.052734375 0.009765625 l 1
 -2.1572265625 81.853515625 l 1
 294.145507812 400.575195312 l 2
 329.344726562 439.376953125 349.1484375 473.793945312 356.051757812 503.6953125 c 2
 359.32421875 517.870117188 l 2
 365.740234375 545.661132812 362.6796875 564.872070312 352.487304688 578.744140625 c 0
 342.239257812 592.693359375 326.2421875 600.083984375 300.814453125 600.083984375 c 0
 261.217773438 600.083984375 220.93359375 581.538085938 205.361328125 514.088867188 c 2
 196.853515625 477.234375 l 1
 89.123046875 477.234375 l 1
 98.50390625 517.869140625 l 2
 110.801757812 571.134765625 137.899414062 616.43359375 179.826171875 650.49609375 c 0
 221.88671875 684.666992188 271.658203125 701.19921875 326.048828125 701.19921875 c 0
EndSplineSet
Substitution2: "'sups' Superscript lookup 1 subtable" uni00B2
EndChar

StartChar: three
Encoding: 51 51 21
Width: 501
GlyphClass: 2
Flags: MW
HStem: -9.44043 101.112<179.907 198.087> 307.133 102.061<208.551 238.854 184.988 261.471> 600.083 101.115<307.207 322.323>
VStem: 64.1797 108.675 71.7402 105.84 332.56 107.729 342.955 108.674
LayerCount: 2
Fore
SplineSet
379.797851562 366.3671875 m 1xec
 402.954101562 348.102539062 438.426757812 303.81640625 417.157226562 211.689453125 c 2
 411.920898438 189.008789062 l 2
 398.481445312 130.79296875 369.317382812 81.6962890625 324.202148438 45.04296875 c 0
 279.208984375 8.4892578125 226.627929688 -9.4404296875 169.545898438 -9.4404296875 c 0
 113.719726562 -9.4404296875 70.23828125 5.7412109375 42.3701171875 37.7646484375 c 0
 14.384765625 69.9228515625 7.1650390625 114.043945312 19.2353515625 166.327148438 c 2
 27.3076171875 201.291992188 l 1
 135.982421875 201.291992188 l 1
 128.565429688 169.162109375 l 2
 122.540039062 143.063476562 126.014648438 125.383789062 137.001953125 112.33203125 c 0
 148.161132812 99.0771484375 165.978515625 91.671875 193.834960938 91.671875 c 0
 223.1015625 91.671875 245.055664062 100.181640625 263.301757812 115.993164062 c 0
 281.884765625 132.09765625 295.208007812 154.186523438 302.375 185.228515625 c 2
 308.046875 209.797851562 l 2xf2
 315.4921875 242.047851562 312.143554688 265.000976562 300.2734375 281.732421875 c 0
 288.5390625 298.2734375 269.407226562 307.1328125 238.853515625 307.1328125 c 2
 184.98828125 307.1328125 l 1
 208.55078125 409.193359375 l 1
 261.470703125 409.193359375 l 2
 288.696289062 409.193359375 309.310546875 417.259765625 326.916992188 432.549804688 c 0
 344.947265625 448.208007812 357.438476562 468.76171875 363.975585938 497.078125 c 2
 368.338867188 515.978515625 l 2
 374.75 543.748046875 371.8046875 563.438476562 361.544921875 578.043945312 c 0
 351.426757812 592.447265625 335.32421875 600.083007812 309.321289062 600.083007812 c 0
 282.956054688 600.083007812 263.6328125 592.7578125 248.024414062 579.698242188 c 0
 232.061523438 566.341796875 220.8359375 548.36328125 214.88671875 522.592773438 c 2
 206.814453125 487.627929688 l 1
 100.974609375 487.627929688 l 1
 109.483398438 524.483398438 l 2
 121.4921875 576.5 148.01171875 620.536132812 189.165039062 653.087890625 c 0
 230.43359375 685.732421875 279.858398438 701.198242188 334.555664062 701.198242188 c 0
 388.840820312 701.198242188 430.883789062 685.072265625 457.053710938 651.515625 c 0
 483.18359375 618.009765625 489.224609375 572.962890625 476.94140625 519.7578125 c 2
 472.141601562 498.967773438 l 2
 464.104492188 464.15625 441.78125 407.759765625 379.797851562 366.3671875 c 1xec
EndSplineSet
Substitution2: "'sups' Superscript lookup 1 subtable" uni00B3
EndChar

StartChar: four
Encoding: 52 52 22
Width: 504
GlyphClass: 2
Flags: MW
HStem: 0.00976562 21G<211.417 320.092 211.417 211.417> 127.585 102.061<138.462 240.87 373.107 420.42 138.462 349.545> 671.75 20G<328.671 440.762 440.762 440.762>
VStem: 294.759 108.675
LayerCount: 2
Fore
SplineSet
373.107421875 229.645507812 m 1
 443.982421875 229.645507812 l 1
 420.419921875 127.584960938 l 1
 349.544921875 127.584960938 l 1
 320.091796875 0.009765625 l 1
 211.416992188 0.009765625 l 1
 240.870117188 127.584960938 l 1
 -3.884765625 127.584960938 l 1
 16.0283203125 213.834960938 l 1
 328.670898438 691.75 l 1
 440.76171875 691.75 l 1
 138.461914062 229.645507812 l 1
 264.432617188 229.645507812 l 1
 305.44921875 407.3046875 l 1
 414.124023438 407.3046875 l 1
 373.107421875 229.645507812 l 1
EndSplineSet
EndChar

StartChar: five
Encoding: 53 53 23
Width: 490
GlyphClass: 2
Flags: MW
HStem: -9.44043 102.061<156.884 196.763> 361 102.06<270.884 271.539> 588.745 103.005<234.882 483.417 234.882 234.882>
VStem: 68.9033 105.84 79.2979 103.005 332.558 108.676
LayerCount: 2
Fore
SplineSet
287.135742188 463.059570312 m 0xec
 402.178710938 463.059570312 447.9453125 390.07421875 418.107421875 260.830078125 c 2
 401.744140625 189.955078125 l 2
 387.873046875 129.870117188 360.548828125 80.1845703125 318.263671875 44.0693359375 c 0
 275.975585938 7.953125 224.924804688 -9.4404296875 168.600585938 -9.4404296875 c 0
 113.522460938 -9.4404296875 70.916015625 5.17578125 44.30078125 36.46875 c 0
 17.6923828125 67.75390625 11.1220703125 110.721679688 22.869140625 161.60546875 c 2
 30.287109375 193.735351562 l 1
 136.126953125 193.735351562 l 1
 130.018554688 167.275390625 l 2xf4
 122.853515625 136.241210938 122.55078125 92.6201171875 191.216796875 92.6201171875 c 0
 223.458007812 92.6201171875 272.453125 100.658203125 294.377929688 195.625 c 2
 308.55859375 257.049804688 l 2
 330.388671875 351.606445312 288.955078125 361 254.123046875 361 c 0
 230.03515625 361 191.522460938 353.099609375 166.31640625 308.422851562 c 2
 158.658203125 294.849609375 l 1
 64.025390625 294.849609375 l 1
 155.657226562 691.75 l 1
 507.197265625 691.75 l 1
 483.416992188 588.745117188 l 1
 234.881835938 588.745117188 l 1
 200.916992188 441.629882812 l 1
 226.23828125 454.505859375 254.6328125 463.059570312 287.135742188 463.059570312 c 0xec
EndSplineSet
EndChar

StartChar: six
Encoding: 54 54 24
Width: 500
GlyphClass: 2
Flags: MW
HStem: -9.44043 101.115<183.144 212.082 183.144 226.693> 323.2 102.06<236.891 316.287> 671.75 20G<337.064 453.078 453.078 453.078>
VStem: 62.2881 109.621 348.625 108.673
LayerCount: 2
Fore
SplineSet
23.671875 193.735351562 m 2
 31.08984375 225.865234375 l 2
 38.7587890625 259.084960938 53.814453125 302.185546875 105.986328125 373.5703125 c 0
 106.033203125 373.635742188 329.036132812 680.6953125 329.036132812 680.6953125 c 1
 337.064453125 691.75 l 1
 453.078125 691.75 l 1
 258.458007812 422.422851562 l 1
 268.899414062 424.315429688 279.344726562 425.259765625 289.748046875 425.259765625 c 0
 342.826171875 425.259765625 383.85546875 407.114257812 409.3359375 370.739257812 c 0
 434.888671875 334.262695312 439.889648438 285.598632812 426.53515625 227.754882812 c 2
 419.118164062 195.625 l 2
 409.626953125 154.516601562 392.896484375 117.942382812 368.33984375 86.7666015625 c 0
 342.651367188 54.154296875 279.116210938 -9.4404296875 174.270507812 -9.4404296875 c 0
 115.96484375 -9.4404296875 71.1142578125 8.79296875 43.4169921875 46.1943359375 c 0
 15.7265625 83.5849609375 9.8447265625 133.842773438 23.671875 193.735351562 c 2
309.572265625 191.84375 m 2
 316.990234375 223.974609375 l 2
 324.61328125 256.99609375 321.436523438 280.548828125 309.860351562 297.551757812 c 0
 298.364257812 314.435546875 280.08203125 323.200195312 251.068359375 323.200195312 c 0
 222.713867188 323.200195312 200.658203125 314.604492188 181.361328125 297.916015625 c 0
 162.12109375 281.276367188 148.118164062 257.952148438 140.4921875 224.919921875 c 2
 133.07421875 192.790039062 l 2
 125.274414062 159.004882812 128.268554688 134.84765625 139.556640625 117.567382812 c 0
 150.697265625 100.51171875 168.672851562 91.6748046875 197.614257812 91.6748046875 c 0
 226.548828125 91.6748046875 248.846679688 100.520507812 268.236328125 117.688476562 c 0
 287.850585938 135.0546875 301.951171875 158.833007812 309.572265625 191.84375 c 2
EndSplineSet
EndChar

StartChar: seven
Encoding: 55 55 25
Width: 439
GlyphClass: 2
Flags: MW
HStem: 0.00976562 21G<2.53906 113.852 2.53906 2.53906> 589.69 102.06<120.693 354.138 97.1309 492.078>
LayerCount: 2
Fore
SplineSet
492.078125 691.75 m 1
 472.293945312 606.055664062 l 1
 113.8515625 0.009765625 l 1
 2.5390625 0.009765625 l 1
 354.137695312 589.690429688 l 1
 97.130859375 589.690429688 l 1
 120.693359375 691.75 l 1
 492.078125 691.75 l 1
EndSplineSet
EndChar

StartChar: eight
Encoding: 56 56 26
Width: 517
GlyphClass: 2
Flags: MW
HStem: -9.44043 101.114<191.696 220.581 191.696 240.983> 311.859 101.115<267.758 271.785> 600.084 101.116<311.291 335.694>
VStem: 68.9023 108.676 82.1318 108.676 346.732 108.677 359.018 108.678
LayerCount: 2
Fore
SplineSet
181.831054688 -9.4404296875 m 0xe2
 65.896484375 -9.4404296875 1.791015625 70.3095703125 29.1953125 189.010742188 c 2
 34.6494140625 212.635742188 l 2xf2
 41.8876953125 243.989257812 66.318359375 316.918945312 142.602539062 364.564453125 c 1
 120.749023438 386.247070312 97.4189453125 427.217773438 113.766601562 498.026367188 c 2
 118.129882812 516.92578125 l 2
 142.069335938 620.618164062 235.844726562 701.200195312 346.83984375 701.200195312 c 0
 458.897460938 701.200195312 515.77734375 622.482421875 491.407226562 516.924804688 c 2
 487.043945312 498.025390625 l 2xec
 478.193359375 459.690429688 455.171875 404.760742188 395.534179688 364.4453125 c 1
 413.654296875 348.51953125 454.015625 301.748046875 433.661132812 213.581054688 c 2
 428.206054688 189.956054688 l 2
 400.899414062 71.67578125 300.135742188 -9.4404296875 181.831054688 -9.4404296875 c 0xe2
378.3671875 498.025390625 m 2xec
 382.948242188 517.870117188 l 2
 388.811523438 543.264648438 385.752929688 562.166015625 374.759765625 577.4375 c 0
 363.880859375 592.547851562 347.89453125 600.083984375 323.493164062 600.083984375 c 0
 299.087890625 600.083984375 279.868164062 592.559570312 262.392578125 577.563476562 c 0
 244.62109375 562.3125 232.905273438 543.34765625 227.0234375 517.870117188 c 2
 222.442382812 498.025390625 l 2
 216.203125 471.001953125 219.03125 451.141601562 229.401367188 435.71875 c 0
 239.528320312 420.658203125 255.220703125 412.974609375 280.295898438 412.974609375 c 0
 305.366210938 412.974609375 324.854492188 420.668945312 342.314453125 435.848632812 c 0
 360.075195312 451.291015625 372.146484375 471.081054688 378.3671875 498.025390625 c 2xec
319.528320312 189.954101562 m 2xf2
 324.982421875 213.579101562 l 2
 332.2578125 245.09375 329.017578125 268.200195312 317.059570312 285.728515625 c 0
 305.333984375 302.916992188 286.619140625 311.859375 256.951171875 311.859375 c 0
 228.107421875 311.859375 205.364257812 302.9140625 185.131835938 285.24609375 c 0
 164.541992188 267.265625 150.635742188 244.298828125 143.54296875 213.579101562 c 2
 138.088867188 189.954101562 l 2
 130.997070312 159.234375 134.298828125 136.267578125 146.5859375 118.287109375 c 0
 158.66015625 100.619140625 177.274414062 91.673828125 206.118164062 91.673828125 c 0
 235.04296875 91.673828125 257.815429688 100.537109375 277.951171875 117.919921875 c 0
 298.275390625 135.465820312 312.268554688 158.508789062 319.528320312 189.954101562 c 2xf2
EndSplineSet
EndChar

StartChar: nine
Encoding: 57 57 27
Width: 500
GlyphClass: 2
Flags: MW
HStem: 0.00976562 21G<60.5664 176.519 60.5664 60.5664> 266.5 102.06<196.292 276.091> 600.085 101.115<300.526 329.464>
VStem: 62.29 108.676 347.68 109.619
LayerCount: 2
Fore
SplineSet
222.857421875 266.5 m 0
 169.725585938 266.5 128.712890625 284.85546875 103.329101562 321.564453125 c 0
 77.9443359375 358.275390625 72.8466796875 406.727539062 86.0703125 464.004882812 c 2
 93.48828125 496.134765625 l 2
 102.978515625 537.243164062 119.709960938 573.817382812 144.266601562 604.993164062 c 0
 169.955078125 637.60546875 233.489257812 701.200195312 338.334960938 701.200195312 c 0
 396.640625 701.200195312 441.4921875 682.966796875 469.189453125 645.56640625 c 0
 496.879882812 608.174804688 502.760742188 557.916992188 488.93359375 498.025390625 c 2
 481.515625 465.895507812 l 2
 473.276367188 430.208984375 459.7265625 391.625976562 406.818359375 318.465820312 c 2
 176.518554688 0.009765625 l 1
 60.56640625 0.009765625 l 1
 254.3203125 269.368164062 l 1
 243.821289062 267.455078125 233.318359375 266.5 222.857421875 266.5 c 0
372.114257812 466.83984375 m 2
 379.532226562 498.969726562 l 2
 387.33203125 532.754882812 384.337890625 556.912109375 373.049804688 574.192382812 c 0
 361.91015625 591.249023438 343.934570312 600.084960938 314.993164062 600.084960938 c 0
 286.05859375 600.084960938 263.76171875 591.240234375 244.37109375 574.072265625 c 0
 224.756835938 556.706054688 210.658203125 532.926757812 203.037109375 499.915039062 c 2
 195.619140625 467.78515625 l 2
 187.995117188 434.763671875 191.171875 411.209960938 202.748046875 394.208007812 c 0
 214.244140625 377.325195312 232.526367188 368.559570312 261.541015625 368.559570312 c 0
 290.641601562 368.559570312 312.763671875 377.237304688 331.58203125 393.724609375 c 0
 350.553710938 410.34765625 364.473632812 433.7421875 372.114257812 466.83984375 c 2
EndSplineSet
EndChar

StartChar: colon
Encoding: 58 58 28
Width: 212
GlyphClass: 2
Flags: MW
HStem: 0.00976562 126.63<2.5127 96.127 -26.7227 125.362> 319.42 126.63<76.2539 169.869 47.0195 199.104>
VStem: 56.6191 122.85
LayerCount: 2
Fore
SplineSet
2.5126953125 126.639648438 m 1
 125.362304688 126.639648438 l 1
 96.126953125 0.009765625 l 1
 -26.72265625 0.009765625 l 1
 2.5126953125 126.639648438 l 1
76.25390625 446.049804688 m 1
 199.103515625 446.049804688 l 1
 169.869140625 319.419921875 l 1
 47.01953125 319.419921875 l 1
 76.25390625 446.049804688 l 1
EndSplineSet
EndChar

StartChar: semicolon
Encoding: 59 59 29
Width: 212
GlyphClass: 2
Flags: MW
HStem: 319.42 126.63<76.2539 169.869 47.0195 199.104>
VStem: 56.6191 122.85 77.4092 102.06
LayerCount: 2
Fore
SplineSet
76.25390625 446.049804688 m 1xc0
 199.103515625 446.049804688 l 1
 169.869140625 319.419921875 l 1
 47.01953125 319.419921875 l 1
 76.25390625 446.049804688 l 1xc0
23.5205078125 127.584960938 m 1xa0
 125.580078125 127.584960938 l 1
 82.365234375 -59.6005859375 l 1
 -41.828125 -155.474609375 l 1
 23.5205078125 127.584960938 l 1xa0
EndSplineSet
EndChar

StartChar: less
Encoding: 60 60 30
Width: 517
GlyphClass: 2
Flags: W
LayerCount: 2
Fore
SplineSet
32.4521484375 239.94921875 m 1
 51.482421875 322.376953125 l 1
 506.35546875 491.622070312 l 1
 480.94140625 381.540039062 l 1
 203.408203125 280.674804688 l 1
 434.368164062 179.810546875 l 1
 408.9375 69.6591796875 l 1
 32.4521484375 239.94921875 l 1
EndSplineSet
Substitution2: "'rtla' Right to Left Alternates lookup 0 subtable" greater
EndChar

StartChar: equal
Encoding: 61 61 31
Width: 517
GlyphClass: 2
Flags: MW
HStem: 138.925 102.061<32.6914 424.929 9.12891 448.491> 319.42 103.005<74.5801 466.6 50.7998 490.38>
LayerCount: 2
Fore
SplineSet
74.580078125 422.424804688 m 1
 490.379882812 422.424804688 l 1
 466.599609375 319.419921875 l 1
 50.7998046875 319.419921875 l 1
 74.580078125 422.424804688 l 1
32.69140625 240.985351562 m 1
 448.491210938 240.985351562 l 1
 424.928710938 138.924804688 l 1
 9.12890625 138.924804688 l 1
 32.69140625 240.985351562 l 1
EndSplineSet
EndChar

StartChar: greater
Encoding: 62 62 32
Width: 517
GlyphClass: 2
Flags: W
LayerCount: 2
Fore
SplineSet
65.1416015625 381.540039062 m 1
 90.5556640625 491.622070312 l 1
 467.282226562 322.376953125 l 1
 448.251953125 239.94921875 l 1
 -6.8623046875 69.6591796875 l 1
 18.568359375 179.810546875 l 1
 296.099609375 280.674804688 l 1
 65.1416015625 381.540039062 l 1
EndSplineSet
Substitution2: "'rtla' Right to Left Alternates lookup 0 subtable" less
EndChar

StartChar: question
Encoding: 63 63 33
Width: 437
GlyphClass: 2
Flags: MW
HStem: 0.00878906 127.575<107.626 201.968 78.1729 231.421> 599.14 102.061<276.396 307.741>
VStem: 41.9668 107.848 161.515 123.795 169.074 108.675 298.54 108.674
LayerCount: 2
Fore
SplineSet
336.065429688 523.540039062 m 0xec
 345.477539062 564.309570312 336.618164062 599.139648438 278.86328125 599.139648438 c 0
 242.91015625 599.139648438 203.828125 587.68359375 185.866210938 515.609375 c 2
 181.012695312 496.134765625 l 1
 73.1650390625 496.134765625 l 1
 78.3408203125 516.459960938 l 2
 92.65234375 572.654296875 118.922851562 618.93359375 158.7109375 652.1484375 c 0
 198.846679688 685.653320312 248.4765625 701.200195312 304.314453125 701.200195312 c 0
 357.97265625 701.200195312 399.471679688 685.224609375 425.091796875 651.915039062 c 0
 450.540039062 618.827148438 456.608398438 574.954101562 444.739257812 523.540039062 c 0
 434.25 478.106445312 413.219726562 440.901367188 360.982421875 385.413085938 c 2
 289.706054688 309.858398438 l 2
 263.532226562 281.98828125 256.293945312 268.068359375 250.477539062 242.875 c 2
 233.2421875 168.219726562 l 1
 124.567382812 168.219726562 l 1
 142.020507812 243.8203125 l 2
 154.1171875 296.216796875 169.54296875 321.88671875 208.0234375 361.443359375 c 0
 208.044921875 361.466796875 275.08203125 430.534179688 275.08203125 430.534179688 c 2
 317.37109375 473.647460938 329.427734375 494.791992188 336.065429688 523.540039062 c 0xec
107.625976562 127.583984375 m 1xf4
 231.420898438 127.583984375 l 1
 201.967773438 0.0087890625 l 1
 78.1728515625 0.0087890625 l 1
 107.625976562 127.583984375 l 1xf4
EndSplineSet
EndChar

StartChar: at
Encoding: 64 64 34
Width: 862
GlyphClass: 2
Flags: MW
HStem: -120.95 101.116<263.226 393.679> 52.9326 94.5<371.754 381.988> 416.758 94.5<435.777 459.373> 591.58 100.172<478.672 573.036>
VStem: 62.2891 106.784 260.739 104.895 502.659 103.949 707.723 106.786
LayerCount: 2
Fore
SplineSet
327.130859375 -120.950195312 m 0
 109.25 -120.950195312 -14.634765625 27.8076171875 37.8544921875 255.163085938 c 2
 52.6904296875 319.422851562 l 2
 69.3671875 391.659179688 100.17578125 456.500976562 145.319335938 513.005859375 c 0
 190.307617188 569.31640625 245.493164062 613.59765625 309.654296875 644.895507812 c 0
 373.956054688 676.260742188 442.583984375 691.751953125 514.759765625 691.751953125 c 0
 733.86328125 691.751953125 855.9453125 540.481445312 805.345703125 321.3125 c 2
 790.728515625 257.998046875 l 2
 775.874023438 193.655273438 750.403320312 142.196289062 711.215820312 106.178710938 c 0
 672.939453125 70.998046875 628.209960938 52.9326171875 580.845703125 52.9326171875 c 0
 567.1796875 52.9326171875 510.162109375 53.2607421875 482.489257812 101.776367188 c 1
 455.577148438 76.1044921875 413.709960938 52.9326171875 350.265625 52.9326171875 c 0
 297.733398438 52.9326171875 258.8125 69.6884765625 239.836914062 105.6953125 c 0
 221.571289062 140.3515625 220.569335938 187.005859375 233.686523438 243.823242188 c 2
 251.140625 319.422851562 l 2
 277.352539062 432.962890625 342.659179688 511.2578125 454.188476562 511.2578125 c 0
 475.170898438 511.2578125 508.133789062 508.159179688 534.700195312 487.51171875 c 1
 538.000976562 501.807617188 l 1
 639.116210938 501.807617188 l 1
 571.483398438 208.857421875 l 2
 565.875976562 184.567382812 567.985351562 169.418945312 573.775390625 160.5859375 c 0
 580.078125 150.970703125 588.827148438 146.487304688 603.388671875 146.487304688 c 0
 621.975585938 146.487304688 634.634765625 152.784179688 647.125976562 167.37890625 c 0
 659.606445312 181.9609375 673.31640625 211.97265625 683.723632812 257.05078125 c 2
 698.341796875 320.366210938 l 2
 737.775390625 491.173828125 654.440429688 591.580078125 491.631835938 591.580078125 c 0
 325.733398438 591.580078125 198.323242188 487.698242188 159.91015625 321.310546875 c 2
 144.419921875 254.215820312 l 2
 107.932617188 96.173828125 175.9765625 -19.833984375 350.475585938 -19.833984375 c 0
 457.87890625 -19.833984375 515.299804688 7.30859375 576.461914062 36.2197265625 c 1
 593.5859375 -53.822265625 l 1
 533.868164062 -84.0927734375 460.227539062 -120.950195312 327.130859375 -120.950195312 c 0
385.313476562 147.432617188 m 0
 408.640625 147.432617188 454.139648438 150.841796875 475.606445312 243.823242188 c 2
 493.49609375 321.3125 l 2
 514.67578125 413.048828125 471.254882812 416.7578125 447.491210938 416.7578125 c 0
 424.0625 416.7578125 377.731445312 413.401367188 355.81640625 318.477539062 c 2
 339.671875 248.547851562 l 2
 331.161132812 211.684570312 331.984375 185.749023438 338.951171875 169.760742188 c 0
 345.135742188 155.571289062 358.194335938 147.432617188 385.313476562 147.432617188 c 0
EndSplineSet
EndChar

StartChar: A
Encoding: 65 65 35
Width: 579
GlyphClass: 2
Flags: MW
HStem: 0.00976562 21G<-78.6875 -78.6875 -78.6875 36.5088 394.831 394.831 394.831 510.027> 156.88 98.2803<183.88 365.198 183.88 376.237 127.535 365.198> 671.75 20G<332.646 418.096 418.096 418.096>
LayerCount: 2
Fore
SplineSet
-78.6875 0.009765625 m 1
 332.646484375 691.75 l 1
 418.095703125 691.75 l 1
 510.02734375 0.009765625 l 1
 394.831054688 0.009765625 l 1
 376.237304688 156.879882812 l 1
 127.53515625 156.879882812 l 1
 36.5087890625 0.009765625 l 1
 -78.6875 0.009765625 l 1
183.879882812 255.16015625 m 1
 365.198242188 255.16015625 l 1
 334.216796875 515.217773438 l 1
 183.879882812 255.16015625 l 1
EndSplineSet
EndChar

StartChar: B
Encoding: 66 66 36
Width: 614
GlyphClass: 2
Flags: MW
HStem: 0.00976562 101.114<130.811 263.391> 302.409 101.115<200.625 325.645 177.28 343.319> 590.634 101.116<243.822 387.462 243.822 243.822>
VStem: 82.1318 108.676 445.012 108.677 455.407 108.675
LayerCount: 2
Fore
SplineSet
480.07421875 356.23828125 m 1xf8
 494.174804688 346.7578125 551.54296875 306.688476562 526.556640625 198.458984375 c 0xf4
 512.629882812 138.135742188 481.568359375 88.0625 433.255859375 52.298828125 c 0
 385.275390625 16.78125 327.864257812 0.009765625 263.390625 0.009765625 c 2
 -1.2099609375 0.009765625 l 1
 158.491210938 691.75 l 1
 417.421875 691.75 l 2
 481.666992188 691.75 530.760742188 675.958984375 561.293945312 641.860351562 c 0
 592.008789062 607.560546875 599.36328125 558.841796875 585.759765625 499.915039062 c 0
 577.220703125 462.9296875 559.418945312 428.905273438 532.71484375 399.15234375 c 0
 517.181640625 381.845703125 499.4921875 367.477539062 480.07421875 356.23828125 c 1xf8
476.209960938 496.133789062 m 0xf8
 481.969726562 521.083007812 495.67578125 590.633789062 387.461914062 590.633789062 c 2
 243.822265625 590.633789062 l 1
 200.625 403.524414062 l 1
 343.319335938 403.524414062 l 2
 381.364257812 403.524414062 410.6484375 412.170898438 432.791015625 427.081054688 c 0
 453.638671875 441.119140625 468.419921875 462.39453125 476.209960938 496.133789062 c 0xf8
278.23046875 101.124023438 m 2
 339.584960938 101.124023438 400.48828125 123.122070312 418.97265625 203.184570312 c 0xf4
 424.84765625 228.634765625 439.389648438 302.409179688 325.64453125 302.409179688 c 2
 177.280273438 302.409179688 l 1
 130.810546875 101.124023438 l 1
 278.23046875 101.124023438 l 2
EndSplineSet
EndChar

StartChar: C
Encoding: 67 67 37
Width: 610
GlyphClass: 2
Flags: MW
HStem: -7.5498 103.004<222.353 268.756> 598.193 102.06<359.831 395.068>
VStem: 68.9033 108.676 451.629 106.785
LayerCount: 2
Fore
SplineSet
153.797851562 257.994140625 m 2
 122.372070312 121.874023438 186.68359375 95.4541015625 258.022460938 95.4541015625 c 0
 301.9296875 95.4541015625 336.309570312 106.578125 363.536132812 126.779296875 c 0
 390.602539062 146.862304688 408.421875 173.849609375 417.158203125 211.690429688 c 2
 422.612304688 235.315429688 l 1
 529.397460938 235.315429688 l 1
 523.943359375 211.690429688 l 2
 508.80859375 146.135742188 474.331054688 91.451171875 420.873046875 51.4423828125 c 0
 367.56640625 11.5458984375 304.21484375 -7.5498046875 233.296875 -7.5498046875 c 0
 159.547851562 -7.5498046875 103.09765625 13.865234375 67.4130859375 58.0029296875 c 0
 30.806640625 103.27734375 25.40234375 172.577148438 45.9951171875 261.774414062 c 2
 85.0478515625 430.928710938 l 2
 105.640625 520.125976562 143.041992188 589.42578125 200.552734375 634.701171875 c 0
 256.618164062 678.837890625 322.956054688 700.252929688 396.705078125 700.252929688 c 0
 543.342773438 700.252929688 618.228515625 611.901367188 588.010742188 481.013671875 c 2
 582.774414062 458.333007812 l 1
 474.099609375 458.333007812 l 1
 479.3359375 481.013671875 l 2
 488.056640625 518.78515625 482.637695312 545.954101562 464.548828125 566.404296875 c 0
 446.3671875 586.959960938 416.9921875 598.193359375 373.143554688 598.193359375 c 0
 324.538085938 598.193359375 287.819335938 584.739257812 259.384765625 560.150390625 c 0
 231.701171875 536.211914062 208.103515625 493.21875 193.068359375 428.09375 c 2
 153.797851562 257.994140625 l 2
EndSplineSet
EndChar

StartChar: D
Encoding: 68 68 38
Width: 622
GlyphClass: 2
Flags: MW
HStem: 0.00976562 102.06<131.975 241.657> 589.689 102.061<244.551 378.741 244.551 244.551>
VStem: 82.1338 109.62 461.079 109.62
LayerCount: 2
Fore
SplineSet
584.879882812 422.423828125 m 2
 549.536132812 269.333984375 l 2
 528.961914062 180.21875 492.139648438 111.037109375 435.650390625 65.72265625 c 0
 380.473632812 21.4619140625 314.809570312 0.009765625 241.657226562 0.009765625 c 2
 -1.2080078125 0.009765625 l 1
 158.493164062 691.75 l 1
 401.358398438 691.75 l 2
 474.510742188 691.75 530.268554688 670.296875 565.008789062 626.036132812 c 0
 600.575195312 580.720703125 605.454101562 511.5390625 584.879882812 422.423828125 c 2
266.165039062 102.069335938 m 2
 328.875976562 102.069335938 406.3125 123.780273438 439.04296875 265.553710938 c 2
 474.60546875 419.588867188 l 2
 489.338867188 483.407226562 485.947265625 526.314453125 469.771484375 551.028320312 c 0
 453.255859375 576.260742188 424.465820312 589.689453125 378.741210938 589.689453125 c 2
 244.55078125 589.689453125 l 1
 131.974609375 102.069335938 l 1
 266.165039062 102.069335938 l 2
EndSplineSet
EndChar

StartChar: E
Encoding: 69 69 39
Width: 551
GlyphClass: 2
Flags: MW
HStem: 0.00976562 102.061<131.029 434.438> 300.521 102.06<200.408 456.566 176.846 480.129> 589.69 102.06<243.605 570.576 243.605 243.605>
VStem: 82.1338 108.675
LayerCount: 2
Fore
SplineSet
131.029296875 102.0703125 m 1
 458 102.0703125 l 1
 434.4375 0.009765625 l 1
 -1.2080078125 0.009765625 l 1
 158.493164062 691.75 l 1
 594.138671875 691.75 l 1
 570.576171875 589.690429688 l 1
 243.60546875 589.690429688 l 1
 200.408203125 402.580078125 l 1
 480.12890625 402.580078125 l 1
 456.56640625 300.520507812 l 1
 176.845703125 300.520507812 l 1
 131.029296875 102.0703125 l 1
EndSplineSet
EndChar

StartChar: F
Encoding: 70 70 40
Width: 542
GlyphClass: 2
Flags: MW
HStem: 0.00976562 21G<-1.20801 107.467 -1.20801 -1.20801> 298.63 102.061<176.409 479.692 199.972 456.13> 589.69 102.06<243.605 570.576 243.605 243.605>
VStem: 82.1338 108.675
LayerCount: 2
Fore
SplineSet
176.409179688 298.629882812 m 1
 107.466796875 0.009765625 l 1
 -1.2080078125 0.009765625 l 1
 158.493164062 691.75 l 1
 594.138671875 691.75 l 1
 570.576171875 589.690429688 l 1
 243.60546875 589.690429688 l 1
 199.971679688 400.690429688 l 1
 479.692382812 400.690429688 l 1
 456.129882812 298.629882812 l 1
 176.409179688 298.629882812 l 1
EndSplineSet
EndChar

StartChar: G
Encoding: 71 71 41
Width: 610
GlyphClass: 2
Flags: MW
HStem: -7.5498 103.004<222.02 267.635> 275.95 99.2246<298.977 431.993 276.068 563.576> 598.195 102.06<358.236 393.802>
VStem: 68.9033 108.675 451.629 108.675
LayerCount: 2
Fore
SplineSet
153.796875 257.994140625 m 2
 122.21484375 121.198242188 186.962890625 95.4541015625 257.076171875 95.4541015625 c 0
 303.337890625 95.4541015625 338.098632812 107.818359375 364.651367188 130.020507812 c 0
 390.541992188 151.66796875 411.934570312 189.067382812 425.01171875 245.709960938 c 2
 431.993164062 275.950195312 l 1
 276.068359375 275.950195312 l 1
 298.9765625 375.174804688 l 1
 563.576171875 375.174804688 l 1
 536.522460938 257.995117188 l 2
 516.099609375 169.533203125 479.618164062 101.049804688 423.513671875 56.6328125 c 0
 368.865234375 13.369140625 303.862304688 -7.5498046875 231.407226562 -7.5498046875 c 0
 158.24609375 -7.5498046875 102.248046875 13.90234375 66.8974609375 58.0556640625 c 0
 30.6376953125 103.34375 25.4091796875 172.606445312 45.9951171875 261.776367188 c 2
 85.0478515625 430.930664062 l 2
 105.633789062 520.099609375 142.841796875 589.361328125 200.013671875 634.649414062 c 0
 255.750976562 678.802734375 321.655273438 700.254882812 394.81640625 700.254882812 c 0
 546.799804688 700.254882812 615.26171875 607.240234375 586.556640625 482.905273438 c 2
 581.102539062 459.280273438 l 1
 472.427734375 459.280273438 l 1
 477.881835938 482.905273438 l 2
 486.4375 519.961914062 480.98046875 546.619140625 462.842773438 566.793945312 c 0
 444.563476562 587.126953125 415.405273438 598.1953125 372.19921875 598.1953125 c 0
 323.6328125 598.1953125 287.151367188 584.630859375 258.98828125 559.841796875 c 0
 231.352539062 535.517578125 207.952148438 492.565429688 193.067382812 428.09375 c 2
 153.796875 257.994140625 l 2
EndSplineSet
EndChar

StartChar: H
Encoding: 72 72 42
Width: 629
GlyphClass: 2
Flags: MW
HStem: 0.00976562 21G<-1.20801 107.467 -1.20801 -1.20801 373.012 481.688 373.012 373.012> 302.41 102.06<200.844 442.827 177.282 466.389> 671.75 20G<158.493 267.168 267.168 267.168 532.713 641.389 641.389 641.389>
VStem: 82.1338 108.675 456.354 108.676
LayerCount: 2
Fore
SplineSet
641.388671875 691.75 m 1
 481.6875 0.009765625 l 1
 373.01171875 0.009765625 l 1
 442.827148438 302.41015625 l 1
 177.282226562 302.41015625 l 1
 107.466796875 0.009765625 l 1
 -1.2080078125 0.009765625 l 1
 158.493164062 691.75 l 1
 267.16796875 691.75 l 1
 200.84375 404.469726562 l 1
 466.388671875 404.469726562 l 1
 532.712890625 691.75 l 1
 641.388671875 691.75 l 1
EndSplineSet
EndChar

StartChar: I
Encoding: 73 73 43
Width: 265
GlyphClass: 2
Flags: MW
HStem: 0.00976562 21G<6.35254 115.027 6.35254 6.35254> 671.75 20G<166.054 274.729 274.729 274.729>
VStem: 89.6943 108.675
LayerCount: 2
Fore
SplineSet
166.053710938 691.75 m 1
 274.728515625 691.75 l 1
 115.02734375 0.009765625 l 1
 6.3525390625 0.009765625 l 1
 166.053710938 691.75 l 1
EndSplineSet
EndChar

StartChar: J
Encoding: 74 74 44
Width: 327
GlyphClass: 2
Flags: MW
HStem: 0.00976562 102.061<-23.0049 37.5371 -46.5674 50.7041> 671.75 20G<226.533 335.208 335.208 335.208>
VStem: 150.174 108.675
LayerCount: 2
Fore
SplineSet
-23.0048828125 102.0703125 m 1
 50.7041015625 102.0703125 l 2
 68.9677734375 102.0703125 78.2509765625 106.805664062 83.29296875 111.670898438 c 0
 89.216796875 117.38671875 97.05078125 130.8984375 102.39453125 154.044921875 c 2
 226.533203125 691.75 l 1
 335.208007812 691.75 l 1
 209.10546875 145.540039062 l 2
 198.934570312 101.485351562 179.555664062 64.6865234375 148.735351562 38.390625 c 0
 117.805664062 12.0009765625 79.5791015625 0.009765625 37.537109375 0.009765625 c 2
 -46.5673828125 0.009765625 l 1
 -23.0048828125 102.0703125 l 1
EndSplineSet
EndChar

StartChar: K
Encoding: 75 75 45
Width: 599
GlyphClass: 2
Flags: MW
HStem: 0.00976562 21G<-1.20801 107.467 -1.20801 -1.20801 408.827 535.381 408.827 408.827> 671.75 20G<158.493 267.168 267.168 267.168 539.195 672.615 672.615 672.615>
VStem: 82.1338 108.675
LayerCount: 2
Fore
SplineSet
408.827148438 0.009765625 m 1
 294.088867188 328.959960938 l 1
 151.87890625 192.37890625 l 1
 107.466796875 0.009765625 l 1
 -1.2080078125 0.009765625 l 1
 158.493164062 691.75 l 1
 267.16796875 691.75 l 1
 188.025390625 348.944335938 l 1
 539.1953125 691.75 l 1
 672.615234375 691.75 l 1
 385.408203125 415.928710938 l 1
 535.380859375 0.009765625 l 1
 408.827148438 0.009765625 l 1
EndSplineSet
EndChar

StartChar: L
Encoding: 76 76 46
Width: 533
GlyphClass: 2
Flags: MW
HStem: 0.00976562 102.061<131.029 432.547> 671.75 20G<158.493 267.168 267.168 267.168>
VStem: 82.1338 108.675
LayerCount: 2
Fore
SplineSet
158.493164062 691.75 m 1
 267.16796875 691.75 l 1
 131.029296875 102.0703125 l 1
 456.109375 102.0703125 l 1
 432.546875 0.009765625 l 1
 -1.2080078125 0.009765625 l 1
 158.493164062 691.75 l 1
EndSplineSet
EndChar

StartChar: M
Encoding: 77 77 47
Width: 747
GlyphClass: 2
Flags: MW
HStem: 0.00976562 21G<-1.20801 107.467 -1.20801 -1.20801 490.192 598.867 490.192 490.192> 671.75 20G<158.493 259.793 259.793 259.793 657.244 758.568 758.568 758.568>
VStem: 82.1338 108.675 573.534 108.675
LayerCount: 2
Fore
SplineSet
758.568359375 691.75 m 1
 598.8671875 0.009765625 l 1
 490.192382812 0.009765625 l 1
 592.642578125 443.768554688 l 1
 368.302734375 130.419921875 l 1
 290.545898438 130.419921875 l 1
 210.008789062 444.165039062 l 1
 107.466796875 0.009765625 l 1
 -1.2080078125 0.009765625 l 1
 158.493164062 691.75 l 1
 259.79296875 691.75 l 1
 363.509765625 278.294921875 l 1
 657.244140625 691.75 l 1
 758.568359375 691.75 l 1
EndSplineSet
EndChar

StartChar: N
Encoding: 78 78 48
Width: 661
GlyphClass: 2
Flags: MW
HStem: 0.00976562 21G<-1.20801 107.467 -1.20801 -1.20801 414.146 513.817 414.146 414.146> 671.75 20G<158.493 258.143 258.143 258.143 564.844 673.519 673.519 673.519>
VStem: 82.1338 108.675 488.484 108.675
LayerCount: 2
Fore
SplineSet
673.518554688 691.75 m 1
 513.817382812 0.009765625 l 1
 414.146484375 0.009765625 l 1
 217.736328125 477.639648438 l 1
 107.466796875 0.009765625 l 1
 -1.2080078125 0.009765625 l 1
 158.493164062 691.75 l 1
 258.142578125 691.75 l 1
 454.963867188 215.805664062 l 1
 564.84375 691.75 l 1
 673.518554688 691.75 l 1
EndSplineSet
EndChar

StartChar: O
Encoding: 79 79 49
Width: 610
GlyphClass: 2
Flags: MW
HStem: -7.5498 103.006<230.229 265.804> 598.197 102.057<357.293 400.472>
VStem: 68.9053 108.675 451.63 108.674
LayerCount: 2
Fore
SplineSet
45.9970703125 261.775390625 m 2
 85.0498046875 430.9296875 l 2
 105.629882812 520.072265625 142.645507812 589.293945312 199.475585938 634.595703125 c 0
 254.931640625 678.801757812 320.71484375 700.25390625 393.87109375 700.25390625 c 0
 466.44140625 700.25390625 521.868164062 678.763671875 556.577148438 634.541015625 c 0
 592.14453125 589.2265625 597.021484375 520.043945312 576.448242188 430.928710938 c 2
 537.395507812 261.774414062 l 2
 516.815429688 172.631835938 479.799804688 103.41015625 422.96875 58.1083984375 c 0
 367.560546875 13.9404296875 302.091796875 -7.5498046875 229.516601562 -7.5498046875 c 0
 156.365234375 -7.5498046875 100.606445312 13.90234375 65.8662109375 58.1630859375 c 0
 30.2998046875 103.477539062 25.423828125 172.66015625 45.9970703125 261.775390625 c 2
254.244140625 95.4560546875 m 0
 318.58203125 95.4560546875 395.545898438 118.075195312 427.849609375 257.99609375 c 2
 467.120117188 428.096679688 l 2
 501.733398438 578.0234375 430.633789062 598.197265625 370.310546875 598.197265625 c 0
 321.723632812 598.197265625 285.682617188 584.626953125 258.2421875 560.018554688 c 0
 231.13671875 535.709960938 207.96875 492.626953125 193.0703125 428.095703125 c 2
 153.799804688 257.99609375 l 2
 139.670898438 196.797851562 143.465820312 156.01171875 159.73046875 132.541015625 c 0
 176.294921875 108.639648438 206.21484375 95.4560546875 254.244140625 95.4560546875 c 0
EndSplineSet
EndChar

StartChar: P
Encoding: 80 80 50
Width: 579
GlyphClass: 2
Flags: MW
HStem: 0.00976562 21G<-1.20801 107.467 -1.20801 -1.20801> 269.335 102.061<193.208 315.176 169.646 333.068> 589.69 102.06<243.605 383.466 243.605 243.605>
VStem: 82.1338 108.675 452.574 108.675
LayerCount: 2
Fore
SplineSet
588.083984375 477.235351562 m 0
 573.57421875 414.385742188 541.239257812 362.180664062 491.0234375 324.555664062 c 0
 441.100585938 287.151367188 381.659179688 269.334960938 315.17578125 269.334960938 c 2
 169.645507812 269.334960938 l 1
 107.466796875 0.009765625 l 1
 -1.2080078125 0.009765625 l 1
 158.493164062 691.75 l 1
 412.698242188 691.75 l 2
 479.795898438 691.75 531.220703125 673.786132812 563.515625 635.935546875 c 0
 596.119140625 597.725585938 603.375976562 543.47265625 588.083984375 477.235351562 c 0
333.068359375 371.395507812 m 2
 450.075195312 371.395507812 471.859375 444.536132812 479.409179688 477.235351562 c 0
 488.635742188 517.202148438 497.333007812 589.690429688 383.465820312 589.690429688 c 2
 243.60546875 589.690429688 l 1
 193.208007812 371.395507812 l 1
 333.068359375 371.395507812 l 2
EndSplineSet
EndChar

StartChar: Q
Encoding: 81 81 51
Width: 610
GlyphClass: 2
Flags: MW
HStem: -7.54785 103.005<230.229 238.161> 598.198 102.057<357.294 400.473>
VStem: 68.9053 108.675 451.63 108.674
LayerCount: 2
Fore
SplineSet
229.518554688 -7.5478515625 m 0
 156.3671875 -7.5478515625 100.607421875 13.904296875 65.8681640625 58.1640625 c 0
 30.30078125 103.478515625 25.423828125 172.661132812 45.9970703125 261.776367188 c 2
 85.0498046875 430.930664062 l 2
 105.629882812 520.073242188 142.645507812 589.294921875 199.475585938 634.596679688 c 0
 254.931640625 678.802734375 320.715820312 700.254882812 393.872070312 700.254882812 c 0
 466.442382812 700.254882812 521.868164062 678.764648438 556.578125 634.541992188 c 0
 592.14453125 589.2265625 597.021484375 520.044921875 576.448242188 430.9296875 c 2
 537.395507812 261.775390625 l 2
 512.78125 155.157226562 462.560546875 75.7275390625 385.045898438 31.3935546875 c 1
 425.717773438 -100.349609375 l 1
 325.831054688 -149.991210938 l 1
 280.176757812 -4.01953125 l 1
 263.689453125 -6.3828125 246.802734375 -7.5478515625 229.518554688 -7.5478515625 c 0
254.244140625 95.45703125 m 0
 318.58203125 95.45703125 395.545898438 118.076171875 427.849609375 257.997070312 c 2
 467.120117188 428.096679688 l 2
 501.733398438 578.0234375 430.634765625 598.198242188 370.311523438 598.198242188 c 0
 321.724609375 598.198242188 285.682617188 584.627929688 258.2421875 560.01953125 c 0
 231.13671875 535.7109375 207.96875 492.627929688 193.0703125 428.096679688 c 2
 153.799804688 257.997070312 l 2
 139.670898438 196.798828125 143.465820312 156.01171875 159.73046875 132.541992188 c 0
 176.294921875 108.640625 206.21484375 95.45703125 254.244140625 95.45703125 c 0
EndSplineSet
EndChar

StartChar: R
Encoding: 82 82 52
Width: 600
GlyphClass: 2
Flags: MW
HStem: 0.00976562 21G<-1.20801 107.467 -1.20801 -1.20801 379.807 504.149 379.807 379.807> 286.345 99.2246<173.573 370.126> 589.69 102.06<243.605 391.025 243.605 243.605>
VStem: 82.1338 108.675 451.628 108.676
LayerCount: 2
Fore
SplineSet
379.806640625 0.009765625 m 1
 298.493164062 286.344726562 l 1
 173.573242188 286.344726562 l 1
 107.466796875 0.009765625 l 1
 -1.2080078125 0.009765625 l 1
 158.493164062 691.75 l 1
 420.258789062 691.75 l 2
 484.764648438 691.75 534.31640625 674.79296875 565.508789062 638.862304688 c 0
 596.99609375 602.592773438 604.197265625 551.126953125 589.756835938 488.575195312 c 0
 578.180664062 438.432617188 554.760742188 395.094726562 518.962890625 360.784179688 c 0
 489.72265625 332.759765625 454.826171875 312.655273438 415.56640625 300.356445312 c 1
 504.149414062 0.009765625 l 1
 379.806640625 0.009765625 l 1
480.862304688 487.62890625 m 0
 489.00390625 522.89453125 496.765625 589.690429688 391.025390625 589.690429688 c 2
 243.60546875 589.690429688 l 1
 196.48046875 385.5703125 l 1
 245.620117188 385.5703125 294.759765625 385.569335938 343.899414062 385.569335938 c 0
 396.352539062 385.569335938 461.471679688 403.640625 480.862304688 487.62890625 c 0
EndSplineSet
EndChar

StartChar: S
Encoding: 83 83 53
Width: 550
GlyphClass: 2
Flags: MW
HStem: -5.66016 100.172<168.349 227.363> 601.03 99.2256<325.726 379.411>
VStem: 50.9473 106.787 400.684 107.518 410.991 107.731
LayerCount: 2
Fore
SplineSet
219.057617188 94.51171875 m 0xe8
 342.375976562 94.51171875 365.504882812 163.978515625 373.030273438 196.572265625 c 0xe8
 380.484375 228.86328125 376.495117188 249.598632812 364.68359375 263.134765625 c 0
 351.974609375 277.700195312 327.975585938 289.49609375 290.66015625 296.06640625 c 0
 290.61328125 296.07421875 219.786132812 308.3515625 219.786132812 308.3515625 c 2
 166.415039062 317.602539062 126.115234375 336.922851562 101.14453125 367.99609375 c 0
 75.4931640625 399.915039062 70.2255859375 444.505859375 82.58203125 498.026367188 c 0
 96.880859375 559.9609375 130.139648438 611.20703125 181.8515625 647.446289062 c 0
 232.841796875 683.180664062 292.544921875 700.255859375 358.90625 700.255859375 c 0
 420.298828125 700.255859375 468.919921875 684.231445312 502.23828125 650.936523438 c 0
 536.252929688 616.9453125 548.15625 565.762695312 540.575195312 501.2265625 c 2
 537.978515625 479.125 l 1
 429.62890625 479.125 l 1
 432.107421875 497.112304688 l 2xf0
 440.119140625 555.2265625 423.76953125 601.030273438 335.052734375 601.030273438 c 0
 293.336914062 601.030273438 261.381835938 591.204101562 237.233398438 574.077148438 c 0
 213.140625 556.990234375 197.80859375 534.583007812 190.459960938 502.75 c 0
 182.418945312 467.919921875 182.422851562 425.828125 268.837890625 409.842773438 c 0
 268.881835938 409.834960938 341.336914062 396.62109375 341.336914062 396.62109375 c 2
 396.419921875 386.73046875 437.794921875 366.62109375 463.174804688 334.549804688 c 0
 489.2109375 301.649414062 494.409179688 255.6875 481.633789062 200.349609375 c 0
 466.900390625 136.53515625 432.715820312 84.0712890625 379.5078125 47.4814453125 c 0
 326.8828125 11.2919921875 263.518554688 -5.66015625 191.208007812 -5.66015625 c 0
 122.524414062 -5.66015625 69.8798828125 11.2578125 36.447265625 47.3623046875 c 0
 2.8916015625 83.6005859375 -8.0556640625 136.451171875 1.1630859375 202.315429688 c 2
 4.1943359375 223.9765625 l 1
 111.888671875 223.9765625 l 1
 109.59765625 206.169921875 l 2
 102.01171875 147.228515625 117.639648438 94.51171875 219.057617188 94.51171875 c 0xe8
EndSplineSet
EndChar

StartChar: T
Encoding: 84 84 54
Width: 488
GlyphClass: 2
Flags: MW
HStem: 0.00976562 21G<116.917 224.647 116.917 116.917> 589.69 102.06<90.4531 253.056 66.8906 570.514 360.786 360.786 360.786 546.951>
VStem: 200.259 107.73
LayerCount: 2
Fore
SplineSet
253.055664062 589.690429688 m 1
 66.890625 589.690429688 l 1
 90.453125 691.75 l 1
 570.513671875 691.75 l 1
 546.951171875 589.690429688 l 1
 360.786132812 589.690429688 l 1
 224.647460938 0.009765625 l 1
 116.916992188 0.009765625 l 1
 253.055664062 589.690429688 l 1
EndSplineSet
EndChar

StartChar: U
Encoding: 85 85 55
Width: 635
GlyphClass: 2
Flags: MW
HStem: -5.66016 101.115<244.06 286.751 244.06 312.154> 671.75 20G<158.493 268.113 268.113 268.113 538.384 647.059 647.059 647.059>
VStem: 82.1338 109.62 462.024 108.675
LayerCount: 2
Fore
SplineSet
242.23828125 -5.66015625 m 0
 97.3916015625 -5.66015625 20.9990234375 96.19921875 52.462890625 232.48046875 c 2
 158.493164062 691.75 l 1
 268.11328125 691.75 l 1
 163.391601562 238.150390625 l 2
 152.765625 192.124023438 157.60546875 158.217773438 175.72265625 133.268554688 c 0
 193.828125 108.333984375 222.537109375 95.455078125 265.583007812 95.455078125 c 0
 307.919921875 95.455078125 342.477539062 108.278320312 372.526367188 133.348632812 c 0
 402.44921875 158.3125 423.047851562 192.173828125 433.662109375 238.150390625 c 2
 538.383789062 691.75 l 1
 647.05859375 691.75 l 1
 541.028320312 232.48046875 l 2
 508.13671875 90.0126953125 382.0703125 -5.66015625 242.23828125 -5.66015625 c 0
EndSplineSet
EndChar

StartChar: V
Encoding: 86 86 56
Width: 527
GlyphClass: 2
Flags: MW
HStem: 0.00976562 21G<146.906 232.438 146.906 146.906> 671.75 20G<82.042 195.761 195.761 195.761 503.926 617.707 617.707 617.707>
LayerCount: 2
Fore
SplineSet
82.0419921875 691.75 m 1
 195.760742188 691.75 l 1
 236.283203125 197.995117188 l 1
 503.92578125 691.75 l 1
 617.70703125 691.75 l 1
 232.438476562 0.009765625 l 1
 146.90625 0.009765625 l 1
 82.0419921875 691.75 l 1
EndSplineSet
EndChar

StartChar: W
Encoding: 87 87 57
Width: 789
GlyphClass: 2
Flags: MW
HStem: 0.00976562 21G<101.517 193.859 101.517 101.517 448.315 540.645 448.315 448.315> 671.75 20G<83.7715 192.025 192.025 192.025 420.613 539.786 539.786 539.786 768.373 873.782 873.782 873.782>
LayerCount: 2
Fore
SplineSet
448.315429688 0.009765625 m 1
 435.921875 504.708984375 l 1
 193.859375 0.009765625 l 1
 101.516601562 0.009765625 l 1
 83.771484375 691.75 l 1
 192.025390625 691.75 l 1
 198.62890625 216.288085938 l 1
 420.61328125 691.75 l 1
 539.786132812 691.75 l 1
 546.388671875 216.288085938 l 1
 768.373046875 691.75 l 1
 873.782226562 691.75 l 1
 540.64453125 0.009765625 l 1
 448.315429688 0.009765625 l 1
EndSplineSet
EndChar

StartChar: X
Encoding: 88 88 58
Width: 569
GlyphClass: 2
Flags: MW
HStem: 0.00976562 21G<-86.7998 -86.7998 -86.7998 40.9482 377.191 377.191 377.191 507.665> 671.75 20G<90.9404 221.479 221.479 221.479 518.867 646.565 646.565 646.565>
LayerCount: 2
Fore
SplineSet
-86.7998046875 0.009765625 m 1
 228.189453125 359.1328125 l 1
 90.9404296875 691.75 l 1
 221.479492188 691.75 l 1
 315.125976562 453.3125 l 1
 518.8671875 691.75 l 1
 646.565429688 691.75 l 1
 358.265625 361.948242188 l 1
 507.665039062 0.009765625 l 1
 377.19140625 0.009765625 l 1
 270.279296875 267.052734375 l 1
 40.9482421875 0.009765625 l 1
 -86.7998046875 0.009765625 l 1
EndSplineSet
EndChar

StartChar: Y
Encoding: 89 89 59
Width: 504
GlyphClass: 2
Flags: MW
HStem: 0.00976562 21G<124.478 233.152 124.478 124.478> 671.75 20G<76.8096 196.358 196.358 196.358 480.707 600.186 600.186 600.186>
VStem: 207.819 108.675
LayerCount: 2
Fore
SplineSet
480.70703125 691.75 m 1
 600.185546875 691.75 l 1
 299.676757812 288.157226562 l 1
 233.15234375 0.009765625 l 1
 124.477539062 0.009765625 l 1
 191.217773438 289.091796875 l 1
 76.8095703125 691.75 l 1
 196.358398438 691.75 l 1
 271.647460938 403.923828125 l 1
 480.70703125 691.75 l 1
EndSplineSet
EndChar

StartChar: Z
Encoding: 90 90 60
Width: 520
GlyphClass: 2
Flags: MW
HStem: 0.00976562 102.061<118.926 416.482> 589.69 102.06<132.979 415.415 109.416 573.349>
LayerCount: 2
Fore
SplineSet
440.044921875 102.0703125 m 1
 416.482421875 0.009765625 l 1
 -39.0078125 0.009765625 l 1
 -18.6962890625 87.9873046875 l 1
 415.415039062 589.690429688 l 1
 109.416015625 589.690429688 l 1
 132.978515625 691.75 l 1
 573.348632812 691.75 l 1
 553.037109375 603.772460938 l 1
 118.92578125 102.0703125 l 1
 440.044921875 102.0703125 l 1
EndSplineSet
EndChar

StartChar: bracketleft
Encoding: 91 91 61
Width: 309
GlyphClass: 2
Flags: MW
HStem: -79.3701 102.061<109.868 167.576> 636.94 102.06<251.68 332.95 251.68 251.68>
VStem: 82.1338 105.84 82.1338 187.11
LayerCount: 2
Fore
SplineSet
169.401367188 739 m 1xd0
 356.51171875 739 l 1
 332.950195312 636.940429688 l 1xd0
 251.6796875 636.940429688 l 1
 109.868164062 22.6904296875 l 1xe0
 191.138671875 22.6904296875 l 1
 167.576171875 -79.3701171875 l 1
 -19.5341796875 -79.3701171875 l 1
 169.401367188 739 l 1xd0
EndSplineSet
Substitution2: "'rtla' Right to Left Alternates lookup 0 subtable" bracketright
EndChar

StartChar: backslash
Encoding: 92 92 62
Width: 402
GlyphClass: 2
Flags: MW
HStem: 671.75 20G<131.671 229.882 229.882 229.882>
VStem: 55.3115 312.575
LayerCount: 2
Fore
SplineSet
131.670898438 691.75 m 1
 229.881835938 691.75 l 1
 282.36328125 -9.4404296875 l 1
 184.151367188 -9.4404296875 l 1
 131.670898438 691.75 l 1
EndSplineSet
EndChar

StartChar: bracketright
Encoding: 93 93 63
Width: 309
GlyphClass: 2
Flags: MW
HStem: -79.3701 102.061<-15.8164 65.4531 -15.8164 147.731 -39.3789 65.4531> 636.94 102.06<149.557 207.265 125.995 336.667>
VStem: 62.2891 187.11 143.559 105.841
LayerCount: 2
Fore
SplineSet
207.264648438 636.940429688 m 1xd0
 125.995117188 636.940429688 l 1
 149.556640625 739 l 1
 336.666992188 739 l 1
 147.731445312 -79.3701171875 l 1
 -39.37890625 -79.3701171875 l 1
 -15.81640625 22.6904296875 l 1xe0
 65.453125 22.6904296875 l 1
 207.264648438 636.940429688 l 1xd0
EndSplineSet
Substitution2: "'rtla' Right to Left Alternates lookup 0 subtable" bracketleft
EndChar

StartChar: asciicircum
Encoding: 94 94 64
Width: 517
GlyphClass: 2
Flags: MW
HStem: 671.75 20G<304.147 386.114 386.114 386.114>
LayerCount: 2
Fore
SplineSet
304.147460938 691.75 m 1
 386.114257812 691.75 l 1
 469.03125 269.334960938 l 1
 369.0703125 269.334960938 l 1
 314.293945312 559.948242188 l 1
 126.182617188 269.334960938 l 1
 26.185546875 269.334960938 l 1
 304.147460938 691.75 l 1
EndSplineSet
EndChar

StartChar: underscore
Encoding: 95 95 65
Width: 464
GlyphClass: 2
Flags: MW
HStem: -98.2695 86.9395<-79.4248 372.058 -99.4971 392.13>
LayerCount: 2
Fore
SplineSet
-79.4248046875 -11.330078125 m 1
 392.129882812 -11.330078125 l 1
 372.057617188 -98.26953125 l 1
 -99.4970703125 -98.26953125 l 1
 -79.4248046875 -11.330078125 l 1
EndSplineSet
EndChar

StartChar: grave
Encoding: 96 96 66
Width: 505
GlyphClass: 2
Flags: MW
HStem: 540.55 157.815<312.639 333.1 197.57 421.655 312.639 312.639>
VStem: 119.684 260.52
LayerCount: 2
Fore
SplineSet
333.099609375 698.365234375 m 1
 421.655273438 540.549804688 l 1
 312.638671875 540.549804688 l 1
 197.5703125 698.365234375 l 1
 333.099609375 698.365234375 l 1
EndSplineSet
EndChar

StartChar: a
Encoding: 97 97 67
Width: 503
GlyphClass: 2
Flags: MW
HStem: -5.66113 91.666<138.373 173.254> 224.92 86.9395<170.379 329.719 220.1 309.647> 431.875 93.5547<261.887 309.187>
VStem: 50.9502 103.95 65.124 102.06 341.064 103.95
LayerCount: 2
Fore
SplineSet
337.791015625 346.82421875 m 2xf4
 345.186523438 378.856445312 349.775390625 431.875 268.59765625 431.875 c 0
 238.725585938 431.875 216.328125 425.104492188 199.799804688 413.983398438 c 0
 183.553710938 403.051757812 173.727539062 389.346679688 168.928710938 368.559570312 c 2
 163.692382812 345.879882812 l 1
 61.6328125 345.879882812 l 1
 67.3056640625 370.450195312 l 2xec
 77.9326171875 416.479492188 104.390625 455.642578125 145.122070312 484.0078125 c 0
 185.853515625 512.373046875 234.524414062 525.4296875 289.25 525.4296875 c 0
 348.375976562 525.4296875 393.498046875 511.124023438 420.987304688 479.6640625 c 0
 448.721679688 447.923828125 454.455078125 401.893554688 441.5234375 345.879882812 c 2
 361.672851562 0.009765625 l 1
 258.66796875 0.009765625 l 1
 264.237304688 24.1328125 l 1
 238.498046875 8.71875 201.60546875 -5.6611328125 144.903320312 -5.6611328125 c 0
 91.478515625 -5.6611328125 50.1474609375 7.0458984375 24.1669921875 35.0703125 c 0
 -2.212890625 63.52734375 -8.1484375 105.016601562 3.388671875 154.989257812 c 0
 23.384765625 241.603515625 95.4609375 311.859375 220.099609375 311.859375 c 2
 329.71875 311.859375 l 1
 337.791015625 346.82421875 l 2xf4
107.556640625 155.934570312 m 0xf4
 100.206054688 124.095703125 100.283203125 86.0048828125 176.461914062 86.0048828125 c 0
 216.00390625 86.0048828125 242.896484375 95.212890625 259.881835938 109.012695312 c 0
 277.294921875 123.159179688 291.513671875 146.37109375 299.830078125 182.395507812 c 2
 309.647460938 224.919921875 l 1
 209.477539062 224.919921875 l 2
 131.28125 224.919921875 114.491210938 185.969726562 107.556640625 155.934570312 c 0xf4
EndSplineSet
EndChar

StartChar: b
Encoding: 98 98 68
Width: 515
GlyphClass: 2
Flags: MW
HStem: -5.66016 97.3359<202.178 232.287> 427.15 98.2793<298.526 310.559> 671.751 20G<153.77 257.72 257.72 257.72>
VStem: 77.4102 103.95 368.47 103.949
LayerCount: 2
Fore
SplineSet
210.716796875 488.157226562 m 1
 235.026367188 505.735351562 272.837890625 525.4296875 324.21484375 525.4296875 c 0
 377.8046875 525.4296875 419.522460938 507.569335938 446.0625 471.677734375 c 0
 473.502929688 434.56640625 476.614257812 379.170898438 460.419921875 309.025390625 c 2
 437.729492188 210.745117188 l 2
 421.55078125 140.666015625 393.262695312 85.376953125 349.391601562 48.2412109375 c 0
 307.034179688 12.38671875 258.24609375 -5.66015625 206.328125 -5.66015625 c 0
 162.844726562 -5.66015625 128.344726562 6.0634765625 104.801757812 29.392578125 c 1
 104.067382812 26.2138671875 103.334960938 23.03515625 102.600585938 19.8564453125 c 2
 98.01953125 0.0107421875 l 1
 -5.9306640625 0.0107421875 l 1
 153.76953125 691.750976562 l 1
 257.719726562 691.750976562 l 1
 210.716796875 488.157226562 l 1
219.3515625 91.67578125 m 0
 250.166992188 91.67578125 307.728515625 97.9033203125 334.653320312 214.526367188 c 2
 355.59765625 305.245117188 l 2
 381.748046875 418.517578125 328.094726562 427.150390625 293.022460938 427.150390625 c 0
 259.396484375 427.150390625 235.0390625 416.295898438 214.737304688 395.155273438 c 0
 193.241210938 372.76953125 176.854492188 341.482421875 167.1796875 299.576171875 c 2
 147.76171875 215.470703125 l 2
 138.756835938 176.463867188 141.22265625 146.639648438 153.291015625 124.032226562 c 0
 164.700195312 102.6640625 185.004882812 91.67578125 219.3515625 91.67578125 c 0
EndSplineSet
EndChar

StartChar: c
Encoding: 99 99 69
Width: 508
GlyphClass: 2
Flags: MW
HStem: -5.66016 97.335<190.244 213.162> 427.149 98.2793<276.065 302.07>
VStem: 62.2891 103.951 363.745 102.06
LayerCount: 2
Fore
SplineSet
208.010742188 91.6748046875 m 0
 246.271484375 91.6748046875 304.333007812 103.66015625 320.329101562 172.9453125 c 2
 326.000976562 197.514648438 l 1
 428.060546875 197.514648438 l 1
 422.606445312 173.889648438 l 2
 410.35546875 120.822265625 381.821289062 75.9189453125 337.61328125 42.916015625 c 0
 293.561523438 10.03125 241.729492188 -5.66015625 184.594726562 -5.66015625 c 0
 123.670898438 -5.66015625 76.546875 11.1484375 46.587890625 46.39453125 c 0
 15.5888671875 82.8662109375 11.0693359375 139.14453125 27.599609375 210.744140625 c 2
 50.2890625 309.024414062 l 2
 66.6875 380.052734375 97.197265625 436.11328125 144.965820312 472.833984375 c 0
 191.209960938 508.381835938 245.870117188 525.428710938 306.259765625 525.428710938 c 0
 364.538085938 525.428710938 409.677734375 509.830078125 438.32421875 476.787109375 c 0
 466.954101562 443.762695312 474.551757812 398.892578125 462.3125 345.87890625 c 2
 456.640625 321.309570312 l 1
 354.581054688 321.309570312 l 1
 360.252929688 345.87890625 l 2
 366.6953125 373.783203125 362.737304688 392.271484375 350.5859375 405.595703125 c 0
 338.077148438 419.313476562 317.734375 427.149414062 286.405273438 427.149414062 c 0
 250.8828125 427.149414062 223.819335938 417.774414062 202.420898438 401.000976562 c 0
 183.012695312 385.786132812 164.921875 355.2890625 153.368164062 305.245117188 c 2
 132.423828125 214.525390625 l 2
 120.703125 163.756835938 124.561523438 132.857421875 136.65234375 117.723632812 c 0
 149.970703125 101.0546875 172.477539062 91.6748046875 208.010742188 91.6748046875 c 0
EndSplineSet
EndChar

StartChar: d
Encoding: 100 100 70
Width: 516
GlyphClass: 2
Flags: MW
HStem: -5.66016 97.335<176.052 183.405> 427.15 98.2793<256.4 289.044> 671.75 20G<429.708 534.604 534.604 534.604>
VStem: 62.29 104.895 353.349 104.896
LayerCount: 2
Fore
SplineSet
276.68359375 28.9287109375 m 1
 246.291992188 8.2890625 207.731445312 -5.66015625 159.078125 -5.66015625 c 0
 107.161132812 -5.66015625 66.705078125 12.38671875 40.904296875 48.2412109375 c 0
 14.1796875 85.376953125 11.421875 140.666015625 27.6005859375 210.745117188 c 2
 50.291015625 309.025390625 l 2
 66.4697265625 379.104492188 94.7568359375 434.392578125 138.62890625 471.529296875 c 0
 181.053710938 507.44140625 230.1640625 525.4296875 282.635742188 525.4296875 c 0
 321.708984375 525.4296875 357.360351562 515.239257812 382.6328125 487.844726562 c 1
 429.708007812 691.75 l 1
 534.603515625 691.75 l 1
 374.90234375 0.009765625 l 1
 270.006835938 0.009765625 l 1
 276.68359375 28.9287109375 l 1
133.368164062 214.525390625 m 2
 106.326171875 97.392578125 161.102539062 91.6748046875 191.000976562 91.6748046875 c 0
 226.163085938 91.6748046875 251.618164062 102.662109375 272.3359375 123.53125 c 0
 294.362304688 145.716796875 310.572265625 175.713867188 319.750976562 215.469726562 c 2
 339.16796875 299.575195312 l 2
 348.84375 341.482421875 346.90234375 372.76953125 335.741210938 395.155273438 c 0
 325.202148438 416.295898438 305.856445312 427.150390625 272.231445312 427.150390625 c 0
 238.168945312 427.150390625 180.59375 419.08203125 154.3125 305.245117188 c 2
 133.368164062 214.525390625 l 2
EndSplineSet
EndChar

StartChar: e
Encoding: 101 101 71
Width: 508
GlyphClass: 2
Flags: MW
HStem: -5.66016 97.335<191.256 210.76> 226.81 87.8857<135.259 351.151 155.682 351.151 155.682 434.823> 427.15 98.2793<273.034 296.245>
VStem: 62.2891 103.95 359.963 102.061
LayerCount: 2
Fore
SplineSet
135.258789062 226.809570312 m 1
 133.294921875 218.3046875 l 2
 121.280273438 166.263671875 125.071289062 134.330078125 137.42578125 118.563476562 c 0
 150.993164062 101.249023438 173.557617188 91.6748046875 208.954101562 91.6748046875 c 0
 239.87890625 91.6748046875 263.060546875 99.0693359375 280.522460938 111.5078125 c 0
 297.729492188 123.762695312 308.942382812 140.004882812 314.583007812 164.440429688 c 2
 319.819335938 187.120117188 l 1
 421.879882812 187.120117188 l 1
 416.20703125 162.549804688 l 2
 404.759765625 112.962890625 377.051757812 70.798828125 334.2578125 39.833984375 c 0
 291.317382812 8.763671875 239.762695312 -5.66015625 181.7578125 -5.66015625 c 0
 121.680664062 -5.66015625 75.380859375 12.6181640625 46.4443359375 50.240234375 c 0
 16.732421875 88.87109375 12.8330078125 146.78515625 29.78125 220.1953125 c 2
 48.98046875 303.35546875 l 2
 65.51953125 374.994140625 96.02734375 431.846679688 143.436523438 470.069335938 c 0
 189.5625 507.255859375 243.587890625 525.4296875 302.479492188 525.4296875 c 0
 361.3671875 525.4296875 406.890625 507.25390625 435.541015625 470.001953125 c 0
 464.950195312 431.765625 469.026367188 374.959960938 452.495117188 303.35546875 c 2
 434.823242188 226.809570312 l 1
 135.258789062 226.809570312 l 1
279.790039062 427.150390625 m 0
 247.826171875 427.150390625 222.807617188 418.122070312 201.729492188 401.203125 c 0
 184.055664062 387.016601562 167.25 359.2578125 155.681640625 314.6953125 c 1
 351.151367188 314.6953125 l 1
 361.330078125 360.5546875 357.473632812 388.532226562 346.286132812 402.509765625 c 0
 333.622070312 418.331054688 312.69921875 427.150390625 279.790039062 427.150390625 c 0
EndSplineSet
EndChar

StartChar: f
Encoding: 102 102 72
Width: 340
GlyphClass: 2
Flags: MW
HStem: 0.00976562 21G<30.9219 135.817 30.9219 30.9219> 428.095 90.7207<90.2188 129.754 69.2744 150.698 255.594 334.819 90.2188 234.649> 601.03 90.7197<303.942 395.688 325.759 374.744>
VStem: 114.264 104.896
LayerCount: 2
Fore
SplineSet
315.208984375 601.030273438 m 2
 292.67578125 601.030273438 273.10546875 594.666015625 264.1015625 555.669921875 c 2
 255.59375 518.815429688 l 1
 355.763671875 518.815429688 l 1
 334.819335938 428.094726562 l 1
 234.649414062 428.094726562 l 1
 135.817382812 0.009765625 l 1
 30.921875 0.009765625 l 1
 129.75390625 428.094726562 l 1
 69.2744140625 428.094726562 l 1
 90.21875 518.815429688 l 1
 150.698242188 518.815429688 l 1
 158.551757812 552.834960938 l 2
 167.846679688 593.094726562 187.400390625 627.69921875 218.000976562 653.482421875 c 0
 248.8125 679.4453125 285.858398438 691.75 325.758789062 691.75 c 2
 395.688476562 691.75 l 1
 374.744140625 601.030273438 l 1
 315.208984375 601.030273438 l 2
EndSplineSet
EndChar

StartChar: g
Encoding: 103 103 73
Width: 516
GlyphClass: 2
Flags: MW
HStem: -149.3 95.4443<151.229 172.945> 29.3037 98.2803<184.341 186.68> 430.929 97.335<257.08 289.916>
VStem: 62.2891 104.895 353.349 104.896
LayerCount: 2
Fore
SplineSet
283.2890625 528.263671875 m 0
 323.071289062 528.263671875 358.521484375 518.036132812 383.465820312 491.454101562 c 1
 390.655273438 522.59375 l 1
 495.55078125 522.59375 l 1
 388.2109375 57.654296875 l 2
 374.013671875 -3.83984375 345.428710938 -55.052734375 301.33203125 -92.9091796875 c 0
 256.944335938 -131.015625 202.962890625 -149.299804688 142.926757812 -149.299804688 c 0
 89.6162109375 -149.299804688 47.59765625 -137.299804688 19.2509765625 -111.259765625 c 0
 -9.0341796875 -85.2763671875 -20.203125 -48.8671875 -13.7314453125 -5.4111328125 c 2
 -10.533203125 16.07421875 l 1
 92.3330078125 16.07421875 l 1
 90.99609375 -0.7783203125 l 2
 89.775390625 -16.1650390625 94.318359375 -27.7841796875 106.686523438 -38.0205078125 c 0
 118.712890625 -47.9755859375 137.497070312 -53.85546875 164.961914062 -53.85546875 c 0
 211.844726562 -53.85546875 261.276367188 -37.806640625 282.006835938 51.984375 c 2
 284.922851562 64.6142578125 l 1
 246.841796875 38.490234375 206.208984375 29.3037109375 167.150390625 29.3037109375 c 0
 115.233398438 29.3037109375 74.77734375 47.3505859375 48.9765625 83.205078125 c 0
 22.22265625 120.3828125 19.5751953125 175.986328125 35.8896484375 246.654296875 c 2
 51.162109375 312.803710938 l 2
 67.337890625 382.87109375 95.587890625 438.0546875 139.475585938 474.907226562 c 0
 181.842773438 510.483398438 230.87109375 528.263671875 283.2890625 528.263671875 c 0
141.657226562 250.434570312 m 2
 114.615234375 133.301757812 169.391601562 127.583984375 199.290039062 127.583984375 c 0
 234.452148438 127.583984375 259.908203125 138.571289062 280.625 159.439453125 c 0
 302.651367188 181.625976562 318.862304688 211.623046875 328.040039062 251.37890625 c 2
 340.040039062 303.354492188 l 2
 349.71484375 345.260742188 347.774414062 376.548828125 336.61328125 398.934570312 c 0
 326.07421875 420.075195312 306.728515625 430.928710938 273.103515625 430.928710938 c 0
 239.458984375 430.928710938 181.528320312 423.135742188 154.965820312 308.079101562 c 2
 141.657226562 250.434570312 l 2
EndSplineSet
EndChar

StartChar: h
Encoding: 104 104 74
Width: 526
GlyphClass: 2
Flags: MW
HStem: 0.00976562 21G<-5.93262 98.0176 -5.93262 -5.93262> 427.149 97.334<306.598 330.85> 671.751 20G<153.769 257.718 257.718 257.718>
VStem: 77.4092 103.95 364.689 103.949
LayerCount: 2
Fore
SplineSet
356.3984375 325.088867188 m 2
 364.359375 359.571289062 372.458984375 427.149414062 289.240234375 427.149414062 c 0
 259.43359375 427.149414062 236.05078125 418.36328125 215.82421875 401.522460938 c 0
 196.118164062 385.115234375 181.306640625 360.7734375 173.068359375 325.08984375 c 2
 98.017578125 0.009765625 l 1
 -5.9326171875 0.009765625 l 1
 153.768554688 691.750976562 l 1
 257.717773438 691.750976562 l 1
 211.228515625 490.3828125 l 1
 245.981445312 513.051757812 285.418945312 524.483398438 327.776367188 524.483398438 c 0
 381.516601562 524.483398438 422.69921875 508.09375 447.208007812 473.861328125 c 0
 471.756835938 439.57421875 475.807617188 392.053710938 462.529296875 334.5390625 c 2
 385.296875 0.0087890625 l 1
 281.34765625 0.0087890625 l 1
 356.3984375 325.088867188 l 2
EndSplineSet
EndChar

StartChar: i
Encoding: 105 105 75
Width: 250
GlyphClass: 2
Flags: MW
HStem: 0.00976562 21G<1.62695 105.577 1.62695 1.62695> 557.56 124.74<157.257 236.188 128.458 264.986>
VStem: 84.9688 103.95
LayerCount: 2
Fore
SplineSet
121.403320312 518.815429688 m 1
 225.353515625 518.815429688 l 1
 105.577148438 0.009765625 l 1
 1.626953125 0.009765625 l 1
 121.403320312 518.815429688 l 1
157.256835938 682.299804688 m 1
 264.986328125 682.299804688 l 1
 236.1875 557.559570312 l 1
 128.458007812 557.559570312 l 1
 157.256835938 682.299804688 l 1
EndSplineSet
EndChar

StartChar: j
Encoding: 106 106 76
Width: 242
GlyphClass: 2
Flags: MW
HStem: -143.63 98.2803<-115.63 -73.1143 -138.319 -57.0391> 567.01 124.74<150.934 229.864 122.135 258.663>
VStem: 77.4092 103.95
LayerCount: 2
Fore
SplineSet
150.93359375 691.75 m 1
 258.663085938 691.75 l 1
 229.864257812 567.009765625 l 1
 122.134765625 567.009765625 l 1
 150.93359375 691.75 l 1
-115.629882812 -45.349609375 m 1
 -57.0390625 -45.349609375 l 2
 -38.8193359375 -45.349609375 -29.185546875 -40.638671875 -23.7099609375 -35.4921875 c 0
 -17.5048828125 -29.662109375 -9.783203125 -16.6708984375 -4.623046875 5.6796875 c 2
 113.84375 518.815429688 l 1
 217.793945312 518.815429688 l 1
 98.4541015625 1.900390625 l 2
 88.283203125 -42.154296875 68.9033203125 -78.953125 38.0830078125 -105.25 c 0
 7.154296875 -131.639648438 -31.0712890625 -143.629882812 -73.1142578125 -143.629882812 c 2
 -138.319335938 -143.629882812 l 1
 -115.629882812 -45.349609375 l 1
EndSplineSet
EndChar

StartChar: k
Encoding: 107 107 77
Width: 500
GlyphClass: 2
Flags: MW
HStem: 0.00976562 21G<-5.93262 98.0176 -5.93262 -5.93262 302.101 427.249 302.101 302.101> 671.75 20G<153.769 257.719 257.719 257.719>
VStem: 77.4092 103.95
LayerCount: 2
Fore
SplineSet
302.100585938 0.009765625 m 1
 219.036132812 234.204101562 l 1
 133.86328125 155.272460938 l 1
 98.017578125 0.009765625 l 1
 -5.9326171875 0.009765625 l 1
 153.768554688 691.75 l 1
 257.71875 691.75 l 1
 167.135742188 299.391601562 l 1
 397.395507812 518.815429688 l 1
 527.158203125 518.815429688 l 1
 307.7421875 315.619140625 l 1
 427.249023438 0.009765625 l 1
 302.100585938 0.009765625 l 1
EndSplineSet
EndChar

StartChar: l
Encoding: 108 108 78
Width: 288
GlyphClass: 2
Flags: MW
HStem: 0.00976562 98.2803<111.016 219.933 161.343 197.242> 671.75 20G<153.769 257.719 257.719 257.719>
VStem: 77.4092 103.95
LayerCount: 2
Fore
SplineSet
27.666015625 145.540039062 m 2
 153.768554688 691.75 l 1
 257.71875 691.75 l 1
 132.489257812 149.3203125 l 2
 127.329101562 126.969726562 129.051757812 113.978515625 132.564453125 108.147460938 c 0
 135.665039062 103.001953125 143.122070312 98.2900390625 161.342773438 98.2900390625 c 2
 219.932617188 98.2900390625 l 1
 197.2421875 0.009765625 l 1
 132.037109375 0.009765625 l 2
 89.9951171875 0.009765625 57.3056640625 12.0009765625 38.5615234375 38.390625 c 0
 19.884765625 64.6865234375 17.4951171875 101.485351562 27.666015625 145.540039062 c 2
EndSplineSet
EndChar

StartChar: m
Encoding: 109 109 79
Width: 817
GlyphClass: 2
Flags: MW
HStem: 0.00878906 21G<280.402 385.297 280.402 280.402> 427.149 97.334<301.672 324.97>
VStem: 77.4092 103.95 363.744 104.895 651.024 103.949
LayerCount: 2
Fore
SplineSet
355.453125 325.088867188 m 2
 367.515625 377.334960938 360.69921875 427.149414062 289.240234375 427.149414062 c 0
 259.43359375 427.149414062 236.05078125 418.36328125 215.82421875 401.522460938 c 0
 196.118164062 385.115234375 181.306640625 360.7734375 173.068359375 325.08984375 c 2
 98.017578125 0.009765625 l 1
 -5.9326171875 0.009765625 l 1
 113.84375 518.815429688 l 1
 216.846679688 518.815429688 l 1
 210.2109375 490.07421875 l 1
 235.622070312 506.418945312 275.568359375 524.483398438 327.776367188 524.483398438 c 0
 351.71875 524.483398438 420.180664062 522.125 452.09765625 460.494140625 c 1
 496.834960938 502.796875 551.141601562 524.483398438 611.27734375 524.483398438 c 0
 722.862304688 524.483398438 776.603515625 454.69140625 748.864257812 334.538085938 c 2
 671.631835938 0.0078125 l 1
 567.682617188 0.0078125 l 1
 642.733398438 325.087890625 l 2
 654.794921875 377.333984375 647.978515625 427.1484375 576.520507812 427.1484375 c 0
 545.237304688 427.1484375 521.702148438 418.205078125 502.426757812 401.747070312 c 0
 483.00390625 385.1640625 468.77734375 361.602539062 461.001953125 327.923828125 c 2
 385.296875 0.0087890625 l 1
 280.40234375 0.0087890625 l 1
 355.453125 325.088867188 l 2
EndSplineSet
EndChar

StartChar: n
Encoding: 110 110 80
Width: 526
GlyphClass: 2
Flags: MW
HStem: 0.00976562 21G<-5.93262 98.0176 -5.93262 -5.93262> 427.149 97.335<297.64 330.85>
VStem: 77.4092 103.95 364.689 103.949
LayerCount: 2
Fore
SplineSet
356.3984375 325.088867188 m 2
 364.359375 359.571289062 372.458984375 427.149414062 289.240234375 427.149414062 c 0
 259.43359375 427.149414062 236.05078125 418.36328125 215.82421875 401.522460938 c 0
 196.118164062 385.115234375 181.306640625 360.7734375 173.068359375 325.08984375 c 2
 98.017578125 0.009765625 l 1
 -5.9326171875 0.009765625 l 1
 113.84375 518.815429688 l 1
 216.848632812 518.815429688 l 1
 210.357421875 490.700195312 l 1
 226.327148438 500.98828125 267.502929688 524.484375 327.77734375 524.484375 c 0
 382.674804688 524.484375 424.33984375 508.004882812 448.213867188 473.146484375 c 0
 471.873046875 438.604492188 475.65625 391.3984375 462.529296875 334.5390625 c 2
 385.296875 0.0087890625 l 1
 281.34765625 0.0087890625 l 1
 356.3984375 325.088867188 l 2
EndSplineSet
EndChar

StartChar: o
Encoding: 111 111 81
Width: 510
GlyphClass: 2
Flags: MW
HStem: -5.66016 97.335<187.529 211.087> 427.149 98.2803<274.464 297.667>
VStem: 62.2891 103.95 363.744 103.949
LayerCount: 2
Fore
SplineSet
27.599609375 210.745117188 m 2
 50.2900390625 309.025390625 l 2
 66.6796875 380.018554688 96.986328125 436.032226562 144.41015625 472.770507812 c 0
 190.326171875 508.33984375 244.559570312 525.4296875 304.369140625 525.4296875 c 0
 363.02734375 525.4296875 408.590820312 508.249023438 437.705078125 472.705078125 c 0
 467.814453125 435.94921875 472.076171875 379.983398438 455.694335938 309.025390625 c 2
 433.00390625 210.745117188 l 2
 416.622070312 139.787109375 386.51953125 83.8212890625 339.438476562 47.064453125 c 0
 293.912109375 11.521484375 240.416015625 -5.66015625 181.7578125 -5.66015625 c 0
 121.9921875 -5.66015625 75.64453125 11.2333984375 46.0615234375 46.458984375 c 0
 15.416015625 82.94921875 11.078125 139.180664062 27.599609375 210.745117188 c 2
329.927734375 214.524414062 m 2
 350.872070312 305.244140625 l 2
 362.453125 355.407226562 358.852539062 386.165039062 347.20703125 401.306640625 c 0
 334.2734375 418.122070312 313.653320312 427.149414062 281.680664062 427.149414062 c 0
 248.27734375 427.149414062 222.625976562 417.975585938 201.729492188 401.202148438 c 0
 182.837890625 386.038085938 164.938476562 355.368164062 153.3671875 305.245117188 c 2
 132.422851562 214.525390625 l 2
 120.693359375 163.71875 124.413085938 132.731445312 136.259765625 117.622070312 c 0
 149.412109375 100.848632812 170.827148438 91.6748046875 204.23046875 91.6748046875 c 0
 236.203125 91.6748046875 260.991210938 100.702148438 281.688476562 117.517578125 c 0
 300.258789062 132.603515625 318.189453125 163.680664062 329.927734375 214.524414062 c 2
EndSplineSet
EndChar

StartChar: p
Encoding: 112 112 82
Width: 515
GlyphClass: 2
Flags: MW
HStem: -5.66016 97.334<202.177 232.26> 427.148 97.3359<297.351 310.338>
VStem: 77.4092 103.95 368.469 103.95
LayerCount: 2
Fore
SplineSet
210.786132812 488.461914062 m 1
 232.266601562 503.692382812 270.704101562 524.484375 323.997070312 524.484375 c 0
 377.53515625 524.484375 419.264648438 506.829101562 445.899414062 471.275390625 c 0
 473.48828125 434.44921875 476.610351562 379.157226562 460.419921875 309.025390625 c 2
 437.729492188 210.745117188 l 2
 421.41796875 140.08984375 393.134765625 84.591796875 349.197265625 47.6962890625 c 0
 306.899414062 12.1787109375 258.19140625 -5.66015625 206.328125 -5.66015625 c 0
 162.84375 -5.66015625 128.34375 6.064453125 104.801757812 29.3935546875 c 1
 64.8564453125 -143.629882812 l 1
 -39.09375 -143.629882812 l 1
 113.84375 518.815429688 l 1
 217.793945312 518.815429688 l 1
 210.786132812 488.461914062 l 1
219.350585938 91.673828125 m 0
 250.166015625 91.673828125 307.727539062 97.90234375 334.65234375 214.524414062 c 2
 355.377929688 304.298828125 l 2
 381.814453125 418.805664062 327.654296875 427.1484375 293.021484375 427.1484375 c 0
 259.395507812 427.1484375 235.038085938 416.293945312 214.736328125 395.153320312 c 0
 193.240234375 372.767578125 176.852539062 341.48046875 167.177734375 299.57421875 c 2
 147.760742188 215.46875 l 2
 138.754882812 176.461914062 141.221679688 146.638671875 153.290039062 124.030273438 c 0
 164.698242188 102.662109375 185.00390625 91.673828125 219.350585938 91.673828125 c 0
EndSplineSet
EndChar

StartChar: q
Encoding: 113 113 83
Width: 516
GlyphClass: 2
Flags: MW
HStem: -5.66016 97.335<176.051 180.82> 427.15 97.335<259.428 289.043>
VStem: 62.2891 104.895 353.349 104.896
LayerCount: 2
Fore
SplineSet
286.197265625 524.485351562 m 0
 302.951171875 524.485351562 350.10546875 522.904296875 382.775390625 488.462890625 c 1
 389.783203125 518.815429688 l 1
 494.678710938 518.815429688 l 1
 341.741210938 -143.629882812 l 1
 236.845703125 -143.629882812 l 1
 276.791015625 29.3935546875 l 1
 242.477539062 6.064453125 202.5625 -5.66015625 159.078125 -5.66015625 c 0
 107.215820312 -5.66015625 66.744140625 12.1787109375 40.8466796875 47.6962890625 c 0
 13.9443359375 84.591796875 11.2880859375 140.08984375 27.599609375 210.745117188 c 2
 50.2900390625 309.025390625 l 2
 66.4814453125 379.158203125 95.1337890625 434.450195312 139.7265625 471.276367188 c 0
 182.77734375 506.830078125 232.659179688 524.485351562 286.197265625 524.485351562 c 0
133.3671875 214.525390625 m 2
 106.325195312 97.392578125 161.1015625 91.6748046875 191 91.6748046875 c 0
 226.162109375 91.6748046875 251.6171875 102.662109375 272.334960938 123.53125 c 0
 294.361328125 145.716796875 310.571289062 175.713867188 319.75 215.469726562 c 2
 339.166992188 299.575195312 l 2
 348.842773438 341.482421875 346.901367188 372.76953125 335.740234375 395.155273438 c 0
 325.201171875 416.295898438 305.85546875 427.150390625 272.23046875 427.150390625 c 0
 238.5859375 427.150390625 180.65625 419.356445312 154.092773438 304.299804688 c 2
 133.3671875 214.525390625 l 2
EndSplineSet
EndChar

StartChar: r
Encoding: 114 114 84
Width: 349
GlyphClass: 2
Flags: MW
HStem: 0.00976562 21G<-5.93262 98.0176 -5.93262 -5.93262> 426.205 99.2246<294.259 298.747>
VStem: 77.4092 103.95
LayerCount: 2
Fore
SplineSet
210.1875 489.958007812 m 1
 223.484375 499.208984375 264.301757812 525.4296875 324.215820312 525.4296875 c 0
 343.829101562 525.4296875 352.465820312 523.93359375 377.671875 519.563476562 c 1
 352.596679688 410.953125 l 1
 316.379882812 424.03125 310.360351562 426.205078125 287.133789062 426.205078125 c 0
 259.1953125 426.205078125 236.571289062 417.17578125 215.671875 398.740234375 c 0
 194.706054688 380.24609375 180.202148438 355.98828125 172.6328125 323.200195312 c 2
 98.017578125 0.009765625 l 1
 -5.9326171875 0.009765625 l 1
 113.84375 518.814453125 l 1
 216.849609375 518.814453125 l 1
 210.1875 489.958007812 l 1
EndSplineSet
EndChar

StartChar: s
Encoding: 115 115 85
Width: 468
GlyphClass: 2
Flags: MW
HStem: -5.66016 94.498<167.842 200.402 167.842 219.632> 432.819 92.6094<256.388 278.794>
VStem: 50.9473 102.06 58.5078 102.061 342.008 102.061
LayerCount: 2
Fore
SplineSet
396.943359375 156.879882812 m 0xd8
 373.341796875 54.650390625 280.185546875 -5.66015625 159.078125 -5.66015625 c 0
 103.640625 -5.66015625 59.98828125 7.78125 30.740234375 36.4814453125 c 0
 1.2109375 65.45703125 -7.919921875 106.017578125 3.1669921875 154.04296875 c 2
 8.62109375 177.66796875 l 1
 110.680664062 177.66796875 l 1
 105.4453125 154.98828125 l 2xe8
 100.612304688 134.056640625 104.456054688 119.809570312 117.39453125 108.001953125 c 0
 130.629882812 95.9228515625 151.954101562 88.837890625 183.729492188 88.837890625 c 0
 217.075195312 88.837890625 242.537109375 95.6826171875 261.040039062 106.938476562 c 0
 278.645507812 117.647460938 288.994140625 131.372070312 294.009765625 153.098632812 c 0
 298.65625 173.224609375 295.590820312 183.897460938 288.84765625 190.514648438 c 0
 280.763671875 198.447265625 262.913085938 206.599609375 234.243164062 211.984375 c 0
 234.145507812 212.001953125 177.088867188 222.3828125 177.088867188 222.3828125 c 2
 90.3232421875 238.270507812 38.7578125 275.454101562 60.2529296875 368.559570312 c 0
 71.064453125 415.387695312 98.4521484375 455.10546875 140.546875 483.713867188 c 0
 182.146484375 511.985351562 230.141601562 525.428710938 282.633789062 525.428710938 c 0
 338.525390625 525.428710938 382.46875 512.596679688 412.006835938 484.93359375 c 0
 441.569335938 457.249023438 451.811523438 419.098632812 441.452148438 374.229492188 c 2
 435.561523438 348.713867188 l 1
 333.500976562 348.713867188 l 1
 338.737304688 371.39453125 l 2
 343.276367188 391.053710938 339.666992188 404.126953125 327.54296875 414.981445312 c 0
 315.140625 426.084960938 294.444335938 432.819335938 263.14453125 432.819335938 c 0
 231.015625 432.819335938 175.30859375 424.848632812 162.967773438 371.39453125 c 0
 159.1640625 354.916992188 161.575195312 345.034179688 168.279296875 337.62109375 c 0
 175.376953125 329.771484375 191.280273438 321.931640625 217.33984375 317.209960938 c 2
 277.178710938 305.852539062 l 2
 372.46484375 287.265625 417.375976562 245.3828125 396.943359375 156.879882812 c 0xd8
EndSplineSet
EndChar

StartChar: t
Encoding: 116 116 86
Width: 352
GlyphClass: 2
Flags: MW
HStem: 0.0107422 96.3906<145.876 256.352 198.707 234.099> 428.095 90.7207<75.0986 128.81 54.1543 149.754 75.0986 233.704 254.648 341.435>
VStem: 113.319 104.896
LayerCount: 2
Fore
SplineSet
167.599609375 141.760742188 m 0
 158.794921875 103.625976562 174.703125 96.4013671875 198.70703125 96.4013671875 c 2
 256.3515625 96.4013671875 l 1
 234.098632812 0.0107421875 l 1
 166.059570312 0.0107421875 l 2
 125.692382812 0.0107421875 93.9833984375 12.013671875 74.9951171875 37.69921875 c 0
 56.078125 63.2861328125 52.6318359375 98.1328125 62.048828125 138.924804688 c 2
 128.809570312 428.094726562 l 1
 54.154296875 428.094726562 l 1
 75.0986328125 518.815429688 l 1
 149.75390625 518.815429688 l 1
 173.40625 621.264648438 l 1
 289.53125 669.911132812 l 1
 254.6484375 518.815429688 l 1
 362.37890625 518.815429688 l 1
 341.434570312 428.094726562 l 1
 233.704101562 428.094726562 l 1
 211.668945312 332.650390625 189.634765625 237.206054688 167.599609375 141.760742188 c 0
EndSplineSet
EndChar

StartChar: u
Encoding: 117 117 87
Width: 526
GlyphClass: 2
Flags: MW
HStem: -5.66016 97.335<192.331 229.427 192.331 278.745>
VStem: 77.4092 103.95 364.689 103.949
LayerCount: 2
Fore
SplineSet
430.458984375 195.625 m 2
 416.807617188 136.498046875 370.060546875 -5.66015625 187.428710938 -5.66015625 c 0
 126.045898438 -5.66015625 80.0712890625 11.046875 54.3271484375 47.380859375 c 0
 28.8291015625 83.3681640625 24.96875 133.856445312 39.2294921875 195.625 c 2
 113.84375 518.815429688 l 1
 217.793945312 518.815429688 l 1
 145.142578125 204.129882812 l 2
 135.498046875 162.354492188 137.2890625 133.903320312 146.420898438 117.010742188 c 0
 154.747070312 101.607421875 173.81640625 91.6748046875 210.845703125 91.6748046875 c 0
 248.008789062 91.6748046875 271.7578125 101.44140625 286.973632812 116.287109375 c 0
 303.3828125 132.296875 318.506835938 160.9609375 328.47265625 204.129882812 c 2
 401.124023438 518.815429688 l 1
 505.073242188 518.815429688 l 1
 430.458984375 195.625 l 2
EndSplineSet
EndChar

StartChar: v
Encoding: 118 118 88
Width: 447
GlyphClass: 2
Flags: MW
HStem: 0.00976562 21G<107.494 193.436 107.494 107.494>
LayerCount: 2
Fore
SplineSet
48.1962890625 518.815429688 m 1
 160.404296875 518.815429688 l 1
 192.190429688 178.694335938 l 1
 381.0234375 518.815429688 l 1
 492.286132812 518.815429688 l 1
 193.435546875 0.009765625 l 1
 107.494140625 0.009765625 l 1
 48.1962890625 518.815429688 l 1
EndSplineSet
EndChar

StartChar: w
Encoding: 119 119 89
Width: 711
GlyphClass: 2
Flags: MW
HStem: 0.00976562 21G<87.0811 174.063 87.0811 87.0811 385.83 473.724 385.83 385.83>
LayerCount: 2
Fore
SplineSet
49.271484375 518.815429688 m 1
 161.017578125 518.815429688 l 1
 177.665039062 185.333984375 l 1
 358.149414062 518.815429688 l 1
 441.262695312 518.815429688 l 1
 467.787109375 185.065429688 l 1
 639.375 518.815429688 l 1
 751.0859375 518.815429688 l 1
 473.723632812 0.009765625 l 1
 385.830078125 0.009765625 l 1
 357.947265625 339.666015625 l 1
 174.063476562 0.009765625 l 1
 87.0810546875 0.009765625 l 1
 49.271484375 518.815429688 l 1
EndSplineSet
EndChar

StartChar: x
Encoding: 120 120 90
Width: 430
GlyphClass: 2
Flags: MW
HStem: 0.00976562 21G<-79.1748 36.4316 -79.1748 -79.1748 247.535 363.043 247.535 247.535>
LayerCount: 2
Fore
SplineSet
247.53515625 0.009765625 m 1
 181.611328125 173.508789062 l 1
 36.431640625 0.009765625 l 1
 -79.1748046875 0.009765625 l 1
 145.73828125 266.52734375 l 1
 50.150390625 518.815429688 l 1
 165.602539062 518.815429688 l 1
 226.1953125 359.70703125 l 1
 357.716796875 518.815429688 l 1
 473.876953125 518.815429688 l 1
 260.271484375 270.138671875 l 1
 363.04296875 0.009765625 l 1
 247.53515625 0.009765625 l 1
EndSplineSet
EndChar

StartChar: y
Encoding: 121 121 91
Width: 447
GlyphClass: 2
Flags: MW
HStem: -143.63 98.2803<-23.9648 1.54102 -46.6543 19.5059>
LayerCount: 2
Fore
SplineSet
1.541015625 -143.629882812 m 2
 -46.654296875 -143.629882812 l 1
 -23.96484375 -45.349609375 l 1
 19.505859375 -45.349609375 l 2
 40.3662109375 -45.349609375 54.01171875 -40.86328125 61.71875 -35.5986328125 c 0
 70.6181640625 -29.5205078125 81.5224609375 -17.6513671875 92.81640625 1.6376953125 c 2
 105.389648438 24.3544921875 l 1
 48.158203125 518.815429688 l 1
 160.326171875 518.815429688 l 1
 193.775390625 181.46875 l 1
 382.991210938 518.815429688 l 1
 492.333984375 518.815429688 l 1
 170.166015625 -38.71875 l 2
 128.935546875 -109.341796875 76.7783203125 -143.629882812 1.541015625 -143.629882812 c 2
EndSplineSet
EndChar

StartChar: z
Encoding: 122 122 92
Width: 463
GlyphClass: 2
Flags: MW
HStem: 0.00976562 99.2256<131.25 338.047> 419.59 99.2256<75.8154 457.823 98.7236 303.794>
LayerCount: 2
Fore
SplineSet
75.8154296875 419.58984375 m 1
 98.7236328125 518.815429688 l 1
 457.823242188 518.815429688 l 1
 438.07421875 433.2734375 l 1
 131.25 99.2353515625 l 1
 360.955078125 99.2353515625 l 1
 338.046875 0.009765625 l 1
 -21.052734375 0.009765625 l 1
 -1.3125 85.513671875 l 1
 303.793945312 419.58984375 l 1
 75.8154296875 419.58984375 l 1
EndSplineSet
EndChar

StartChar: braceleft
Encoding: 123 123 93
Width: 352
GlyphClass: 2
Flags: MW
HStem: -79.3701 97.335<116.786 232.572 179.652 210.101> 282.136 100.084<44.082 67.1875> 641.665 97.335<317.592 399.036 331.941 376.565>
VStem: 128.439 106.784
LayerCount: 2
Fore
SplineSet
143.005859375 -79.3701171875 m 2
 90.5654296875 -79.3701171875 31.64453125 -58.265625 55.3525390625 44.4248046875 c 2
 97.0224609375 224.919921875 l 2
 102.805664062 249.967773438 100.861328125 264.22265625 97.15625 270.065429688 c 0
 93.658203125 275.58203125 84.3642578125 281.068359375 63.27734375 281.626953125 c 2
 44.08203125 282.135742188 l 1
 67.1875 382.219726562 l 1
 86.619140625 382.728515625 l 2
 107.963867188 383.287109375 119.791015625 388.7734375 125.8359375 394.2890625 c 0
 132.23828125 400.1328125 140.764648438 414.387695312 146.546875 439.434570312 c 2
 187.126953125 615.205078125 l 2
 192.53515625 638.631835938 215.841796875 739 331.94140625 739 c 2
 399.036132812 739 l 1
 376.565429688 641.665039062 l 1
 323.645507812 641.665039062 l 2
 311.538085938 641.665039062 306.203125 638.626953125 304.0703125 636.767578125 c 0
 301.852539062 634.834960938 296.869140625 628.016601562 293.474609375 613.315429688 c 2
 254.422851562 444.16015625 l 2
 240.813476562 385.212890625 223.55078125 353.862304688 192.331054688 331.954101562 c 1
 212.877929688 311.265625 216.7734375 281.0859375 202.715820312 220.1953125 c 2
 162.572265625 46.3154296875 l 2
 159.178710938 31.61328125 161.013671875 24.794921875 162.338867188 22.8623046875 c 0
 163.61328125 21.0029296875 167.544921875 17.96484375 179.65234375 17.96484375 c 2
 232.572265625 17.96484375 l 1
 210.100585938 -79.3701171875 l 1
 143.005859375 -79.3701171875 l 2
EndSplineSet
Substitution2: "'rtla' Right to Left Alternates lookup 0 subtable" braceright
EndChar

StartChar: bar
Encoding: 124 124 94
Width: 316
GlyphClass: 2
Flags: MW
VStem: 118.044 103.005
LayerCount: 2
Fore
SplineSet
205.311523438 739 m 1
 308.31640625 739 l 1
 119.599609375 -78.4248046875 l 1
 16.5947265625 -78.4248046875 l 1
 205.311523438 739 l 1
EndSplineSet
EndChar

StartChar: braceright
Encoding: 125 125 95
Width: 352
GlyphClass: 2
Flags: MW
HStem: -79.3701 97.335<-16.9072 27.7158 -39.3789 36.0127> 281.627 101.102<274.13 297.472> 641.665 97.335<149.557 180.006 127.086 216.651>
VStem: 138.834 106.785
LayerCount: 2
Fore
SplineSet
172.532226562 44.4248046875 m 2
 167.123046875 20.998046875 143.815429688 -79.3701171875 27.7158203125 -79.3701171875 c 2
 -39.37890625 -79.3701171875 l 1
 -16.9072265625 17.96484375 l 1
 36.0126953125 17.96484375 l 2
 48.12109375 17.96484375 53.4541015625 21.0029296875 55.587890625 22.8623046875 c 0
 57.8056640625 24.794921875 62.7890625 31.61328125 66.1826171875 46.3154296875 c 2
 106.326171875 220.1953125 l 2
 120.375 281.044921875 138.19140625 311.248046875 168.315429688 331.954101562 c 1
 147.1875 353.885742188 144.438476562 385.278320312 158.033203125 444.16015625 c 2
 197.084960938 613.315429688 l 2
 200.479492188 628.016601562 198.64453125 634.834960938 197.319335938 636.767578125 c 0
 196.043945312 638.626953125 192.114257812 641.665039062 180.005859375 641.665039062 c 2
 127.0859375 641.665039062 l 1
 149.556640625 739 l 1
 216.651367188 739 l 2
 269.092773438 739 328.014648438 717.896484375 304.306640625 615.205078125 c 2
 263.7265625 439.434570312 l 2
 257.944335938 414.387695312 259.888671875 400.1328125 263.59375 394.2890625 c 0
 267.090820312 388.7734375 276.385742188 383.287109375 297.471679688 382.728515625 c 2
 316.666992188 382.219726562 l 1
 293.561523438 282.135742188 l 1
 274.129882812 281.626953125 l 2
 252.786132812 281.068359375 240.958007812 275.58203125 234.9140625 270.065429688 c 0
 228.51171875 264.22265625 219.985351562 249.967773438 214.202148438 224.919921875 c 2
 172.532226562 44.4248046875 l 2
EndSplineSet
Substitution2: "'rtla' Right to Left Alternates lookup 0 subtable" braceleft
EndChar

StartChar: asciitilde
Encoding: 126 126 96
Width: 517
GlyphClass: 2
Flags: MW
HStem: 200.35 100.171<293.094 338.76> 260.83 99.2246<161.005 205.253>
LayerCount: 2
Fore
SplineSet
166.737304688 260.830078125 m 0x40
 155.2734375 260.830078125 146.616210938 257.954101562 138.875976562 252.793945312 c 0
 123.93359375 242.833007812 107.934570312 223.30078125 85.9853515625 196.502929688 c 1
 18.5615234375 244.578125 l 1
 40.4599609375 276.436523438 62.751953125 308.868164062 104.137695312 334.177734375 c 0
 132.0390625 351.2421875 161.357421875 360.0546875 190.588867188 360.0546875 c 0x40
 219.916992188 360.0546875 238.59375 353.650390625 280.32421875 324.202148438 c 0
 314.67578125 301.056640625 319.68359375 300.520507812 330.879882812 300.520507812 c 0
 346.639648438 300.520507812 363.22265625 303.930664062 398.170898438 347.255859375 c 2
 412.649414062 365.20703125 l 1
 479.958007812 315.33984375 l 1
 457.236328125 283.770507812 434.666015625 252.413085938 393.55859375 226.815429688 c 0
 365.572265625 209.387695312 336.134765625 200.349609375 306.810546875 200.349609375 c 0x80
 279.377929688 200.349609375 255.840820312 206.32421875 216.48046875 236.635742188 c 0
 186.115234375 259.94921875 177.384765625 260.830078125 166.737304688 260.830078125 c 0x40
EndSplineSet
EndChar

StartChar: exclamdown
Encoding: 161 161 98
Width: 256
GlyphClass: 2
Flags: MW
HStem: 390.295 128.521<113.844 208.912 84.1719 238.584>
VStem: 77.4092 124.74 94.0645 91.4287
LayerCount: 2
Fore
SplineSet
113.84375 518.815429688 m 1xc0
 238.583984375 518.815429688 l 1
 208.912109375 390.294921875 l 1
 84.171875 390.294921875 l 1
 113.84375 518.815429688 l 1xc0
179.166015625 333.594726562 m 1xa0
 83.419921875 -143.629882812 l 1
 -36.8681640625 -143.629882812 l 1
 87.7373046875 333.594726562 l 1
 179.166015625 333.594726562 l 1xa0
EndSplineSet
EndChar

StartChar: cent
Encoding: 162 162 99
Width: 508
GlyphClass: 2
Flags: MW
HStem: -3.06543 99.125<222.047 244.932> 422.871 99.9639<320.383 343.461>
VStem: 62.2891 103.95 211.6 94.499 363.744 102.06
LayerCount: 2
Fore
SplineSet
244.931640625 96.0595703125 m 1
 274.594726562 103.248046875 308.732421875 122.719726562 320.328125 172.9453125 c 2
 326 197.514648438 l 1
 428.059570312 197.514648438 l 1
 422.60546875 173.889648438 l 2
 411.006835938 123.6484375 384.955078125 80.58203125 344.701171875 47.8779296875 c 0
 309.3125 19.126953125 267.825195312 2.404296875 222.046875 -3.0654296875 c 1
 200.940429688 -94.490234375 l 1
 106.440429688 -94.490234375 l 1
 128.33203125 0.3330078125 l 1
 88.138671875 9.283203125 57.3232421875 29.259765625 37.8203125 60.3310546875 c 0
 15.0986328125 96.5283203125 13.005859375 147.53125 27.599609375 210.745117188 c 2
 50.2900390625 309.025390625 l 2
 64.8779296875 372.213867188 90.357421875 423.270507812 129.419921875 459.747070312 c 0
 163.185546875 491.27734375 203.517578125 511.452148438 248.40234375 520.416992188 c 1
 269.849609375 613.315429688 l 1
 364.349609375 613.315429688 l 1
 343.4609375 522.834960938 l 1
 386.712890625 517.366210938 420.479492188 500.643554688 442.592773438 471.892578125 c 0
 467.74609375 439.188476562 473.912109375 396.122070312 462.3125 345.879882812 c 2
 456.640625 321.309570312 l 1
 354.581054688 321.309570312 l 1
 360.252929688 345.880859375 l 2
 363.288085938 359.02734375 374.59375 408.572265625 320.3828125 422.87109375 c 1
 244.931640625 96.0595703125 l 1
224.021484375 414.805664062 m 1
 192.673828125 399.455078125 168.268554688 369.791015625 153.3671875 305.24609375 c 2
 132.422851562 214.526367188 l 2
 117.208984375 148.625976562 128.047851562 118.258789062 152.147460938 103.483398438 c 1
 224.021484375 414.805664062 l 1
EndSplineSet
EndChar

StartChar: sterling
Encoding: 163 163 100
Width: 444
GlyphClass: 2
Flags: MW
HStem: 0.0107422 103.949<135.679 343.718> 274.06 102.061<213.199 320.992 189.637 344.555> 597.251 103.95<317.571 339.642>
VStem: 100.089 109.62 315.549 107.73
LayerCount: 2
Fore
SplineSet
168.911132812 184.28515625 m 2
 159.986328125 145.627929688 147.5859375 121.29296875 135.678710938 103.959960938 c 1
 367.715820312 103.959960938 l 1
 343.717773438 0.0107421875 l 1
 -25.7763671875 0.0107421875 l 1
 -5.12890625 89.4443359375 l 1
 14.3212890625 100.068359375 25.5361328125 106.193359375 36.9287109375 123.240234375 c 0
 44.5927734375 134.705078125 51.904296875 152.290039062 57.3271484375 175.78125 c 2
 80.0166015625 274.060546875 l 1
 17.646484375 274.060546875 l 1
 41.2099609375 376.12109375 l 1
 103.580078125 376.12109375 l 1
 136.5234375 518.81640625 l 2
 149.049804688 573.072265625 173.145507812 618.259765625 210.45703125 651.543945312 c 0
 247.868164062 684.916992188 293.026367188 701.201171875 342.115234375 701.201171875 c 0
 388.412109375 701.201171875 424.72265625 686.797851562 447.5546875 657.11328125 c 0
 470.576171875 627.180664062 475.276367188 586.2265625 464.077148438 537.715820312 c 2
 459.49609375 517.87109375 l 1
 351.765625 517.87109375 l 1
 356.346679688 537.715820312 l 2
 362.055664062 562.442382812 362.111328125 597.250976562 317.171875 597.250976562 c 0
 297.243164062 597.250976562 263.098632812 592.254882812 248.54296875 529.209960938 c 2
 213.19921875 376.120117188 l 1
 344.5546875 376.120117188 l 1
 320.9921875 274.059570312 l 1
 189.63671875 274.059570312 l 1
 168.911132812 184.28515625 l 2
EndSplineSet
EndChar

StartChar: currency
Encoding: 164 164 101
Width: 613
GlyphClass: 2
Flags: MW
HStem: 122.86 97.335<267.466 279.716> 437.545 97.335<336.365 348.792>
VStem: 109.538 100.169 421.387 100.172
LayerCount: 2
Fore
SplineSet
102.120117188 328.870117188 m 0
 111.060546875 367.594726562 128.702148438 403.055664062 154.818359375 434.18359375 c 1
 102.372070312 503.64453125 l 1
 190.16015625 576.219726562 l 1
 244.157226562 507.293945312 l 1
 279.52734375 525.709960938 317.0390625 534.879882812 355.69140625 534.879882812 c 0
 393.841796875 534.879882812 426.795898438 525.685546875 453.551757812 507.30078125 c 1
 539.180664062 576.0703125 l 1
 594.846679688 503.6953125 l 1
 510.021484375 434.779296875 l 1
 521.508789062 402.475585938 522.916015625 366.881835938 514.140625 328.870117188 c 0
 505.30859375 290.614257812 487.661132812 255.274414062 461.548828125 223.841796875 c 1
 515.294921875 155.236328125 l 1
 425.9765625 81.421875 l 1
 372.2578125 151.265625 l 1
 336.436523438 132.369140625 298.864257812 122.860351562 260.567382812 122.860351562 c 0
 221.76953125 122.860351562 188.265625 132.344726562 161.059570312 151.271484375 c 1
 76.0576171875 82.2138671875 l 1
 22.2138671875 156.23046875 l 1
 105.586914062 223.965820312 l 1
 94.5380859375 255.77734375 93.38671875 291.040039062 102.120117188 328.870117188 c 0
413.96875 328.870117188 m 0
 421.359375 360.880859375 417.127929688 385.883789062 401.658203125 406.690429688 c 0
 386.225585938 427.447265625 364.366210938 437.544921875 333.21875 437.544921875 c 0
 302.072265625 437.544921875 275.549804688 427.447265625 250.532226562 406.690429688 c 0
 225.45703125 385.883789062 209.6796875 360.880859375 202.2890625 328.870117188 c 0
 194.8984375 296.858398438 199.130859375 271.856445312 214.600585938 251.049804688 c 0
 230.032226562 230.29296875 251.892578125 220.1953125 283.0390625 220.1953125 c 0
 314.186523438 220.1953125 340.708007812 230.29296875 365.7265625 251.049804688 c 0
 390.801757812 271.856445312 406.578125 296.858398438 413.96875 328.870117188 c 0
EndSplineSet
EndChar

StartChar: yen
Encoding: 165 165 102
Width: 461
GlyphClass: 2
Flags: MW
HStem: 0.00976562 21G<103.688 212.362 103.688 103.688> 146.485 92.6094<24.6943 137.505 3.31445 158.885 267.56 379.425 24.6943 246.18> 262.72 93.5557<51.748 156.956 51.748 164.339 30.1484 156.956 323.517 406.259> 671.75 20G<81.3164 202.89 202.89 202.89 432.524 553.111 553.111 553.111>
VStem: 187.029 108.675
LayerCount: 2
Fore
SplineSet
246.1796875 146.485351562 m 1
 212.362304688 0.009765625 l 1
 103.6875 0.009765625 l 1
 137.504882812 146.485351562 l 1
 3.314453125 146.485351562 l 1
 24.6943359375 239.094726562 l 1
 158.884765625 239.094726562 l 1
 164.338867188 262.719726562 l 1
 30.1484375 262.719726562 l 1
 51.748046875 356.275390625 l 1
 156.956054688 356.275390625 l 1
 81.31640625 691.75 l 1
 202.889648438 691.75 l 1
 254.551757812 416.358398438 l 1
 432.524414062 691.75 l 1
 553.111328125 691.75 l 1
 323.516601562 356.275390625 l 1
 427.858398438 356.275390625 l 1
 406.258789062 262.719726562 l 1
 273.013671875 262.719726562 l 1
 267.559570312 239.094726562 l 1
 400.8046875 239.094726562 l 1
 379.424804688 146.485351562 l 1
 246.1796875 146.485351562 l 1
EndSplineSet
EndChar

StartChar: brokenbar
Encoding: 166 166 103
Width: 316
GlyphClass: 2
Flags: MW
VStem: 118.044 103.005
LayerCount: 2
Fore
SplineSet
205.311523438 739 m 1
 308.31640625 739 l 1
 222.357421875 366.669921875 l 1
 119.352539062 366.669921875 l 1
 205.311523438 739 l 1
102.990234375 295.794921875 m 1
 205.995117188 295.794921875 l 1
 119.599609375 -78.4248046875 l 1
 16.5947265625 -78.4248046875 l 1
 102.990234375 295.794921875 l 1
EndSplineSet
EndChar

StartChar: section
Encoding: 167 167 104
Width: 516
GlyphClass: 2
Flags: MW
HStem: -158.75 100.17<145.971 171.005> 614.262 100.17<327.733 345.617>
VStem: 82.1318 107.729 94.415 104.896 102.922 107.731 330.666 107.733 345.785 107.733
LayerCount: 2
Fore
SplineSet
146.415039062 -158.75 m 0xc4
 81.1064453125 -158.75 -20.2216796875 -135.544921875 14.7822265625 16.0751953125 c 2
 19.3642578125 35.919921875 l 1
 124.259765625 35.919921875 l 1
 119.677734375 16.0751953125 l 2xd4
 107.095703125 -38.423828125 123.349609375 -58.580078125 168.591796875 -58.580078125 c 0
 207.815429688 -58.580078125 237.802734375 -41.2333984375 248.416015625 4.7353515625 c 0
 254.168945312 29.654296875 250.749023438 45.68359375 240.6640625 57.025390625 c 0
 230.103515625 68.90234375 205.505859375 81.470703125 165.7265625 91.216796875 c 0
 118.286132812 102.495117188 30.2841796875 136.423828125 63.369140625 279.731445312 c 0xe4
 71.748046875 316.025390625 97.5693359375 391.203125 172.271484375 433.086914062 c 1
 150.463867188 453.81640625 131.981445312 486.87109375 147.646484375 554.7265625 c 0
 158.15625 600.247070312 182.842773438 639.625 220.8828125 669.647460938 c 0
 259.087890625 699.801757812 303.682617188 714.431640625 351.784179688 714.431640625 c 0
 404.326171875 714.431640625 444.048828125 700.096679688 465.856445312 668.299804688 c 0
 487.083984375 637.34765625 490.68359375 595.663085938 479.26953125 546.221679688 c 2
 474.6875 526.376953125 l 1
 369.79296875 526.376953125 l 1
 374.375 546.221679688 l 2
 387.740234375 604.112304688 361.631835938 614.26171875 329.602539062 614.26171875 c 0
 297.775390625 614.26171875 266.135742188 601.322265625 255.377929688 554.725585938 c 0
 249.736328125 530.288085938 252.86328125 514.331054688 262.248046875 503.010742188 c 0
 271.850585938 491.428710938 295.249023438 478.88671875 333.680664062 469.162109375 c 0
 388.743164062 456.04296875 466.877929688 418.865234375 434.755859375 279.73046875 c 0xca
 428.19140625 251.298828125 403.868164062 172.12109375 330.026367188 128.836914062 c 1
 355.630859375 105.260742188 370.930664062 68.763671875 355.711914062 2.84375 c 0
 344.784179688 -44.490234375 319.40625 -84.8974609375 280.104492188 -114.755859375 c 0
 241.032226562 -144.440429688 195.595703125 -158.75 146.415039062 -158.75 c 0xc4
228.805664062 189.955078125 m 0
 285.330078125 189.955078125 315.424804688 229.495117188 327.022460938 279.729492188 c 0
 337.323242188 324.34765625 332.870117188 370.44921875 270.4765625 370.44921875 c 0
 234.611328125 370.44921875 188.397460938 354.665039062 171.09765625 279.73046875 c 0xe2
 163.85546875 248.36328125 166.765625 226.912109375 176.776367188 212.345703125 c 0
 186.864257812 197.665039062 202.889648438 189.955078125 228.805664062 189.955078125 c 0
325.826171875 687.96875 m 1024
EndSplineSet
EndChar

StartChar: dieresis
Encoding: 168 168 105
Width: 505
GlyphClass: 2
Flags: MW
HStem: 546.22 120.96<196.29 279.875 168.364 307.801 196.29 329.96 357.886 441.47>
VStem: 125.604 111.511 287.199 111.51
LayerCount: 2
Fore
SplineSet
196.290039062 667.1796875 m 1
 307.80078125 667.1796875 l 1
 279.875 546.219726562 l 1
 168.364257812 546.219726562 l 1
 196.290039062 667.1796875 l 1
357.885742188 667.1796875 m 1
 469.395507812 667.1796875 l 1
 441.469726562 546.219726562 l 1
 329.959960938 546.219726562 l 1
 357.885742188 667.1796875 l 1
EndSplineSet
EndChar

StartChar: copyright
Encoding: 169 169 106
Width: 813
GlyphClass: 2
Flags: MW
HStem: -9.44043 89.7744<295.007 423.562 273.394 432.017> 139.869 85.0508<375.315 400.982 375.315 413.63> 461.169 85.9951<437.371 466.713> 601.976 89.7734<456.89 543.977>
VStem: 68.9043 93.5547 257.903 90.7197 480.924 88.8301 666.144 93.5547
LayerCount: 2
Fore
SplineSet
755.116210938 341.154296875 m 0
 707.908203125 136.674804688 535.728515625 -9.4404296875 328.305664062 -9.4404296875 c 0
 261.708984375 -9.4404296875 205.141601562 5.314453125 159.646484375 35.2080078125 c 0
 114.294921875 65.0068359375 82.869140625 106.989257812 66.060546875 160.131835938 c 0
 49.212890625 213.397460938 48.82421875 274.0234375 64.322265625 341.154296875 c 0
 79.8203125 408.284179688 108.203125 468.911132812 149.64453125 522.176757812 c 0
 190.9921875 575.318359375 241.801757812 617.302734375 300.913085938 647.1015625 c 0
 360.211914062 676.995117188 423.591796875 691.749023438 490.188476562 691.749023438 c 0
 693.598632812 691.749023438 802.90625 548.154296875 755.116210938 341.154296875 c 0
349.032226562 80.333984375 m 0
 498.092773438 80.333984375 623.8359375 177.74609375 661.561523438 341.155273438 c 0
 699.293945312 504.592773438 618.4921875 601.975585938 469.461914062 601.975585938 c 0
 318.181640625 601.975585938 194.896484375 501.504882812 157.876953125 341.155273438 c 0
 120.856445312 180.80078125 197.755859375 80.333984375 349.032226562 80.333984375 c 0
550.772460938 278.78515625 m 2
 531.776367188 196.501953125 460.703125 139.869140625 366.556640625 139.869140625 c 0
 320.122070312 139.869140625 283.587890625 152.740234375 260.318359375 180.109375 c 0
 235.98046875 208.735351562 232.87109375 252.575195312 245.466796875 307.1328125 c 2
 262.266601562 379.8984375 l 2
 274.861328125 434.455078125 298.212890625 478.297851562 335.767578125 506.923828125 c 0
 371.67578125 534.29296875 414.153320312 547.1640625 460.587890625 547.1640625 c 0
 504.958007812 547.1640625 539.936523438 535.384765625 562.166015625 509.892578125 c 0
 584.434570312 484.358398438 590.1171875 449.20703125 580.661132812 408.249023438 c 2
 574.98828125 383.678710938 l 1
 486.158203125 383.678710938 l 1
 491.39453125 406.359375 l 2
 498.022460938 435.067382812 490.801757812 461.168945312 442.624023438 461.168945312 c 0
 417.08984375 461.168945312 398.98046875 454.559570312 385.37890625 443.689453125 c 0
 373.515625 434.208984375 360.705078125 413.3359375 352.33203125 377.064453125 c 2
 336.841796875 309.96875 l 2
 328.305664062 272.99609375 331.48046875 251.805664062 338.908203125 242.399414062 c 0
 347.491210938 231.529296875 362.547851562 224.919921875 388.08203125 224.919921875 c 0
 413.8828125 224.919921875 451.447265625 233.323242188 462.161132812 279.73046875 c 2
 467.615234375 303.35546875 l 1
 556.4453125 303.35546875 l 1
 550.772460938 278.78515625 l 2
EndSplineSet
EndChar

StartChar: ordfeminine
Encoding: 170 170 107
Width: 343
GlyphClass: 2
Flags: MW
HStem: 402.58 89.7754<148.334 207.519> 536.771 82.2148<194.062 267.379 219.184 248.399> 660.565 85.9941<237.168 256.906>
VStem: 39.6084 98.2803 47.1689 96.3896 207.818 100.171
LayerCount: 2
Fore
SplineSet
111.092773438 637.884765625 m 2xec
 124.6640625 696.668945312 178.30859375 746.559570312 263.756835938 746.559570312 c 0
 303.227539062 746.559570312 334.392578125 737.40234375 353.870117188 716.168945312 c 0
 373.723632812 694.524414062 377.666015625 662.803710938 369.077148438 625.599609375 c 2
 318.4609375 406.360351562 l 1
 220.180664062 406.360351562 l 1
 221.866210938 413.658203125 l 1
 204.958984375 406.111328125 186.3671875 402.580078125 165.443359375 402.580078125 c 0
 131.225585938 402.580078125 103.829101562 411.631835938 87.18359375 432.223632812 c 0
 70.578125 452.764648438 67.3828125 481.303710938 74.9521484375 514.08984375 c 0xf4
 87.7529296875 569.5390625 131.7421875 606.294921875 186.352539062 616.150390625 c 1
 106.075195312 616.150390625 l 1
 111.092773438 637.884765625 l 2xec
269.560546875 628.434570312 m 2
 274.176757812 648.4296875 269.908203125 660.565429688 243.903320312 660.565429688 c 0
 230.43359375 660.565429688 222.27734375 657.421875 217.4921875 653.998046875 c 0
 212.643554688 650.528320312 209.479492188 646.534179688 207.482421875 637.884765625 c 2
 202.965820312 618.322265625 l 1xec
 208.298828125 618.767578125 213.708007812 618.985351562 219.18359375 618.985351562 c 2
 267.37890625 618.985351562 l 1
 269.560546875 628.434570312 l 2
173.450195312 515.03515625 m 0xf4
 171.2734375 505.606445312 168.213867188 492.35546875 198.454101562 492.35546875 c 0
 216.583007812 492.35546875 226.7578125 496.6875 231.71484375 500.71484375 c 0
 237.020507812 505.026367188 243.045898438 513.583984375 246.872070312 530.155273438 c 2
 248.399414062 536.770507812 l 1
 209.654296875 536.770507812 l 2
 178.46875 536.770507812 175.497070312 523.900390625 173.450195312 515.03515625 c 0xf4
288.333984375 820.270507812 m 1024
EndSplineSet
EndChar

StartChar: guillemotleft
Encoding: 171 171 108
Width: 485
GlyphClass: 2
Flags: W
LayerCount: 2
Fore
SplineSet
287.338867188 504.872070312 m 1
 256.177734375 369.897460938 l 1
 134.147460938 269.334960938 l 1
 209.744140625 168.772460938 l 1
 178.583007812 33.798828125 l 1
 0.9931640625 269.334960938 l 1
 287.338867188 504.872070312 l 1
460.2734375 504.872070312 m 1
 429.112304688 369.897460938 l 1
 307.083007812 269.334960938 l 1
 382.678710938 168.772460938 l 1
 351.517578125 33.798828125 l 1
 173.927734375 269.334960938 l 1
 460.2734375 504.872070312 l 1
EndSplineSet
EndChar

StartChar: logicalnot
Encoding: 172 172 109
Width: 517
GlyphClass: 2
Flags: MW
HStem: 249.49 98.2803<56.3994 346.505 33.71 474.089>
VStem: 372.249 104.895
LayerCount: 2
Fore
SplineSet
346.504882812 249.490234375 m 1
 33.7099609375 249.490234375 l 1
 56.3994140625 347.770507812 l 1
 474.088867188 347.770507812 l 1
 422.1640625 122.860351562 l 1
 317.26953125 122.860351562 l 1
 346.504882812 249.490234375 l 1
EndSplineSet
EndChar

StartChar: uni00AD
Encoding: 173 173 110
Width: 403
GlyphClass: 2
Flags: MW
HStem: 296.74 102.06<71.0156 347.018 47.4531 370.58>
VStem: 62.2891 299.564
LayerCount: 2
Fore
SplineSet
71.015625 398.799804688 m 1
 370.580078125 398.799804688 l 1
 347.017578125 296.740234375 l 1
 47.453125 296.740234375 l 1
 71.015625 398.799804688 l 1
EndSplineSet
EndChar

StartChar: registered
Encoding: 174 174 111
Width: 540
GlyphClass: 2
Flags: MW
HStem: 289.18 68.9854<260.208 298.087 260.208 319.442> 542.44 69.9297<309.242 331.923 309.242 309.242> 621.82 68.9844<321.077 375.53>
VStem: 82.1338 71.8203 193.644 73.71 407.214 70.875
LayerCount: 2
Fore
SplineSet
263.057617188 289.1796875 m 0
 149.802734375 289.1796875 85.599609375 376.014648438 112.022460938 490.46484375 c 0
 138.685546875 605.954101562 244.330078125 690.8046875 355.780273438 690.8046875 c 0
 470.298828125 690.8046875 534.241210938 604.221679688 507.977539062 490.46484375 c 0
 480.994140625 373.5859375 375.827148438 289.1796875 263.057617188 289.1796875 c 0
437.102539062 490.46484375 m 0
 455.731445312 571.153320312 411.206054688 621.8203125 339.853515625 621.8203125 c 0
 302.299804688 621.8203125 270.508789062 609.759765625 241.279296875 585.3515625 c 0
 212.072265625 560.962890625 193.043945312 530.318359375 183.842773438 490.46484375 c 0
 174.479492188 449.907226562 179.346679688 418.963867188 197.248046875 394.6328125 c 0
 215.208007812 370.224609375 241.430664062 358.165039062 278.984375 358.165039062 c 0
 317.190429688 358.165039062 349.490234375 370.399414062 379.087890625 395.108398438 c 0
 408.737304688 419.859375 427.916015625 450.672851562 437.102539062 490.46484375 c 0
416.680664062 532.990234375 m 0
 413.84375 520.701171875 404.80859375 489.319335938 371.219726562 468.703125 c 1
 395.52734375 370.450195312 l 1
 364.03515625 370.450195312 l 1
 327.180664062 370.450195312 l 1
 314.66015625 370.450195312 l 1
 294.169921875 453.610351562 l 1
 288.734375 453.610351562 l 1
 269.53515625 370.450195312 l 1
 195.825195312 370.450195312 l 1
 251.676757812 612.370117188 l 1
 349.01171875 612.370117188 l 2
 373.02734375 612.370117188 393.189453125 606.267578125 406.118164062 591.745117188 c 0
 419.249023438 576.997070312 421.999023438 556.026367188 416.680664062 532.990234375 c 0
327.559570312 523.540039062 m 2
 335.232421875 523.540039062 339.278320312 525.186523438 340.370117188 525.8359375 c 0
 340.935546875 526.171875 342.390625 526.384765625 343.916015625 532.990234375 c 0
 345.440429688 539.594726562 344.083984375 539.80859375 343.673828125 540.14453125 c 0
 342.881835938 540.793945312 339.595703125 542.440429688 331.922851562 542.440429688 c 2
 309.2421875 542.440429688 l 1
 304.87890625 523.540039062 l 1
 327.559570312 523.540039062 l 2
EndSplineSet
EndChar

StartChar: macron
Encoding: 175 175 112
Width: 505
GlyphClass: 2
Flags: MW
HStem: 557.56 98.2803<188.003 450.703 165.312 473.394>
VStem: 119.934 285.391
LayerCount: 2
Fore
SplineSet
188.002929688 655.83984375 m 1
 473.393554688 655.83984375 l 1
 450.703125 557.559570312 l 1
 165.3125 557.559570312 l 1
 188.002929688 655.83984375 l 1
EndSplineSet
EndChar

StartChar: degree
Encoding: 176 176 113
Width: 420
GlyphClass: 2
Flags: MW
HStem: 396.91 85.9951<239.214 250.281> 616.15 85.0498<278.112 289.544>
VStem: 68.9043 87.8848 284.364 87.8848
LayerCount: 2
Fore
SplineSet
112.3203125 549.0546875 m 0
 122.09765625 591.408203125 145.102539062 628.516601562 180.409179688 657.495117188 c 0
 215.872070312 686.603515625 256.633789062 701.200195312 299.58984375 701.200195312 c 0
 341.473632812 701.200195312 374.885742188 686.474609375 397.10546875 657.584960938 c 0
 419.37890625 628.625976562 425.458007812 591.475585938 415.665039062 549.0546875 c 0
 405.87109375 506.634765625 382.637695312 469.484375 346.993164062 440.525390625 c 0
 311.43359375 411.634765625 271.22265625 396.91015625 229.338867188 396.91015625 c 0
 186.3828125 396.91015625 152.361328125 411.505859375 130.337890625 440.614257812 c 0
 108.412109375 469.59375 102.541992188 506.702148438 112.3203125 549.0546875 c 0
327.780273438 549.0546875 m 0
 332.610351562 569.9765625 330.0234375 585.217773438 320.920898438 597.674804688 c 0
 311.797851562 610.159179688 299.1328125 616.150390625 279.955078125 616.150390625 c 0
 259.999023438 616.150390625 244.266601562 610.046875 229.513671875 597.674804688 c 0
 214.659179688 585.217773438 205.03515625 569.9765625 200.205078125 549.0546875 c 0
 195.55078125 528.8984375 198.103515625 513.942382812 207.282226562 501.379882812 c 0
 216.322265625 489.008789062 229.236328125 482.905273438 249.192382812 482.905273438 c 0
 268.370117188 482.905273438 283.801757812 488.895507812 298.689453125 501.379882812 c 0
 313.668945312 513.942382812 323.125976562 528.8984375 327.780273438 549.0546875 c 0
EndSplineSet
EndChar

StartChar: plusminus
Encoding: 177 177 114
Width: 517
GlyphClass: 2
Flags: MW
HStem: -3.76953 102.06<-0.251953 391.985 -23.8145 415.548> 263.665 102.06<61.4902 194.797 37.9277 218.359 320.42 453.728 61.4902 296.857>
VStem: 217.269 102.061
LayerCount: 2
Fore
SplineSet
296.857421875 263.665039062 m 1
 260.640625 106.794921875 l 1
 158.580078125 106.794921875 l 1
 194.796875 263.665039062 l 1
 37.927734375 263.665039062 l 1
 61.490234375 365.724609375 l 1
 218.359375 365.724609375 l 1
 254.575195312 522.594726562 l 1
 356.635742188 522.594726562 l 1
 320.419921875 365.724609375 l 1
 477.290039062 365.724609375 l 1
 453.727539062 263.665039062 l 1
 296.857421875 263.665039062 l 1
-0.251953125 98.2900390625 m 1
 415.547851562 98.2900390625 l 1
 391.985351562 -3.76953125 l 1
 -23.814453125 -3.76953125 l 1
 -0.251953125 98.2900390625 l 1
EndSplineSet
EndChar

StartChar: uni00B2
Encoding: 178 178 115
Width: 334
GlyphClass: 2
Flags: MW
HStem: 406.36 95.4443<222.613 320.351> 754.12 92.6104<260.943 272.219>
VStem: 46.2236 102.061 204.039 104.894
LayerCount: 2
Fore
SplineSet
290.6640625 846.73046875 m 0
 371.842773438 846.73046875 408.780273438 793.487304688 392.927734375 724.825195312 c 2
 390.528320312 714.4296875 l 2
 382.75390625 680.756835938 365.151367188 650.47265625 325.391601562 609.002929688 c 2
 222.61328125 501.8046875 l 1
 342.385742188 501.8046875 l 1
 320.350585938 406.360351562 l 1
 59.5302734375 406.360351562 l 1
 76.9658203125 481.880859375 l 1
 254.337890625 664.694335938 l 2
 277.352539062 688.862304688 282.817382812 702.228515625 285.634765625 714.4296875 c 2
 287.379882812 721.990234375 l 2
 294.28125 751.880859375 277.044921875 754.120117188 267.392578125 754.120117188 c 0
 254.493164062 754.120117188 238.247070312 750.671875 230.534179688 717.264648438 c 2
 223.552734375 687.025390625 l 1
 121.4921875 687.025390625 l 1
 129.346679688 721.044921875 l 2
 146.514648438 795.411132812 210.268554688 846.73046875 290.6640625 846.73046875 c 0
EndSplineSet
EndChar

StartChar: uni00B3
Encoding: 179 179 116
Width: 332
GlyphClass: 2
Flags: MW
HStem: 400.69 91.665<187.544 207.939 187.544 223.081> 584.021 92.6094<202.253 220.562 180.872 241.943> 695.529 21G<122.512 219.847 122.512 122.512> 754.119 92.6104<255.716 267.233>
VStem: 43.3887 96.3906 206.874 101.116
LayerCount: 2
Fore
SplineSet
347.260742188 531.099609375 m 2
 329.751953125 455.26171875 263.19921875 400.690429688 182.962890625 400.690429688 c 0
 144.947265625 400.690429688 114.684570312 410.694335938 95.6943359375 432.856445312 c 0
 76.6533203125 455.077148438 72.2392578125 485.966796875 80.4775390625 521.650390625 c 2
 87.458984375 551.889648438 l 1
 183.849609375 551.889648438 l 1
 177.0859375 522.594726562 l 2
 175.083984375 513.923828125 171.909179688 492.35546875 203.178710938 492.35546875 c 0
 212.69921875 492.35546875 237.424804688 493.330078125 246.14453125 531.099609375 c 2
 248.98046875 543.384765625 l 2
 252.41796875 558.272460938 253.588867188 584.020507812 220.5625 584.020507812 c 2
 180.872070312 584.020507812 l 1
 202.252929688 676.629882812 l 1
 241.943359375 676.629882812 l 2
 256.921875 676.629882812 274.6015625 683.015625 280.981445312 710.649414062 c 2
 283.163085938 720.099609375 l 2
 290.721679688 752.837890625 271.797851562 754.119140625 262.66796875 754.119140625 c 0
 248.764648438 754.119140625 232.461914062 750.173828125 226.609375 724.82421875 c 2
 219.846679688 695.529296875 l 1
 122.51171875 695.529296875 l 1
 129.493164062 725.76953125 l 2
 145.740234375 796.14453125 205.329101562 846.729492188 285.938476562 846.729492188 c 0
 368.06640625 846.729492188 402.145507812 793.397460938 386.533203125 725.76953125 c 2
 384.350585938 716.319335938 l 2
 380.516601562 699.708984375 370.075195312 665.677734375 333.161132812 636.336914062 c 1
 339.918945312 628.97265625 363.399414062 601.004882812 349.87890625 542.440429688 c 2
 347.260742188 531.099609375 l 2
EndSplineSet
EndChar

StartChar: acute
Encoding: 180 180 117
Width: 505
GlyphClass: 2
Flags: MW
HStem: 540.55 157.815<186.508 483.461>
VStem: 145.056 260.519
LayerCount: 2
Fore
SplineSet
347.931640625 698.365234375 m 1
 483.4609375 698.365234375 l 1
 295.524414062 540.549804688 l 1
 186.5078125 540.549804688 l 1
 347.931640625 698.365234375 l 1
EndSplineSet
EndChar

StartChar: uni00B5
Encoding: 181 181 118
Width: 520
GlyphClass: 2
Flags: MW
HStem: -7.5498 98.2803<163.656 195.481> 0.00976562 21G<274.732 378.683 274.732 274.732>
VStem: 77.4092 103.95 357.129 104.896
LayerCount: 2
Fore
SplineSet
280.458984375 24.810546875 m 1x70
 256.958007812 9.35546875 220.036132812 -7.5498046875 170.926757812 -7.5498046875 c 0
 143.065429688 -7.5498046875 119.12890625 -2.0458984375 100.159179688 9.283203125 c 1
 64.8564453125 -143.629882812 l 1
 -39.09375 -143.629882812 l 1
 113.84375 518.815429688 l 1
 217.793945312 518.815429688 l 1
 141.43359375 188.065429688 l 2
 135.436523438 162.0859375 122.354492188 90.73046875 204.95703125 90.73046875 c 0xb0
 231.973632812 90.73046875 254.420898438 99.0263671875 275.243164062 115.734375 c 0
 295.096679688 131.666015625 309.46875 154.5625 317.203125 188.065429688 c 2
 393.563476562 518.815429688 l 1
 498.458984375 518.815429688 l 1
 378.682617188 0.009765625 l 1
 274.732421875 0.009765625 l 1
 280.458984375 24.810546875 l 1x70
EndSplineSet
EndChar

StartChar: paragraph
Encoding: 182 182 119
Width: 613
GlyphClass: 2
Flags: MW
HStem: 590.635 101.115<415.814 415.814 415.814 462.119>
VStem: 82.1338 280.665 259.794 103.005 409.104 103.006
LayerCount: 2
Fore
SplineSet
415.814453125 590.634765625 m 1xb0
 246.295898438 -143.629882812 l 1
 143.291015625 -143.629882812 l 1
 236.260742188 259.06640625 l 1xb0
 188.150390625 266.240234375 151.112304688 287.981445312 127.309570312 324.208007812 c 0
 100.734375 364.654296875 94.73046875 415.5625 108.314453125 474.400390625 c 0xd0
 118.380859375 518.005859375 151.580078125 611.076171875 256.564453125 663.236328125 c 0
 295.353515625 682.5078125 337.8671875 691.75 383.403320312 691.75 c 2
 588.46875 691.75 l 1
 395.606445312 -143.629882812 l 1
 292.600585938 -143.629882812 l 1
 462.119140625 590.634765625 l 1
 415.814453125 590.634765625 l 1xb0
EndSplineSet
EndChar

StartChar: periodcentered
Encoding: 183 183 120
Width: 212
GlyphClass: 2
Flags: MW
HStem: 210.745 126.63<51.165 144.779 21.9297 174.015>
VStem: 56.6191 122.85
LayerCount: 2
Fore
SplineSet
51.1650390625 337.375 m 1
 174.014648438 337.375 l 1
 144.779296875 210.745117188 l 1
 21.9296875 210.745117188 l 1
 51.1650390625 337.375 l 1
EndSplineSet
EndChar

StartChar: cedilla
Encoding: 184 184 121
Width: 505
GlyphClass: 2
Flags: MW
HStem: -141.74 192.78<58.958 277.035 58.958 277.035>
VStem: 175.025 173.57
LayerCount: 2
Fore
SplineSet
277.03515625 51.0400390625 m 1
 169.458007812 -141.740234375 l 1
 58.9580078125 -141.740234375 l 1
 178.434570312 51.0400390625 l 1
 277.03515625 51.0400390625 l 1
EndSplineSet
EndChar

StartChar: uni00B9
Encoding: 185 185 122
Width: 239
GlyphClass: 2
Flags: MW
VStem: 100.089 104.896
LayerCount: 2
Fore
SplineSet
100.020507812 659.514648438 m 1
 127.662109375 779.2421875 l 1
 224.0078125 840.115234375 l 1
 315.596679688 840.115234375 l 1
 215.456054688 406.360351562 l 1
 110.560546875 406.360351562 l 1
 181.005859375 711.489257812 l 1
 100.020507812 659.514648438 l 1
EndSplineSet
EndChar

StartChar: ordmasculine
Encoding: 186 186 123
Width: 343
GlyphClass: 2
Flags: MW
HStem: 402.58 94.5<206.588 211.989> 652.06 94.5<251.232 256.632>
VStem: 45.2793 100.17 219.159 100.17
LayerCount: 2
Fore
SplineSet
88.0400390625 546.219726562 m 2
 101.130859375 602.919921875 l 2
 111.569335938 648.135742188 131.294921875 685.412109375 163.237304688 710.720703125 c 0
 194.15625 735.21875 231.146484375 746.559570312 271.317382812 746.559570312 c 0
 311.489257812 746.559570312 343.240234375 735.21875 362.848632812 710.720703125 c 0
 383.106445312 685.412109375 385.619140625 648.135742188 375.180664062 602.919921875 c 2
 362.08984375 546.219726562 l 2
 351.651367188 501.00390625 331.926757812 463.728515625 299.982421875 438.418945312 c 0
 269.063476562 413.921875 232.075195312 402.580078125 191.903320312 402.580078125 c 0
 151.732421875 402.580078125 119.979492188 413.921875 100.372070312 438.419921875 c 0
 80.115234375 463.729492188 77.6015625 501.004882812 88.0400390625 546.219726562 c 2
213.719726562 497.080078125 m 0
 227.983398438 497.080078125 250.875976562 498.380859375 261.919921875 546.219726562 c 2
 275.010742188 602.919921875 l 2
 286.0546875 650.7578125 263.764648438 652.059570312 249.5 652.059570312 c 0
 235.237304688 652.059570312 212.344726562 650.758789062 201.30078125 602.919921875 c 2
 188.209960938 546.219726562 l 2
 177.166015625 498.381835938 199.456054688 497.080078125 213.719726562 497.080078125 c 0
288.333984375 820.270507812 m 1024
EndSplineSet
EndChar

StartChar: guillemotright
Encoding: 187 187 124
Width: 485
GlyphClass: 2
Flags: W
LayerCount: 2
Fore
SplineSet
79.462890625 369.897460938 m 1
 110.624023438 504.872070312 l 1
 288.213867188 269.334960938 l 1
 1.8681640625 33.798828125 l 1
 33.029296875 168.772460938 l 1
 155.059570312 269.334960938 l 1
 79.462890625 369.897460938 l 1
251.44140625 369.846679688 m 1
 282.57421875 504.6953125 l 1
 461.21875 269.334960938 l 1
 173.899414062 33.974609375 l 1
 205.032226562 168.82421875 l 1
 327.873046875 269.334960938 l 1
 251.44140625 369.846679688 l 1
EndSplineSet
EndChar

StartChar: onequarter
Encoding: 188 188 125
Width: 726
GlyphClass: 3
Flags: MW
HStem: 0.00976562 21G<-3.31055 101.345 -3.31055 -3.31055 481.688 586.582 481.688 481.688> 70.8848 95.4453<486.355 498.051 624.98 639.801 486.355 602.945> 511.149 21G<65.7676 65.7676> 671.75 20G<189.755 281.344 281.344 281.344 530.331 634.986 634.986 634.986>
VStem: 100.089 104.896 565.029 104.895
LayerCount: 2
Fore
SplineSet
65.767578125 511.149414062 m 1
 93.4091796875 630.876953125 l 1
 189.754882812 691.75 l 1
 281.34375 691.75 l 1
 181.203125 257.995117188 l 1
 76.3076171875 257.995117188 l 1
 146.752929688 563.124023438 l 1
 65.767578125 511.149414062 l 1
624.98046875 166.330078125 m 1
 661.8359375 166.330078125 l 1
 639.80078125 70.884765625 l 1
 602.9453125 70.884765625 l 1
 586.58203125 0.009765625 l 1
 481.6875 0.009765625 l 1
 498.05078125 70.884765625 l 1
 349.685546875 70.884765625 l 1
 368.05078125 150.43359375 l 1
 550.599609375 433.764648438 l 1
 657.717773438 433.764648438 l 1
 545.697265625 258.940429688 l 1
 646.361328125 258.940429688 l 1
 624.98046875 166.330078125 l 1
520.0859375 166.330078125 m 1
 539.083984375 248.619140625 l 1
 486.35546875 166.330078125 l 1
 520.0859375 166.330078125 l 1
530.331054688 691.75 m 1
 634.986328125 691.75 l 1
 101.344726562 0.009765625 l 1
 -3.310546875 0.009765625 l 1
 530.331054688 691.75 l 1
EndSplineSet
Ligature2: "'frac' Diagonal Fractions lookup 2 subtable" one slash four
EndChar

StartChar: onehalf
Encoding: 189 189 126
Width: 715
GlyphClass: 3
Flags: MW
HStem: 0.00976562 95.4453<504.911 602.647> 347.771 92.6094<543.241 554.516> 511.149 21G<65.7676 65.7676> 671.75 20G<189.755 281.344 281.344 281.344 530.332 634.987 634.987 634.987>
VStem: 100.089 104.896 422.335 102.06 580.15 104.894
LayerCount: 2
Fore
SplineSet
65.767578125 511.149414062 m 1
 93.4091796875 630.876953125 l 1
 189.754882812 691.75 l 1
 281.34375 691.75 l 1
 181.203125 257.995117188 l 1
 76.3076171875 257.995117188 l 1
 146.752929688 563.124023438 l 1
 65.767578125 511.149414062 l 1
572.9609375 440.379882812 m 0
 654.140625 440.379882812 691.078125 387.137695312 675.225585938 318.474609375 c 2
 672.826171875 308.080078125 l 2
 665.0546875 274.41796875 647.466796875 244.142578125 607.688476562 202.654296875 c 2
 504.911132812 95.455078125 l 1
 624.68359375 95.455078125 l 1
 602.647460938 0.009765625 l 1
 341.827148438 0.009765625 l 1
 359.262695312 75.53125 l 1
 536.634765625 258.344726562 l 2
 559.650390625 282.51171875 565.115234375 295.877929688 567.932617188 308.080078125 c 2
 569.677734375 315.639648438 l 2
 576.579101562 345.530273438 559.341796875 347.770507812 549.690429688 347.770507812 c 0
 536.791015625 347.770507812 520.543945312 344.321289062 512.831054688 310.915039062 c 2
 505.849609375 280.674804688 l 1
 403.790039062 280.674804688 l 1
 411.64453125 314.6953125 l 2
 428.813476562 389.061523438 492.565429688 440.379882812 572.9609375 440.379882812 c 0
530.33203125 691.75 m 1
 634.987304688 691.75 l 1
 101.345703125 0.009765625 l 1
 -3.3095703125 0.009765625 l 1
 530.33203125 691.75 l 1
EndSplineSet
Ligature2: "'frac' Diagonal Fractions lookup 2 subtable" one slash two
EndChar

StartChar: threequarters
Encoding: 190 190 127
Width: 818
GlyphClass: 3
Flags: MW
HStem: 0.00878906 21G<88.3545 193.01 88.3545 88.3545 573.353 678.247 573.353 573.353> 70.8838 95.4453<578.021 589.716 716.646 731.466 578.021 694.61> 252.325 91.6641<153.291 173.686 153.291 188.828> 435.654 92.6094<167.999 186.31 146.619 207.689> 605.753 92.6104<221.463 232.98>
VStem: 43.3887 96.3906 206.874 101.116 656.694 104.895
LayerCount: 2
Fore
SplineSet
313.0078125 382.735351562 m 2
 295.499023438 306.896484375 228.946289062 252.325195312 148.709960938 252.325195312 c 0
 110.694335938 252.325195312 80.431640625 262.329101562 61.44140625 284.491210938 c 0
 42.4013671875 306.712890625 37.986328125 337.600585938 46.224609375 373.284179688 c 2
 53.2060546875 403.524414062 l 1
 149.596679688 403.524414062 l 1
 142.833007812 374.229492188 l 2
 140.831054688 365.557617188 137.65625 343.989257812 168.92578125 343.989257812 c 0
 178.446289062 343.989257812 203.171875 344.963867188 211.891601562 382.734375 c 2
 214.727539062 395.01953125 l 2
 218.165039062 409.90625 219.3359375 435.654296875 186.309570312 435.654296875 c 2
 146.619140625 435.654296875 l 1
 167.999023438 528.263671875 l 1
 207.689453125 528.263671875 l 2
 222.66796875 528.263671875 240.348632812 534.649414062 246.728515625 562.283203125 c 2
 248.91015625 571.733398438 l 2
 256.46875 604.471679688 237.544921875 605.752929688 228.415039062 605.752929688 c 0
 214.51171875 605.752929688 198.208984375 601.807617188 192.356445312 576.458007812 c 2
 185.592773438 547.163085938 l 1
 88.2578125 547.163085938 l 1
 95.2392578125 577.403320312 l 2
 111.487304688 647.779296875 171.075195312 698.36328125 251.684570312 698.36328125 c 0
 333.8125 698.36328125 367.892578125 645.03125 352.279296875 577.403320312 c 2
 350.09765625 567.953125 l 2
 346.262695312 551.340820312 335.821289062 517.3125 298.91015625 487.973632812 c 1
 305.721679688 480.55078125 329.131835938 452.575195312 315.625976562 394.075195312 c 2
 313.0078125 382.735351562 l 2
716.645507812 166.329101562 m 1
 753.500976562 166.329101562 l 1
 731.465820312 70.8837890625 l 1
 694.610351562 70.8837890625 l 1
 678.247070312 0.0087890625 l 1
 573.352539062 0.0087890625 l 1
 589.715820312 70.8837890625 l 1
 441.350585938 70.8837890625 l 1
 459.715820312 150.432617188 l 1
 642.264648438 433.763671875 l 1
 749.3828125 433.763671875 l 1
 637.362304688 258.939453125 l 1
 738.026367188 258.939453125 l 1
 716.645507812 166.329101562 l 1
611.750976562 166.329101562 m 1
 630.749023438 248.618164062 l 1
 578.020507812 166.329101562 l 1
 611.750976562 166.329101562 l 1
621.99609375 691.749023438 m 1
 726.651367188 691.749023438 l 1
 193.009765625 0.0087890625 l 1
 88.3544921875 0.0087890625 l 1
 621.99609375 691.749023438 l 1
EndSplineSet
Ligature2: "'frac' Diagonal Fractions lookup 2 subtable" three slash four
EndChar

StartChar: questiondown
Encoding: 191 191 128
Width: 437
GlyphClass: 2
Flags: MW
HStem: -153.08 102.061<108.124 142.544> 391.24 127.575<210.233 304.575 180.78 334.028>
VStem: 50.9482 108.674 173.799 123.795 180.412 108.675 307.99 108.666
LayerCount: 2
Fore
SplineSet
210.233398438 518.815429688 m 1xf4
 334.028320312 518.815429688 l 1
 304.575195312 391.240234375 l 1
 180.780273438 391.240234375 l 1
 210.233398438 518.815429688 l 1xf4
81.953125 24.580078125 m 0
 74.59765625 -7.2822265625 76.1474609375 -51.01953125 140.099609375 -51.01953125 c 0
 174.760742188 -51.01953125 214.008789062 -40.296875 232.15234375 32.5107421875 c 2
 237.005859375 51.9853515625 l 1
 345.79296875 51.9853515625 l 1
 340.623046875 31.6650390625 l 2
 326.18359375 -25.0966796875 299.915039062 -71.5947265625 260.047851562 -104.580078125 c 0
 219.973632812 -137.737304688 170.438476562 -153.080078125 114.649414062 -153.080078125 c 0
 60.984375 -153.080078125 19.380859375 -137.104492188 -6.541015625 -103.87109375 c 0
 -32.3359375 -70.80078125 -38.6025390625 -26.8876953125 -26.720703125 24.5810546875 c 0
 -14.4130859375 77.890625 11.6962890625 115.94140625 64.5048828125 168.158203125 c 2
 122.248046875 225.092773438 l 2
 138.225585938 240.4765625 148.255859375 252.875976562 152.55078125 260.487304688 c 0
 157.168945312 268.674804688 162.236328125 282.2734375 166.44921875 300.520507812 c 2
 178.666992188 353.440429688 l 1
 287.341796875 353.440429688 l 1
 274.905273438 299.575195312 l 2xec
 262.033203125 243.817382812 244.50390625 215.801757812 199.408203125 171.8046875 c 2
 142.262695312 116.921875 l 2
 103.27734375 79.7587890625 89.572265625 57.5810546875 81.953125 24.580078125 c 0
EndSplineSet
EndChar

StartChar: Agrave
Encoding: 192 192 129
Width: 579
GlyphClass: 2
Flags: MW
HStem: 0.00976562 21G<-78.6875 -78.6875 -78.6875 36.5088 394.831 394.831 394.831 510.027> 156.88 98.2803<183.88 365.198 183.88 376.237 127.535 365.198> 671.75 20G<332.646 418.096 418.096 418.096>
LayerCount: 2
Fore
SplineSet
-78.6875 0.009765625 m 1
 332.646484375 691.75 l 1
 418.095703125 691.75 l 1
 510.02734375 0.009765625 l 1
 394.831054688 0.009765625 l 1
 376.237304688 156.879882812 l 1
 127.53515625 156.879882812 l 1
 36.5087890625 0.009765625 l 1
 -78.6875 0.009765625 l 1
183.879882812 255.16015625 m 1
 365.198242188 255.16015625 l 1
 334.216796875 515.217773438 l 1
 183.879882812 255.16015625 l 1
387.19921875 871.299804688 m 1
 475.754882812 713.485351562 l 1
 366.73828125 713.485351562 l 1
 251.669921875 871.299804688 l 1
 387.19921875 871.299804688 l 1
EndSplineSet
EndChar

StartChar: Aacute
Encoding: 193 193 130
Width: 579
GlyphClass: 2
Flags: MW
HStem: 0.00976562 21G<-78.6875 -78.6875 -78.6875 36.5088 394.831 394.831 394.831 510.027> 156.88 98.2803<183.88 365.198 183.88 376.237 127.535 365.198> 671.75 20G<332.646 418.096 418.096 418.096>
LayerCount: 2
Fore
SplineSet
-78.6875 0.009765625 m 1
 332.646484375 691.75 l 1
 418.095703125 691.75 l 1
 510.02734375 0.009765625 l 1
 394.831054688 0.009765625 l 1
 376.237304688 156.879882812 l 1
 127.53515625 156.879882812 l 1
 36.5087890625 0.009765625 l 1
 -78.6875 0.009765625 l 1
183.879882812 255.16015625 m 1
 365.198242188 255.16015625 l 1
 334.216796875 515.217773438 l 1
 183.879882812 255.16015625 l 1
565.911132812 871.299804688 m 1
 377.973632812 713.485351562 l 1
 268.95703125 713.485351562 l 1
 430.381835938 871.299804688 l 1
 565.911132812 871.299804688 l 1
EndSplineSet
EndChar

StartChar: Acircumflex
Encoding: 194 194 131
Width: 579
GlyphClass: 2
Flags: MW
HStem: 0.00976562 21G<-78.6875 -78.6875 -78.6875 36.5088 394.831 394.831 394.831 510.027> 156.88 98.2803<183.88 365.198 183.88 376.237 127.535 365.198> 671.75 20G<332.646 418.096 418.096 418.096>
LayerCount: 2
Fore
SplineSet
-78.6875 0.009765625 m 1
 332.646484375 691.75 l 1
 418.095703125 691.75 l 1
 510.02734375 0.009765625 l 1
 394.831054688 0.009765625 l 1
 376.237304688 156.879882812 l 1
 127.53515625 156.879882812 l 1
 36.5087890625 0.009765625 l 1
 -78.6875 0.009765625 l 1
183.879882812 255.16015625 m 1
 365.198242188 255.16015625 l 1
 334.216796875 515.217773438 l 1
 183.879882812 255.16015625 l 1
382.82421875 879.8046875 m 1
 454.749023438 879.8046875 l 1
 544.776367188 704.03515625 l 1
 436.862304688 704.03515625 l 1
 396.327148438 780.948242188 l 1
 319.46875 704.03515625 l 1
 211.637695312 704.03515625 l 1
 382.82421875 879.8046875 l 1
EndSplineSet
EndChar

StartChar: Atilde
Encoding: 195 195 132
Width: 579
GlyphClass: 2
Flags: MW
HStem: 0.00976562 21G<-78.6875 -78.6875 -78.6875 36.5088 394.831 394.831 394.831 510.027> 156.88 98.2803<183.88 365.198 183.88 376.237 127.535 365.198> 671.75 20G<332.646 418.096 418.096 418.096> 711.598 95.4453<452.505 453.474> 747.506 96.3916<337.128 342.312>
LayerCount: 2
Fore
SplineSet
-78.6875 0.009765625 m 1xe0
 332.646484375 691.75 l 1
 418.095703125 691.75 l 1
 510.02734375 0.009765625 l 1
 394.831054688 0.009765625 l 1
 376.237304688 156.879882812 l 1
 127.53515625 156.879882812 l 1
 36.5087890625 0.009765625 l 1
 -78.6875 0.009765625 l 1xe0
183.879882812 255.16015625 m 1
 365.198242188 255.16015625 l 1
 334.216796875 515.217773438 l 1
 183.879882812 255.16015625 l 1
358.995117188 843.897460938 m 0xe8
 379.7734375 843.897460938 393.993164062 839.327148438 420.626953125 822.352539062 c 0
 442.328125 807.237304688 448.684570312 807.04296875 456.326171875 807.04296875 c 0
 467.052734375 807.04296875 475.528320312 807.462890625 511.431640625 837.75 c 2
 553.90234375 873.577148438 l 1
 527.455078125 759.022460938 l 1
 510.057617188 743.14453125 475.4921875 711.59765625 431.456054688 711.59765625 c 0xf0
 408.080078125 711.59765625 393.775390625 716.967773438 367.668945312 734.4140625 c 0
 367.3984375 734.623046875 349.774414062 747.505859375 334.850585938 747.505859375 c 0
 322.478515625 747.505859375 312.323242188 746.198242188 279.21484375 717.154296875 c 2
 235.9140625 679.16796875 l 1
 262.754882812 795.4296875 l 1
 285.361328125 816.344726562 315.26171875 843.897460938 358.995117188 843.897460938 c 0xe8
EndSplineSet
EndChar

StartChar: Adieresis
Encoding: 196 196 133
Width: 579
GlyphClass: 2
Flags: MW
HStem: 0.00976562 21G<-78.6875 -78.6875 -78.6875 36.5088 394.831 394.831 394.831 510.027> 156.88 98.2803<183.88 365.198 183.88 376.237 127.535 365.198> 671.75 20G<332.646 418.096 418.096 418.096> 719.155 120.96<273.071 356.655 245.146 384.581 273.071 406.74 434.666 518.251>
VStem: 162.459 111.51 324.054 111.511
LayerCount: 2
Fore
SplineSet
-78.6875 0.009765625 m 1
 332.646484375 691.75 l 1
 418.095703125 691.75 l 1
 510.02734375 0.009765625 l 1
 394.831054688 0.009765625 l 1
 376.237304688 156.879882812 l 1
 127.53515625 156.879882812 l 1
 36.5087890625 0.009765625 l 1
 -78.6875 0.009765625 l 1
183.879882812 255.16015625 m 1
 365.198242188 255.16015625 l 1
 334.216796875 515.217773438 l 1
 183.879882812 255.16015625 l 1
273.071289062 840.115234375 m 1
 384.581054688 840.115234375 l 1
 356.655273438 719.155273438 l 1
 245.145507812 719.155273438 l 1
 273.071289062 840.115234375 l 1
434.666015625 840.115234375 m 1
 546.176757812 840.115234375 l 1
 518.250976562 719.155273438 l 1
 406.740234375 719.155273438 l 1
 434.666015625 840.115234375 l 1
EndSplineSet
EndChar

StartChar: Aring
Encoding: 197 197 134
Width: 579
GlyphClass: 2
Flags: MW
HStem: 0.00976562 21G<-78.7021 36.5088 -78.7021 -78.7021 394.831 510.041 394.831 394.831> 156.88 98.2812<183.881 365.199 183.881 376.237 127.535 365.199> 783.415 75.5996<392.541 401.47>
VStem: 193.644 76.5459 328.779 76.5449
LayerCount: 2
Fore
SplineSet
414.459960938 859.014648438 m 0
 473.981445312 859.014648438 510.05078125 814.62109375 495.646484375 752.23046875 c 0
 490.388671875 729.455078125 478.803710938 708.221679688 461.47265625 690.059570312 c 0
 449.734375 677.758789062 436.370117188 667.76953125 421.918945312 660.467773438 c 1
 510.041015625 0.009765625 l 1
 394.831054688 0.009765625 l 1
 376.237304688 156.879882812 l 1
 127.53515625 156.879882812 l 1
 36.5087890625 0.009765625 l 1
 -78.7021484375 0.009765625 l 1
 314.39453125 660.493164062 l 1
 304.666015625 666.954101562 270.577148438 694.23828125 283.965820312 752.23046875 c 0
 298.083984375 813.381835938 352.48046875 859.014648438 414.459960938 859.014648438 c 0
382.825195312 721.991210938 m 0
 391.939453125 721.991210938 398.571289062 724.567382812 405.690429688 730.350585938 c 0
 412.583984375 735.951171875 416.794921875 742.240234375 419.1015625 752.231445312 c 0
 421.407226562 762.21484375 420.1484375 768.815429688 415.7265625 774.81640625 c 0
 411.278320312 780.8515625 405.934570312 783.415039062 397.005859375 783.415039062 c 0
 388.076171875 783.415039062 381.548828125 780.8515625 374.315429688 774.81640625 c 0
 367.115234375 768.805664062 362.815429688 762.206054688 360.51171875 752.23046875 c 0
 358.205078125 742.239257812 359.512695312 735.950195312 363.819335938 730.349609375 c 0
 368.267578125 724.56640625 373.708984375 721.991210938 382.825195312 721.991210938 c 0
183.880859375 255.161132812 m 1
 365.19921875 255.161132812 l 1
 334.216796875 515.21875 l 1
 183.880859375 255.161132812 l 1
376.932617188 671.90625 m 1024
EndSplineSet
EndChar

StartChar: AE
Encoding: 198 198 135
Width: 856
GlyphClass: 2
Flags: MW
HStem: 0.00976562 102.061<457.055 735.893> 161.605 98.2793<236.663 362.125 160.414 384.814> 300.521 102.06<526.434 757.076 502.871 780.639> 589.69 102.06<569.631 872.031 569.631 569.631>
VStem: 408.159 108.675
LayerCount: 2
Fore
SplineSet
-83.720703125 0.009765625 m 1
 451.92578125 691.75 l 1
 895.59375 691.75 l 1
 872.03125 589.690429688 l 1
 569.630859375 589.690429688 l 1
 526.43359375 402.580078125 l 1
 780.638671875 402.580078125 l 1
 757.076171875 300.520507812 l 1
 502.87109375 300.520507812 l 1
 457.0546875 102.0703125 l 1
 759.455078125 102.0703125 l 1
 735.892578125 0.009765625 l 1
 324.817382812 0.009765625 l 1
 362.125 161.60546875 l 1
 160.4140625 161.60546875 l 1
 36.166015625 0.009765625 l 1
 -83.720703125 0.009765625 l 1
384.814453125 259.884765625 m 1
 448.083007812 533.9296875 l 1
 236.663085938 259.884765625 l 1
 384.814453125 259.884765625 l 1
EndSplineSet
EndChar

StartChar: Ccedilla
Encoding: 199 199 136
Width: 610
GlyphClass: 2
Flags: MW
HStem: 598.194 102.061<359.832 395.068>
VStem: 68.9033 108.675 451.628 106.785
LayerCount: 2
Fore
SplineSet
396.706054688 700.254882812 m 0
 543.34375 700.254882812 618.229492188 611.903320312 588.010742188 481.014648438 c 2
 582.775390625 458.334960938 l 1
 474.107421875 458.334960938 l 1
 478.680664062 478.173828125 l 1
 479.3359375 481.013671875 l 2
 488.056640625 518.786132812 482.63671875 545.955078125 464.547851562 566.405273438 c 0
 446.366210938 586.9609375 416.9921875 598.194335938 373.143554688 598.194335938 c 0
 324.538085938 598.194335938 287.818359375 584.740234375 259.383789062 560.151367188 c 0
 231.701171875 536.212890625 208.103515625 493.219726562 193.068359375 428.094726562 c 2
 153.796875 257.995117188 l 2
 122.37109375 121.875 186.68359375 95.455078125 258.022460938 95.455078125 c 0
 301.9296875 95.455078125 336.30859375 106.579101562 363.53515625 126.780273438 c 0
 390.6015625 146.86328125 408.420898438 173.850585938 417.157226562 211.69140625 c 2
 422.611328125 235.31640625 l 1
 529.396484375 235.31640625 l 1
 523.942382812 211.69140625 l 2
 496.774414062 94.0126953125 407.405273438 20.0341796875 300.022460938 -1.2705078125 c 1
 221.411132812 -141.73828125 l 1
 110.974609375 -141.73828125 l 1
 195.112304688 -5.6357421875 l 1
 138.181640625 0.8740234375 94.078125 22.935546875 64.974609375 61.166015625 c 0
 30.52734375 106.416992188 25.8525390625 174.52734375 45.9951171875 261.776367188 c 2
 85.0478515625 430.930664062 l 2
 105.640625 520.127929688 143.041992188 589.427734375 200.552734375 634.702148438 c 0
 256.618164062 678.83984375 322.95703125 700.254882812 396.706054688 700.254882812 c 0
EndSplineSet
EndChar

StartChar: Egrave
Encoding: 200 200 137
Width: 551
GlyphClass: 2
Flags: MW
HStem: 0.00976562 102.061<131.029 434.438> 300.521 102.06<200.408 456.566 176.846 480.129> 589.69 102.06<243.605 570.576 243.605 243.605>
VStem: 82.1338 108.675
LayerCount: 2
Fore
SplineSet
131.029296875 102.0703125 m 1
 458 102.0703125 l 1
 434.4375 0.009765625 l 1
 -1.2080078125 0.009765625 l 1
 158.493164062 691.75 l 1
 594.138671875 691.75 l 1
 570.576171875 589.690429688 l 1
 243.60546875 589.690429688 l 1
 200.408203125 402.580078125 l 1
 480.12890625 402.580078125 l 1
 456.56640625 300.520507812 l 1
 176.845703125 300.520507812 l 1
 131.029296875 102.0703125 l 1
243.165039062 871.299804688 m 1
 378.694335938 871.299804688 l 1
 467.25 713.485351562 l 1
 358.233398438 713.485351562 l 1
 243.165039062 871.299804688 l 1
EndSplineSet
EndChar

StartChar: Eacute
Encoding: 201 201 138
Width: 551
GlyphClass: 2
Flags: MW
HStem: 0.00976562 102.061<131.029 434.438> 300.521 102.06<200.408 456.566 176.846 480.129> 589.69 102.06<243.605 570.576 243.605 243.605>
VStem: 82.1338 108.675
LayerCount: 2
Fore
SplineSet
131.029296875 102.0703125 m 1
 458 102.0703125 l 1
 434.4375 0.009765625 l 1
 -1.2080078125 0.009765625 l 1
 158.493164062 691.75 l 1
 594.138671875 691.75 l 1
 570.576171875 589.690429688 l 1
 243.60546875 589.690429688 l 1
 200.408203125 402.580078125 l 1
 480.12890625 402.580078125 l 1
 456.56640625 300.520507812 l 1
 176.845703125 300.520507812 l 1
 131.029296875 102.0703125 l 1
557.40625 871.299804688 m 1
 369.46875 713.485351562 l 1
 260.452148438 713.485351562 l 1
 421.875976562 871.299804688 l 1
 557.40625 871.299804688 l 1
EndSplineSet
EndChar

StartChar: Ecircumflex
Encoding: 202 202 139
Width: 551
GlyphClass: 2
Flags: MW
HStem: 0.00976562 102.061<131.029 434.438> 300.521 102.06<200.408 456.566 176.846 480.129> 589.69 102.06<243.605 570.576 243.605 243.605>
VStem: 82.1338 108.675
LayerCount: 2
Fore
SplineSet
131.029296875 102.0703125 m 1
 458 102.0703125 l 1
 434.4375 0.009765625 l 1
 -1.2080078125 0.009765625 l 1
 158.493164062 691.75 l 1
 594.138671875 691.75 l 1
 570.576171875 589.690429688 l 1
 243.60546875 589.690429688 l 1
 200.408203125 402.580078125 l 1
 480.12890625 402.580078125 l 1
 456.56640625 300.520507812 l 1
 176.845703125 300.520507812 l 1
 131.029296875 102.0703125 l 1
446.244140625 879.8046875 m 1
 536.271484375 704.03515625 l 1
 428.357421875 704.03515625 l 1
 387.822265625 780.948242188 l 1
 310.963867188 704.03515625 l 1
 203.1328125 704.03515625 l 1
 374.319335938 879.8046875 l 1
 446.244140625 879.8046875 l 1
EndSplineSet
EndChar

StartChar: Edieresis
Encoding: 203 203 140
Width: 551
GlyphClass: 2
Flags: MW
HStem: 0.00976562 102.061<131.029 434.438> 300.521 102.06<200.408 456.566 176.846 480.129> 589.69 102.06<243.605 570.576 243.605 243.605> 719.155 120.96<264.566 348.15 236.641 376.076 264.566 398.235 426.161 509.745>
VStem: 82.1338 108.675 153.954 111.51 315.549 111.51
LayerCount: 2
Fore
SplineSet
131.029296875 102.0703125 m 1xfa
 458 102.0703125 l 1
 434.4375 0.009765625 l 1
 -1.2080078125 0.009765625 l 1
 158.493164062 691.75 l 1
 594.138671875 691.75 l 1
 570.576171875 589.690429688 l 1
 243.60546875 589.690429688 l 1
 200.408203125 402.580078125 l 1
 480.12890625 402.580078125 l 1
 456.56640625 300.520507812 l 1
 176.845703125 300.520507812 l 1
 131.029296875 102.0703125 l 1xfa
264.56640625 840.115234375 m 1xf6
 376.076171875 840.115234375 l 1
 348.150390625 719.155273438 l 1
 236.640625 719.155273438 l 1
 264.56640625 840.115234375 l 1xf6
426.161132812 840.115234375 m 1
 537.670898438 840.115234375 l 1
 509.745117188 719.155273438 l 1
 398.235351562 719.155273438 l 1
 426.161132812 840.115234375 l 1
EndSplineSet
EndChar

StartChar: Igrave
Encoding: 204 204 141
Width: 265
GlyphClass: 2
Flags: MW
HStem: 0.00976562 21G<6.35254 115.027 6.35254 6.35254> 671.75 20G<166.054 274.729 274.729 274.729>
VStem: 89.6943 108.675
LayerCount: 2
Fore
SplineSet
166.053710938 691.75 m 1
 274.728515625 691.75 l 1
 115.02734375 0.009765625 l 1
 6.3525390625 0.009765625 l 1
 166.053710938 691.75 l 1
96.6904296875 871.299804688 m 1
 232.219726562 871.299804688 l 1
 320.774414062 713.485351562 l 1
 211.7578125 713.485351562 l 1
 96.6904296875 871.299804688 l 1
EndSplineSet
EndChar

StartChar: Iacute
Encoding: 205 205 142
Width: 265
GlyphClass: 2
Flags: MW
HStem: 0.00976562 21G<6.35254 115.027 6.35254 6.35254> 671.75 20G<166.054 274.729 274.729 274.729>
VStem: 89.6943 108.675
LayerCount: 2
Fore
SplineSet
166.053710938 691.75 m 1
 274.728515625 691.75 l 1
 115.02734375 0.009765625 l 1
 6.3525390625 0.009765625 l 1
 166.053710938 691.75 l 1
275.401367188 871.299804688 m 1
 410.930664062 871.299804688 l 1
 222.994140625 713.485351562 l 1
 113.977539062 713.485351562 l 1
 275.401367188 871.299804688 l 1
EndSplineSet
EndChar

StartChar: Icircumflex
Encoding: 206 206 143
Width: 265
GlyphClass: 2
Flags: MW
HStem: 0.00976562 21G<6.35254 115.027 6.35254 6.35254> 671.75 20G<166.054 274.729 274.729 274.729>
VStem: 89.6943 108.675
LayerCount: 2
Fore
SplineSet
166.053710938 691.75 m 1
 274.728515625 691.75 l 1
 115.02734375 0.009765625 l 1
 6.3525390625 0.009765625 l 1
 166.053710938 691.75 l 1
227.844726562 879.8046875 m 1
 299.76953125 879.8046875 l 1
 389.795898438 704.03515625 l 1
 281.8828125 704.03515625 l 1
 241.34765625 780.948242188 l 1
 164.489257812 704.03515625 l 1
 56.6572265625 704.03515625 l 1
 227.844726562 879.8046875 l 1
EndSplineSet
EndChar

StartChar: Idieresis
Encoding: 207 207 144
Width: 265
GlyphClass: 2
Flags: MW
HStem: 0.00976562 21G<6.35254 115.027 6.35254 6.35254> 671.75 20G<166.054 274.729 274.729 274.729> 719.155 120.96<118.091 201.676 90.165 229.602 118.091 251.761 279.687 363.271>
VStem: 7.47852 111.511 89.6943 108.675 169.074 111.51
LayerCount: 2
Fore
SplineSet
166.053710938 691.75 m 1xe8
 274.728515625 691.75 l 1
 115.02734375 0.009765625 l 1
 6.3525390625 0.009765625 l 1
 166.053710938 691.75 l 1xe8
118.090820312 840.115234375 m 1xf0
 229.6015625 840.115234375 l 1
 201.67578125 719.155273438 l 1
 90.1650390625 719.155273438 l 1
 118.090820312 840.115234375 l 1xf0
279.686523438 840.115234375 m 1xe4
 391.196289062 840.115234375 l 1
 363.270507812 719.155273438 l 1
 251.760742188 719.155273438 l 1
 279.686523438 840.115234375 l 1xe4
EndSplineSet
EndChar

StartChar: Eth
Encoding: 208 208 145
Width: 667
GlyphClass: 2
Flags: MW
HStem: 0.00976562 102.06<177.335 287.018> 298.629 102.061<246.277 355.015 222.715 378.577> 589.689 102.061<289.911 424.101 289.911 289.911>
VStem: 127.494 109.62 506.439 109.619
LayerCount: 2
Fore
SplineSet
630.239257812 422.423828125 m 2
 594.895507812 269.333984375 l 2
 574.321289062 180.21875 537.5 111.037109375 481.010742188 65.72265625 c 0
 425.833984375 21.4619140625 360.168945312 0.009765625 287.017578125 0.009765625 c 2
 44.15234375 0.009765625 l 1
 113.094726562 298.629882812 l 1
 28.044921875 298.629882812 l 1
 51.607421875 400.690429688 l 1
 136.657226562 400.690429688 l 1
 203.853515625 691.75 l 1
 446.71875 691.75 l 2
 519.870117188 691.75 575.629882812 670.297851562 610.369140625 626.037109375 c 0
 645.935546875 580.721679688 650.813476562 511.5390625 630.239257812 422.423828125 c 2
311.524414062 102.069335938 m 2
 374.235351562 102.069335938 451.672851562 123.780273438 484.403320312 265.553710938 c 2
 519.965820312 419.588867188 l 2
 534.69921875 483.407226562 531.307617188 526.314453125 515.130859375 551.028320312 c 0
 498.615234375 576.260742188 469.825195312 589.689453125 424.100585938 589.689453125 c 2
 289.911132812 589.689453125 l 1
 246.27734375 400.689453125 l 1
 378.577148438 400.689453125 l 1
 355.014648438 298.62890625 l 1
 222.71484375 298.62890625 l 1
 177.334960938 102.069335938 l 1
 311.524414062 102.069335938 l 2
EndSplineSet
EndChar

StartChar: Ntilde
Encoding: 209 209 146
Width: 661
GlyphClass: 2
Flags: MW
HStem: 0.00976562 21G<-1.20801 107.467 -1.20801 -1.20801 414.146 513.817 414.146 414.146> 671.75 20G<158.493 258.143 258.143 258.143 564.844 673.519 673.519 673.519> 711.598 95.4453<492.195 493.163> 747.506 96.3916<376.816 382.002>
VStem: 82.1338 108.675 488.484 108.675
LayerCount: 2
Fore
SplineSet
673.518554688 691.75 m 1xcc
 513.817382812 0.009765625 l 1
 414.146484375 0.009765625 l 1
 217.736328125 477.639648438 l 1
 107.466796875 0.009765625 l 1
 -1.2080078125 0.009765625 l 1
 158.493164062 691.75 l 1
 258.142578125 691.75 l 1
 454.963867188 215.805664062 l 1
 564.84375 691.75 l 1
 673.518554688 691.75 l 1xcc
398.68359375 843.897460938 m 0xdc
 419.462890625 843.897460938 433.682617188 839.326171875 460.31640625 822.352539062 c 0
 482.017578125 807.237304688 488.374023438 807.04296875 496.015625 807.04296875 c 0
 506.7421875 807.04296875 515.216796875 807.462890625 551.12109375 837.75 c 2
 593.591796875 873.577148438 l 1
 567.14453125 759.022460938 l 1
 549.747070312 743.14453125 515.180664062 711.59765625 471.145507812 711.59765625 c 0xec
 447.767578125 711.59765625 433.459960938 716.969726562 407.358398438 734.4140625 c 0
 407.088867188 734.624023438 389.463867188 747.505859375 374.540039062 747.505859375 c 0
 362.16796875 747.505859375 352.012695312 746.198242188 318.905273438 717.154296875 c 2
 275.604492188 679.16796875 l 1
 302.4453125 795.4296875 l 1
 325.049804688 816.34375 354.948242188 843.897460938 398.68359375 843.897460938 c 0xdc
EndSplineSet
EndChar

StartChar: Ograve
Encoding: 210 210 147
Width: 610
GlyphClass: 2
Flags: MW
HStem: -7.5498 103.006<230.229 265.804> 598.197 102.057<357.293 400.472>
VStem: 68.9053 108.675 451.63 108.674
LayerCount: 2
Fore
SplineSet
45.9970703125 261.775390625 m 2
 85.0498046875 430.9296875 l 2
 105.629882812 520.072265625 142.645507812 589.293945312 199.475585938 634.595703125 c 0
 254.931640625 678.801757812 320.71484375 700.25390625 393.87109375 700.25390625 c 0
 466.44140625 700.25390625 521.868164062 678.763671875 556.577148438 634.541015625 c 0
 592.14453125 589.2265625 597.021484375 520.043945312 576.448242188 430.928710938 c 2
 537.395507812 261.774414062 l 2
 516.815429688 172.631835938 479.799804688 103.41015625 422.96875 58.1083984375 c 0
 367.560546875 13.9404296875 302.091796875 -7.5498046875 229.516601562 -7.5498046875 c 0
 156.365234375 -7.5498046875 100.606445312 13.90234375 65.8662109375 58.1630859375 c 0
 30.2998046875 103.477539062 25.423828125 172.66015625 45.9970703125 261.775390625 c 2
254.244140625 95.4560546875 m 0
 318.58203125 95.4560546875 395.545898438 118.075195312 427.849609375 257.99609375 c 2
 467.120117188 428.096679688 l 2
 501.733398438 578.0234375 430.633789062 598.197265625 370.310546875 598.197265625 c 0
 321.723632812 598.197265625 285.682617188 584.626953125 258.2421875 560.018554688 c 0
 231.13671875 535.709960938 207.96875 492.626953125 193.0703125 428.095703125 c 2
 153.799804688 257.99609375 l 2
 139.670898438 196.797851562 143.465820312 156.01171875 159.73046875 132.541015625 c 0
 176.294921875 108.639648438 206.21484375 95.4560546875 254.244140625 95.4560546875 c 0
402.321289062 871.301757812 m 1
 490.876953125 713.487304688 l 1
 381.860351562 713.487304688 l 1
 266.791992188 871.301757812 l 1
 402.321289062 871.301757812 l 1
EndSplineSet
EndChar

StartChar: Oacute
Encoding: 211 211 148
Width: 610
GlyphClass: 2
Flags: MW
HStem: -7.5498 103.006<230.229 265.804> 598.197 102.057<357.293 400.472>
VStem: 68.9053 108.675 451.63 108.674
LayerCount: 2
Fore
SplineSet
45.9970703125 261.775390625 m 2
 85.0498046875 430.9296875 l 2
 105.629882812 520.072265625 142.645507812 589.293945312 199.475585938 634.595703125 c 0
 254.931640625 678.801757812 320.71484375 700.25390625 393.87109375 700.25390625 c 0
 466.44140625 700.25390625 521.868164062 678.763671875 556.577148438 634.541015625 c 0
 592.14453125 589.2265625 597.021484375 520.043945312 576.448242188 430.928710938 c 2
 537.395507812 261.774414062 l 2
 516.815429688 172.631835938 479.799804688 103.41015625 422.96875 58.1083984375 c 0
 367.560546875 13.9404296875 302.091796875 -7.5498046875 229.516601562 -7.5498046875 c 0
 156.365234375 -7.5498046875 100.606445312 13.90234375 65.8662109375 58.1630859375 c 0
 30.2998046875 103.477539062 25.423828125 172.66015625 45.9970703125 261.775390625 c 2
254.244140625 95.4560546875 m 0
 318.58203125 95.4560546875 395.545898438 118.075195312 427.849609375 257.99609375 c 2
 467.120117188 428.096679688 l 2
 501.733398438 578.0234375 430.633789062 598.197265625 370.310546875 598.197265625 c 0
 321.723632812 598.197265625 285.682617188 584.626953125 258.2421875 560.018554688 c 0
 231.13671875 535.709960938 207.96875 492.626953125 193.0703125 428.095703125 c 2
 153.799804688 257.99609375 l 2
 139.670898438 196.797851562 143.465820312 156.01171875 159.73046875 132.541015625 c 0
 176.294921875 108.639648438 206.21484375 95.4560546875 254.244140625 95.4560546875 c 0
445.502929688 871.301757812 m 1
 581.033203125 871.301757812 l 1
 393.095703125 713.487304688 l 1
 284.079101562 713.487304688 l 1
 445.502929688 871.301757812 l 1
EndSplineSet
EndChar

StartChar: Ocircumflex
Encoding: 212 212 149
Width: 610
GlyphClass: 2
Flags: MW
HStem: -7.5498 103.006<230.229 265.804> 598.197 102.057<357.293 400.472>
VStem: 68.9053 108.675 451.63 108.674
LayerCount: 2
Fore
SplineSet
45.9970703125 261.775390625 m 2
 85.0498046875 430.9296875 l 2
 105.629882812 520.072265625 142.645507812 589.293945312 199.475585938 634.595703125 c 0
 254.931640625 678.801757812 320.71484375 700.25390625 393.87109375 700.25390625 c 0
 466.44140625 700.25390625 521.868164062 678.763671875 556.577148438 634.541015625 c 0
 592.14453125 589.2265625 597.021484375 520.043945312 576.448242188 430.928710938 c 2
 537.395507812 261.774414062 l 2
 516.815429688 172.631835938 479.799804688 103.41015625 422.96875 58.1083984375 c 0
 367.560546875 13.9404296875 302.091796875 -7.5498046875 229.516601562 -7.5498046875 c 0
 156.365234375 -7.5498046875 100.606445312 13.90234375 65.8662109375 58.1630859375 c 0
 30.2998046875 103.477539062 25.423828125 172.66015625 45.9970703125 261.775390625 c 2
254.244140625 95.4560546875 m 0
 318.58203125 95.4560546875 395.545898438 118.075195312 427.849609375 257.99609375 c 2
 467.120117188 428.096679688 l 2
 501.733398438 578.0234375 430.633789062 598.197265625 370.310546875 598.197265625 c 0
 321.723632812 598.197265625 285.682617188 584.626953125 258.2421875 560.018554688 c 0
 231.13671875 535.709960938 207.96875 492.626953125 193.0703125 428.095703125 c 2
 153.799804688 257.99609375 l 2
 139.670898438 196.797851562 143.465820312 156.01171875 159.73046875 132.541015625 c 0
 176.294921875 108.639648438 206.21484375 95.4560546875 254.244140625 95.4560546875 c 0
397.9453125 879.806640625 m 1
 469.870117188 879.806640625 l 1
 559.8984375 704.037109375 l 1
 451.984375 704.037109375 l 1
 411.44921875 780.950195312 l 1
 334.590820312 704.037109375 l 1
 226.759765625 704.037109375 l 1
 397.9453125 879.806640625 l 1
EndSplineSet
EndChar

StartChar: Otilde
Encoding: 213 213 150
Width: 610
GlyphClass: 2
Flags: MW
HStem: -7.5498 103.006<230.229 265.804> 598.197 102.057<357.293 400.472> 711.6 95.4453<467.626 468.595> 747.508 96.3916<352.248 357.435>
VStem: 68.9053 108.675 451.63 108.674
LayerCount: 2
Fore
SplineSet
45.9970703125 261.775390625 m 2xcc
 85.0498046875 430.9296875 l 2
 105.629882812 520.072265625 142.645507812 589.293945312 199.475585938 634.595703125 c 0
 254.931640625 678.801757812 320.71484375 700.25390625 393.87109375 700.25390625 c 0
 466.44140625 700.25390625 521.868164062 678.763671875 556.577148438 634.541015625 c 0
 592.14453125 589.2265625 597.021484375 520.043945312 576.448242188 430.928710938 c 2
 537.395507812 261.774414062 l 2
 516.815429688 172.631835938 479.799804688 103.41015625 422.96875 58.1083984375 c 0
 367.560546875 13.9404296875 302.091796875 -7.5498046875 229.516601562 -7.5498046875 c 0
 156.365234375 -7.5498046875 100.606445312 13.90234375 65.8662109375 58.1630859375 c 0
 30.2998046875 103.477539062 25.423828125 172.66015625 45.9970703125 261.775390625 c 2xcc
254.244140625 95.4560546875 m 0
 318.58203125 95.4560546875 395.545898438 118.075195312 427.849609375 257.99609375 c 2
 467.120117188 428.096679688 l 2
 501.733398438 578.0234375 430.633789062 598.197265625 370.310546875 598.197265625 c 0
 321.723632812 598.197265625 285.682617188 584.626953125 258.2421875 560.018554688 c 0
 231.13671875 535.709960938 207.96875 492.626953125 193.0703125 428.095703125 c 2
 153.799804688 257.99609375 l 2
 139.670898438 196.797851562 143.465820312 156.01171875 159.73046875 132.541015625 c 0
 176.294921875 108.639648438 206.21484375 95.4560546875 254.244140625 95.4560546875 c 0
374.115234375 843.899414062 m 0xdc
 394.89453125 843.899414062 409.114257812 839.328125 435.747070312 822.354492188 c 0
 457.44921875 807.239257812 463.805664062 807.044921875 471.447265625 807.044921875 c 0
 482.173828125 807.044921875 490.6484375 807.46484375 526.551757812 837.751953125 c 2
 569.022460938 873.578125 l 1
 542.575195312 759.024414062 l 1
 525.178710938 743.146484375 490.61328125 711.599609375 446.577148438 711.599609375 c 0xec
 423.19921875 711.599609375 408.891601562 716.971679688 382.790039062 734.416015625 c 0
 382.51953125 734.625 364.896484375 747.5078125 349.97265625 747.5078125 c 0
 337.600585938 747.5078125 327.4453125 746.200195312 294.3359375 717.15625 c 2
 251.03515625 679.169921875 l 1
 277.875976562 795.431640625 l 1
 300.481445312 816.345703125 330.379882812 843.899414062 374.115234375 843.899414062 c 0xdc
EndSplineSet
EndChar

StartChar: Odieresis
Encoding: 214 214 151
Width: 610
GlyphClass: 2
Flags: MW
HStem: -7.5498 103.006<230.229 265.804> 598.197 102.057<357.293 400.472> 719.157 120.96<288.192 371.776 260.267 399.702 288.192 421.861 449.787 533.371>
VStem: 68.9053 108.675 177.58 111.51 339.175 111.51 451.63 108.674
LayerCount: 2
Fore
SplineSet
45.9970703125 261.775390625 m 2xf6
 85.0498046875 430.9296875 l 2
 105.629882812 520.072265625 142.645507812 589.293945312 199.475585938 634.595703125 c 0
 254.931640625 678.801757812 320.71484375 700.25390625 393.87109375 700.25390625 c 0
 466.44140625 700.25390625 521.868164062 678.763671875 556.577148438 634.541015625 c 0
 592.14453125 589.2265625 597.021484375 520.043945312 576.448242188 430.928710938 c 2
 537.395507812 261.774414062 l 2
 516.815429688 172.631835938 479.799804688 103.41015625 422.96875 58.1083984375 c 0
 367.560546875 13.9404296875 302.091796875 -7.5498046875 229.516601562 -7.5498046875 c 0
 156.365234375 -7.5498046875 100.606445312 13.90234375 65.8662109375 58.1630859375 c 0
 30.2998046875 103.477539062 25.423828125 172.66015625 45.9970703125 261.775390625 c 2xf6
254.244140625 95.4560546875 m 0
 318.58203125 95.4560546875 395.545898438 118.075195312 427.849609375 257.99609375 c 2
 467.120117188 428.096679688 l 2
 501.733398438 578.0234375 430.633789062 598.197265625 370.310546875 598.197265625 c 0
 321.723632812 598.197265625 285.682617188 584.626953125 258.2421875 560.018554688 c 0
 231.13671875 535.709960938 207.96875 492.626953125 193.0703125 428.095703125 c 2
 153.799804688 257.99609375 l 2
 139.670898438 196.797851562 143.465820312 156.01171875 159.73046875 132.541015625 c 0
 176.294921875 108.639648438 206.21484375 95.4560546875 254.244140625 95.4560546875 c 0
288.192382812 840.1171875 m 1xee
 399.702148438 840.1171875 l 1
 371.776367188 719.157226562 l 1
 260.266601562 719.157226562 l 1
 288.192382812 840.1171875 l 1xee
449.787109375 840.1171875 m 1
 561.296875 840.1171875 l 1
 533.37109375 719.157226562 l 1
 421.861328125 719.157226562 l 1
 449.787109375 840.1171875 l 1
EndSplineSet
EndChar

StartChar: multiply
Encoding: 215 215 152
Width: 517
GlyphClass: 2
Flags: W
LayerCount: 2
Fore
SplineSet
233.676757812 211.03515625 m 1
 90.607421875 94.80078125 l 1
 37.0888671875 164.383789062 l 1
 180.375976562 281.563476562 l 1
 90.93359375 397.85546875 l 1
 176.650390625 467.494140625 l 1
 266.049804688 351.259765625 l 1
 408.926757812 467.337890625 l 1
 463.822265625 398.013671875 l 1
 320.487304688 281.563476562 l 1
 409.7890625 164.224609375 l 1
 322.956054688 94.95703125 l 1
 233.676757812 211.03515625 l 1
EndSplineSet
EndChar

StartChar: Oslash
Encoding: 216 216 153
Width: 610
GlyphClass: 2
Flags: MW
HStem: -7.54883 103.005<236.237 265.804> 598.196 102.059<357.293 387.861>
VStem: 68.9043 108.675 451.629 108.675
LayerCount: 2
Fore
SplineSet
554.98828125 710.650390625 m 1
 655.567382812 710.650390625 l 1
 571.788085938 607.044921875 l 1
 592.284179688 561.938476562 593.014648438 502.6875 576.448242188 430.9296875 c 2
 537.395507812 261.775390625 l 2
 516.815429688 172.6328125 479.799804688 103.411132812 422.969726562 58.109375 c 0
 367.560546875 13.94140625 302.091796875 -7.548828125 229.516601562 -7.548828125 c 0
 177.422851562 -7.548828125 134.448242188 2.650390625 101.885742188 24.021484375 c 1
 67.345703125 -18.888671875 l 1
 -33.3408203125 -18.888671875 l 1
 50.4404296875 84.71875 l 1
 29.9375 129.8984375 29.30078125 189.4609375 45.99609375 261.776367188 c 2
 85.048828125 430.930664062 l 2
 105.62890625 520.073242188 142.64453125 589.294921875 199.474609375 634.596679688 c 0
 254.930664062 678.802734375 320.71484375 700.254882812 393.87109375 700.254882812 c 0
 445.515625 700.254882812 488.21875 690.01171875 520.692382812 668.609375 c 1
 554.98828125 710.650390625 l 1
370.309570312 598.196289062 m 0
 321.723632812 598.196289062 285.681640625 584.625976562 258.240234375 560.017578125 c 0
 231.135742188 535.708984375 207.966796875 492.625976562 193.069335938 428.094726562 c 2
 153.797851562 257.995117188 l 2
 149.01171875 237.263671875 146.321289062 218.784179688 145.546875 202.54296875 c 1
 446.637695312 576.653320312 l 1
 430.1171875 590.58984375 405.413085938 598.196289062 370.309570312 598.196289062 c 0
254.243164062 95.4560546875 m 0
 318.581054688 95.4560546875 395.544921875 118.075195312 427.848632812 257.99609375 c 2
 467.119140625 428.095703125 l 2
 472.284179688 450.46875 475.205078125 470.383789062 476.064453125 487.84375 c 1
 175.986328125 115.579101562 l 1
 192.827148438 102.669921875 218.231445312 95.4560546875 254.243164062 95.4560546875 c 0
EndSplineSet
EndChar

StartChar: Ugrave
Encoding: 217 217 154
Width: 635
GlyphClass: 2
Flags: MW
HStem: -5.66016 101.115<244.06 286.751 244.06 312.154> 671.75 20G<158.493 268.113 268.113 268.113 538.384 647.059 647.059 647.059>
VStem: 82.1338 109.62 462.024 108.675
LayerCount: 2
Fore
SplineSet
242.23828125 -5.66015625 m 0
 97.3916015625 -5.66015625 20.9990234375 96.19921875 52.462890625 232.48046875 c 2
 158.493164062 691.75 l 1
 268.11328125 691.75 l 1
 163.391601562 238.150390625 l 2
 152.765625 192.124023438 157.60546875 158.217773438 175.72265625 133.268554688 c 0
 193.828125 108.333984375 222.537109375 95.455078125 265.583007812 95.455078125 c 0
 307.919921875 95.455078125 342.477539062 108.278320312 372.526367188 133.348632812 c 0
 402.44921875 158.3125 423.047851562 192.173828125 433.662109375 238.150390625 c 2
 538.383789062 691.75 l 1
 647.05859375 691.75 l 1
 541.028320312 232.48046875 l 2
 508.13671875 90.0126953125 382.0703125 -5.66015625 242.23828125 -5.66015625 c 0
413.66015625 871.30078125 m 1
 502.215820312 713.486328125 l 1
 393.19921875 713.486328125 l 1
 278.129882812 871.30078125 l 1
 413.66015625 871.30078125 l 1
EndSplineSet
EndChar

StartChar: Uacute
Encoding: 218 218 155
Width: 635
GlyphClass: 2
Flags: MW
HStem: -5.66016 101.115<244.06 286.751 244.06 312.154> 671.75 20G<158.493 268.113 268.113 268.113 538.384 647.059 647.059 647.059>
VStem: 82.1338 109.62 462.024 108.675
LayerCount: 2
Fore
SplineSet
242.23828125 -5.66015625 m 0
 97.3916015625 -5.66015625 20.9990234375 96.19921875 52.462890625 232.48046875 c 2
 158.493164062 691.75 l 1
 268.11328125 691.75 l 1
 163.391601562 238.150390625 l 2
 152.765625 192.124023438 157.60546875 158.217773438 175.72265625 133.268554688 c 0
 193.828125 108.333984375 222.537109375 95.455078125 265.583007812 95.455078125 c 0
 307.919921875 95.455078125 342.477539062 108.278320312 372.526367188 133.348632812 c 0
 402.44921875 158.3125 423.047851562 192.173828125 433.662109375 238.150390625 c 2
 538.383789062 691.75 l 1
 647.05859375 691.75 l 1
 541.028320312 232.48046875 l 2
 508.13671875 90.0126953125 382.0703125 -5.66015625 242.23828125 -5.66015625 c 0
456.841796875 871.30078125 m 1
 592.37109375 871.30078125 l 1
 404.434570312 713.486328125 l 1
 295.41796875 713.486328125 l 1
 456.841796875 871.30078125 l 1
EndSplineSet
EndChar

StartChar: Ucircumflex
Encoding: 219 219 156
Width: 635
GlyphClass: 2
Flags: MW
HStem: -5.66016 101.115<244.06 286.751 244.06 312.154> 671.75 20G<158.493 268.113 268.113 268.113 538.384 647.059 647.059 647.059>
VStem: 82.1338 109.62 462.024 108.675
LayerCount: 2
Fore
SplineSet
242.23828125 -5.66015625 m 0
 97.3916015625 -5.66015625 20.9990234375 96.19921875 52.462890625 232.48046875 c 2
 158.493164062 691.75 l 1
 268.11328125 691.75 l 1
 163.391601562 238.150390625 l 2
 152.765625 192.124023438 157.60546875 158.217773438 175.72265625 133.268554688 c 0
 193.828125 108.333984375 222.537109375 95.455078125 265.583007812 95.455078125 c 0
 307.919921875 95.455078125 342.477539062 108.278320312 372.526367188 133.348632812 c 0
 402.44921875 158.3125 423.047851562 192.173828125 433.662109375 238.150390625 c 2
 538.383789062 691.75 l 1
 647.05859375 691.75 l 1
 541.028320312 232.48046875 l 2
 508.13671875 90.0126953125 382.0703125 -5.66015625 242.23828125 -5.66015625 c 0
409.284179688 879.805664062 m 1
 481.208984375 879.805664062 l 1
 571.237304688 704.036132812 l 1
 463.323242188 704.036132812 l 1
 422.788085938 780.94921875 l 1
 345.9296875 704.036132812 l 1
 238.098632812 704.036132812 l 1
 409.284179688 879.805664062 l 1
EndSplineSet
EndChar

StartChar: Udieresis
Encoding: 220 220 157
Width: 635
GlyphClass: 2
Flags: MW
HStem: -5.66016 101.115<244.06 286.751 244.06 312.154> 671.75 20G<158.493 268.113 268.113 268.113 538.384 647.059 647.059 647.059> 719.156 120.96<299.531 383.115 271.605 411.041 299.531 433.2 461.126 544.711>
VStem: 82.1338 109.62 188.919 111.51 350.514 111.511 462.024 108.675
LayerCount: 2
Fore
SplineSet
242.23828125 -5.66015625 m 0xf2
 97.3916015625 -5.66015625 20.9990234375 96.19921875 52.462890625 232.48046875 c 2
 158.493164062 691.75 l 1
 268.11328125 691.75 l 1
 163.391601562 238.150390625 l 2
 152.765625 192.124023438 157.60546875 158.217773438 175.72265625 133.268554688 c 0
 193.828125 108.333984375 222.537109375 95.455078125 265.583007812 95.455078125 c 0
 307.919921875 95.455078125 342.477539062 108.278320312 372.526367188 133.348632812 c 0
 402.44921875 158.3125 423.047851562 192.173828125 433.662109375 238.150390625 c 2
 538.383789062 691.75 l 1
 647.05859375 691.75 l 1
 541.028320312 232.48046875 l 2
 508.13671875 90.0126953125 382.0703125 -5.66015625 242.23828125 -5.66015625 c 0xf2
299.53125 840.116210938 m 1xe8
 411.041015625 840.116210938 l 1
 383.115234375 719.15625 l 1
 271.60546875 719.15625 l 1
 299.53125 840.116210938 l 1xe8
461.125976562 840.116210938 m 1xe4
 572.63671875 840.116210938 l 1
 544.7109375 719.15625 l 1
 433.200195312 719.15625 l 1
 461.125976562 840.116210938 l 1xe4
EndSplineSet
EndChar

StartChar: Yacute
Encoding: 221 221 158
Width: 504
GlyphClass: 2
Flags: MW
HStem: 0.00976562 21G<124.478 233.152 124.478 124.478> 671.75 20G<76.8096 196.358 196.358 196.358 480.707 600.186 600.186 600.186>
VStem: 207.819 108.675
LayerCount: 2
Fore
SplineSet
480.70703125 691.75 m 1
 600.185546875 691.75 l 1
 299.676757812 288.157226562 l 1
 233.15234375 0.009765625 l 1
 124.477539062 0.009765625 l 1
 191.217773438 289.091796875 l 1
 76.8095703125 691.75 l 1
 196.358398438 691.75 l 1
 271.647460938 403.923828125 l 1
 480.70703125 691.75 l 1
393.526367188 871.299804688 m 1
 529.055664062 871.299804688 l 1
 341.119140625 713.485351562 l 1
 232.102539062 713.485351562 l 1
 393.526367188 871.299804688 l 1
EndSplineSet
EndChar

StartChar: Thorn
Encoding: 222 222 159
Width: 579
GlyphClass: 2
Flags: MW
HStem: 0.00976562 21G<-1.20801 107.467 -1.20801 -1.20801> 150.265 102.061<165.719 278.236 142.156 296.129> 471.565 101.114<239.679 346.744 216.334 375.759> 671.75 20G<158.493 267.168 267.168 267.168>
VStem: 82.1338 108.675 443.124 108.675
LayerCount: 2
Fore
SplineSet
551.14453125 358.165039062 m 0
 536.633789062 295.315429688 504.299804688 243.110351562 454.083984375 205.486328125 c 0
 404.162109375 168.081054688 344.719726562 150.264648438 278.236328125 150.264648438 c 2
 142.15625 150.264648438 l 1
 107.466796875 0.009765625 l 1
 -1.2080078125 0.009765625 l 1
 158.493164062 691.75 l 1
 267.16796875 691.75 l 1
 239.678710938 572.6796875 l 1
 375.758789062 572.6796875 l 2
 442.856445312 572.6796875 494.28125 554.715820312 526.576171875 516.866210938 c 0
 559.1796875 478.655273438 566.436523438 424.403320312 551.14453125 358.165039062 c 0
296.12890625 252.325195312 m 2
 413.135742188 252.325195312 434.919921875 325.465820312 442.469726562 358.165039062 c 0
 451.647460938 397.918945312 460.481445312 471.565429688 346.744140625 471.565429688 c 2
 216.333984375 471.565429688 l 1
 165.71875 252.325195312 l 1
 296.12890625 252.325195312 l 2
EndSplineSet
EndChar

StartChar: germandbls
Encoding: 223 223 160
Width: 510
GlyphClass: 2
Flags: MW
HStem: -3.76953 98.2793<182.204 206.765 159.515 226.619> 371.396 98.2803<267.873 284.872 245.183 313.233> 600.086 98.2803<316.037 364.382>
VStem: 77.4082 103.95 355.238 104.896 362.798 104.896
LayerCount: 2
Fore
SplineSet
430.223632812 424.10546875 m 1xf8
 466.790039062 389.048828125 461.974609375 336.227539062 438.0234375 232.48046875 c 0
 425.008789062 176.109375 411.12890625 132.040039062 395.306640625 99.138671875 c 0
 350.463867188 5.884765625 267.194335938 -3.76953125 206.764648438 -3.76953125 c 2
 159.514648438 -3.76953125 l 1
 182.204101562 94.509765625 l 1
 226.619140625 94.509765625 l 2
 253.608398438 94.509765625 271.444335938 99.7265625 280.478515625 105.580078125 c 0
 290.38671875 112 299.145507812 122.206054688 306.34765625 139.658203125 c 0
 313.99609375 158.19140625 323.236328125 189.641601562 333.126953125 232.481445312 c 0xf4
 342.723632812 274.05078125 347.901367188 304.98046875 348.8828125 323.9375 c 0
 349.788085938 341.432617188 345.594726562 352.115234375 337.708984375 359.333007812 c 0
 330.5625 365.873046875 313.749023438 371.395507812 284.872070312 371.395507812 c 2
 245.182617188 371.395507812 l 1
 267.873046875 469.67578125 l 1
 313.233398438 469.67578125 l 2
 341.604492188 469.67578125 359.373046875 476.215820312 369.172851562 484.178710938 c 0
 379.447265625 492.525390625 389.068359375 507.537109375 394.9453125 532.991210938 c 0
 402.065429688 563.830078125 402.43359375 600.0859375 326.330078125 600.0859375 c 0
 291.375976562 600.0859375 267.749023438 591.6796875 252.477539062 579.09375 c 0
 237.328125 566.608398438 223.5234375 543.638671875 214.95703125 506.53125 c 2
 98.017578125 0.0107421875 l 1
 -5.9326171875 0.0107421875 l 1
 109.04296875 498.026367188 l 2
 123.370117188 560.083984375 149.075195312 610.299804688 188.797851562 645.844726562 c 0
 229.622070312 682.377929688 283.997070312 698.366210938 348.076171875 698.366210938 c 0
 405.775390625 698.366210938 449.961914062 685.147460938 477.330078125 655.770507812 c 0
 504.796875 626.287109375 511.670898438 584.231445312 500.05859375 533.934570312 c 0
 488.693359375 484.704101562 466.346679688 449.752929688 430.223632812 424.10546875 c 1xf8
EndSplineSet
EndChar

StartChar: agrave
Encoding: 224 224 161
Width: 503
GlyphClass: 2
Flags: MW
HStem: -5.66113 91.666<138.373 173.254> 224.92 86.9395<170.379 329.719 220.1 309.647> 431.875 93.5547<261.887 309.187> 678.366 20G<171.111 306.641 306.641 306.641>
VStem: 50.9502 103.95 65.124 102.06 341.064 103.95
LayerCount: 2
Fore
SplineSet
337.791015625 346.82421875 m 2xfa
 345.186523438 378.856445312 349.775390625 431.875 268.59765625 431.875 c 0
 238.725585938 431.875 216.328125 425.104492188 199.799804688 413.983398438 c 0
 183.553710938 403.051757812 173.727539062 389.346679688 168.928710938 368.559570312 c 2
 163.692382812 345.879882812 l 1
 61.6328125 345.879882812 l 1
 67.3056640625 370.450195312 l 2xf6
 77.9326171875 416.479492188 104.390625 455.642578125 145.122070312 484.0078125 c 0
 185.853515625 512.373046875 234.524414062 525.4296875 289.25 525.4296875 c 0
 348.375976562 525.4296875 393.498046875 511.124023438 420.987304688 479.6640625 c 0
 448.721679688 447.923828125 454.455078125 401.893554688 441.5234375 345.879882812 c 2
 361.672851562 0.009765625 l 1
 258.66796875 0.009765625 l 1
 264.237304688 24.1328125 l 1
 238.498046875 8.71875 201.60546875 -5.6611328125 144.903320312 -5.6611328125 c 0
 91.478515625 -5.6611328125 50.1474609375 7.0458984375 24.1669921875 35.0703125 c 0
 -2.212890625 63.52734375 -8.1484375 105.016601562 3.388671875 154.989257812 c 0
 23.384765625 241.603515625 95.4609375 311.859375 220.099609375 311.859375 c 2
 329.71875 311.859375 l 1
 337.791015625 346.82421875 l 2xfa
107.556640625 155.934570312 m 0xfa
 100.206054688 124.095703125 100.283203125 86.0048828125 176.461914062 86.0048828125 c 0
 216.00390625 86.0048828125 242.896484375 95.212890625 259.881835938 109.012695312 c 0
 277.294921875 123.159179688 291.513671875 146.37109375 299.830078125 182.395507812 c 2
 309.647460938 224.919921875 l 1
 209.477539062 224.919921875 l 2
 131.28125 224.919921875 114.491210938 185.969726562 107.556640625 155.934570312 c 0xfa
171.111328125 698.366210938 m 1
 306.640625 698.366210938 l 1
 395.1953125 540.55078125 l 1
 286.178710938 540.55078125 l 1
 171.111328125 698.366210938 l 1
EndSplineSet
EndChar

StartChar: aacute
Encoding: 225 225 162
Width: 503
GlyphClass: 2
Flags: MW
HStem: -5.66113 91.666<138.373 173.254> 224.92 86.9395<170.379 329.719 220.1 309.647> 431.875 93.5547<261.887 309.187> 678.366 20G<349.822 485.352 485.352 485.352>
VStem: 50.9502 103.95 65.124 102.06 341.064 103.95
LayerCount: 2
Fore
SplineSet
337.791015625 346.82421875 m 2xfa
 345.186523438 378.856445312 349.775390625 431.875 268.59765625 431.875 c 0
 238.725585938 431.875 216.328125 425.104492188 199.799804688 413.983398438 c 0
 183.553710938 403.051757812 173.727539062 389.346679688 168.928710938 368.559570312 c 2
 163.692382812 345.879882812 l 1
 61.6328125 345.879882812 l 1
 67.3056640625 370.450195312 l 2xf6
 77.9326171875 416.479492188 104.390625 455.642578125 145.122070312 484.0078125 c 0
 185.853515625 512.373046875 234.524414062 525.4296875 289.25 525.4296875 c 0
 348.375976562 525.4296875 393.498046875 511.124023438 420.987304688 479.6640625 c 0
 448.721679688 447.923828125 454.455078125 401.893554688 441.5234375 345.879882812 c 2
 361.672851562 0.009765625 l 1
 258.66796875 0.009765625 l 1
 264.237304688 24.1328125 l 1
 238.498046875 8.71875 201.60546875 -5.6611328125 144.903320312 -5.6611328125 c 0
 91.478515625 -5.6611328125 50.1474609375 7.0458984375 24.1669921875 35.0703125 c 0
 -2.212890625 63.52734375 -8.1484375 105.016601562 3.388671875 154.989257812 c 0
 23.384765625 241.603515625 95.4609375 311.859375 220.099609375 311.859375 c 2
 329.71875 311.859375 l 1
 337.791015625 346.82421875 l 2xfa
107.556640625 155.934570312 m 0xfa
 100.206054688 124.095703125 100.283203125 86.0048828125 176.461914062 86.0048828125 c 0
 216.00390625 86.0048828125 242.896484375 95.212890625 259.881835938 109.012695312 c 0
 277.294921875 123.159179688 291.513671875 146.37109375 299.830078125 182.395507812 c 2
 309.647460938 224.919921875 l 1
 209.477539062 224.919921875 l 2
 131.28125 224.919921875 114.491210938 185.969726562 107.556640625 155.934570312 c 0xfa
349.822265625 698.366210938 m 1
 485.3515625 698.366210938 l 1
 297.415039062 540.55078125 l 1
 188.3984375 540.55078125 l 1
 349.822265625 698.366210938 l 1
EndSplineSet
EndChar

StartChar: acircumflex
Encoding: 226 226 163
Width: 503
GlyphClass: 2
Flags: MW
HStem: -5.66113 91.666<138.373 173.254> 224.92 86.9395<170.379 329.719 220.1 309.647> 431.875 93.5547<261.887 309.187>
VStem: 50.9502 103.95 65.124 102.06 341.064 103.95
LayerCount: 2
Fore
SplineSet
337.791015625 346.82421875 m 2xf4
 345.186523438 378.856445312 349.775390625 431.875 268.59765625 431.875 c 0
 238.725585938 431.875 216.328125 425.104492188 199.799804688 413.983398438 c 0
 183.553710938 403.051757812 173.727539062 389.346679688 168.928710938 368.559570312 c 2
 163.692382812 345.879882812 l 1
 61.6328125 345.879882812 l 1
 67.3056640625 370.450195312 l 2xec
 77.9326171875 416.479492188 104.390625 455.642578125 145.122070312 484.0078125 c 0
 185.853515625 512.373046875 234.524414062 525.4296875 289.25 525.4296875 c 0
 348.375976562 525.4296875 393.498046875 511.124023438 420.987304688 479.6640625 c 0
 448.721679688 447.923828125 454.455078125 401.893554688 441.5234375 345.879882812 c 2
 361.672851562 0.009765625 l 1
 258.66796875 0.009765625 l 1
 264.237304688 24.1328125 l 1
 238.498046875 8.71875 201.60546875 -5.6611328125 144.903320312 -5.6611328125 c 0
 91.478515625 -5.6611328125 50.1474609375 7.0458984375 24.1669921875 35.0703125 c 0
 -2.212890625 63.52734375 -8.1484375 105.016601562 3.388671875 154.989257812 c 0
 23.384765625 241.603515625 95.4609375 311.859375 220.099609375 311.859375 c 2
 329.71875 311.859375 l 1
 337.791015625 346.82421875 l 2xf4
107.556640625 155.934570312 m 0xf4
 100.206054688 124.095703125 100.283203125 86.0048828125 176.461914062 86.0048828125 c 0
 216.00390625 86.0048828125 242.896484375 95.212890625 259.881835938 109.012695312 c 0
 277.294921875 123.159179688 291.513671875 146.37109375 299.830078125 182.395507812 c 2
 309.647460938 224.919921875 l 1
 209.477539062 224.919921875 l 2
 131.28125 224.919921875 114.491210938 185.969726562 107.556640625 155.934570312 c 0xf4
302.265625 706.87109375 m 1
 374.190429688 706.87109375 l 1
 464.216796875 531.100585938 l 1
 356.303710938 531.100585938 l 1
 315.768554688 608.013671875 l 1
 238.91015625 531.100585938 l 1
 131.079101562 531.100585938 l 1
 302.265625 706.87109375 l 1
EndSplineSet
EndChar

StartChar: atilde
Encoding: 227 227 164
Width: 503
GlyphClass: 2
Flags: MW
HStem: -5.66113 91.666<138.373 173.254> 224.92 86.9395<170.379 329.719 220.1 309.647> 431.875 93.5547<261.887 309.187> 506.233 21G<155.354 155.354> 538.664 95.4443<371.947 372.915> 574.572 96.3916<256.57 261.754>
VStem: 50.9502 103.95 65.124 102.06 341.064 103.95
LayerCount: 2
Fore
SplineSet
337.791015625 346.82421875 m 2xe280
 345.186523438 378.856445312 349.775390625 431.875 268.59765625 431.875 c 0
 238.725585938 431.875 216.328125 425.104492188 199.799804688 413.983398438 c 0
 183.553710938 403.051757812 173.727539062 389.346679688 168.928710938 368.559570312 c 2
 163.692382812 345.879882812 l 1
 61.6328125 345.879882812 l 1
 67.3056640625 370.450195312 l 2xe180
 77.9326171875 416.479492188 104.390625 455.642578125 145.122070312 484.0078125 c 0
 185.853515625 512.373046875 234.524414062 525.4296875 289.25 525.4296875 c 0
 348.375976562 525.4296875 393.498046875 511.124023438 420.987304688 479.6640625 c 0
 448.721679688 447.923828125 454.455078125 401.893554688 441.5234375 345.879882812 c 2
 361.672851562 0.009765625 l 1
 258.66796875 0.009765625 l 1
 264.237304688 24.1328125 l 1
 238.498046875 8.71875 201.60546875 -5.6611328125 144.903320312 -5.6611328125 c 0
 91.478515625 -5.6611328125 50.1474609375 7.0458984375 24.1669921875 35.0703125 c 0
 -2.212890625 63.52734375 -8.1484375 105.016601562 3.388671875 154.989257812 c 0
 23.384765625 241.603515625 95.4609375 311.859375 220.099609375 311.859375 c 2
 329.71875 311.859375 l 1
 337.791015625 346.82421875 l 2xe280
107.556640625 155.934570312 m 0xc280
 100.206054688 124.095703125 100.283203125 86.0048828125 176.461914062 86.0048828125 c 0
 216.00390625 86.0048828125 242.896484375 95.212890625 259.881835938 109.012695312 c 0
 277.294921875 123.159179688 291.513671875 146.37109375 299.830078125 182.395507812 c 2
 309.647460938 224.919921875 l 1
 209.477539062 224.919921875 l 2
 131.28125 224.919921875 114.491210938 185.969726562 107.556640625 155.934570312 c 0xc280
278.436523438 670.963867188 m 0xd480
 299.21484375 670.963867188 313.43359375 666.392578125 340.067382812 649.41796875 c 0
 361.76953125 634.303710938 368.125976562 634.108398438 375.767578125 634.108398438 c 0
 386.493164062 634.108398438 394.958007812 634.5234375 430.874023438 664.817382812 c 2
 473.341796875 700.637695312 l 1
 446.896484375 586.087890625 l 1
 429.499023438 570.209960938 394.932617188 538.6640625 350.897460938 538.6640625 c 0xc880
 327.5234375 538.6640625 313.22265625 544.03125 287.110351562 561.479492188 c 0
 286.83984375 561.689453125 269.215820312 574.572265625 254.291992188 574.572265625 c 0
 241.918945312 574.572265625 231.764648438 573.264648438 198.65625 544.219726562 c 2
 155.354492188 506.233398438 l 1
 182.196289062 622.495117188 l 1
 204.801757812 643.41015625 234.703125 670.963867188 278.436523438 670.963867188 c 0xd480
EndSplineSet
EndChar

StartChar: adieresis
Encoding: 228 228 165
Width: 503
GlyphClass: 2
Flags: MW
HStem: -5.66113 91.666<138.373 173.254> 224.92 86.9395<170.379 329.719 220.1 309.647> 431.875 93.5547<261.887 309.187> 546.221 120.96<192.513 276.097 164.587 304.022 192.513 326.182 354.107 437.691>
VStem: 50.9502 103.95 65.124 102.06 121.825 111.51 283.42 111.51 341.064 103.95
LayerCount: 2
Fore
SplineSet
337.791015625 346.82421875 m 2xf880
 345.186523438 378.856445312 349.775390625 431.875 268.59765625 431.875 c 0
 238.725585938 431.875 216.328125 425.104492188 199.799804688 413.983398438 c 0
 183.553710938 403.051757812 173.727539062 389.346679688 168.928710938 368.559570312 c 2
 163.692382812 345.879882812 l 1
 61.6328125 345.879882812 l 1
 67.3056640625 370.450195312 l 2xf480
 77.9326171875 416.479492188 104.390625 455.642578125 145.122070312 484.0078125 c 0
 185.853515625 512.373046875 234.524414062 525.4296875 289.25 525.4296875 c 0
 348.375976562 525.4296875 393.498046875 511.124023438 420.987304688 479.6640625 c 0
 448.721679688 447.923828125 454.455078125 401.893554688 441.5234375 345.879882812 c 2
 361.672851562 0.009765625 l 1
 258.66796875 0.009765625 l 1
 264.237304688 24.1328125 l 1
 238.498046875 8.71875 201.60546875 -5.6611328125 144.903320312 -5.6611328125 c 0
 91.478515625 -5.6611328125 50.1474609375 7.0458984375 24.1669921875 35.0703125 c 0
 -2.212890625 63.52734375 -8.1484375 105.016601562 3.388671875 154.989257812 c 0
 23.384765625 241.603515625 95.4609375 311.859375 220.099609375 311.859375 c 2
 329.71875 311.859375 l 1
 337.791015625 346.82421875 l 2xf880
107.556640625 155.934570312 m 0xf880
 100.206054688 124.095703125 100.283203125 86.0048828125 176.461914062 86.0048828125 c 0
 216.00390625 86.0048828125 242.896484375 95.212890625 259.881835938 109.012695312 c 0
 277.294921875 123.159179688 291.513671875 146.37109375 299.830078125 182.395507812 c 2
 309.647460938 224.919921875 l 1
 209.477539062 224.919921875 l 2
 131.28125 224.919921875 114.491210938 185.969726562 107.556640625 155.934570312 c 0xf880
192.512695312 667.180664062 m 1xf2
 304.022460938 667.180664062 l 1
 276.096679688 546.220703125 l 1
 164.586914062 546.220703125 l 1
 192.512695312 667.180664062 l 1xf2
354.107421875 667.180664062 m 1xf1
 465.6171875 667.180664062 l 1
 437.69140625 546.220703125 l 1
 326.181640625 546.220703125 l 1
 354.107421875 667.180664062 l 1xf1
EndSplineSet
EndChar

